<svg width="432" height="188" viewBox="0 0 432 188" fill="none" xmlns="http://www.w3.org/2000/svg">
<rect y="40" width="417" height="28" rx="4" fill="#BCFFB1"/>
<path d="M34.7188 58.5078C34.3333 59.0599 33.7943 59.474 33.1016 59.75C32.4141 60.0208 31.612 60.1562 30.6953 60.1562C29.7682 60.1562 28.9453 59.9401 28.2266 59.5078C27.5078 59.0703 26.9505 58.4505 26.5547 57.6484C26.1641 56.8464 25.9635 55.9167 25.9531 54.8594V53.8672C25.9531 52.1536 26.3516 50.8255 27.1484 49.8828C27.9505 48.9401 29.0755 48.4688 30.5234 48.4688C31.7109 48.4688 32.6667 48.7734 33.3906 49.3828C34.1146 49.987 34.5573 50.8464 34.7188 51.9609H33.2188C32.9375 50.4557 32.0417 49.7031 30.5312 49.7031C29.526 49.7031 28.763 50.0573 28.2422 50.7656C27.7266 51.4688 27.4661 52.4896 27.4609 53.8281V54.7578C27.4609 56.0339 27.7526 57.0495 28.3359 57.8047C28.9193 58.5547 29.7083 58.9297 30.7031 58.9297C31.2656 58.9297 31.7578 58.8672 32.1797 58.7422C32.6016 58.6172 32.9505 58.4062 33.2266 58.1094V55.5547H30.5938V54.3359H34.7188V58.5078ZM36.6172 55.6953C36.6172 54.8672 36.7786 54.1224 37.1016 53.4609C37.4297 52.7995 37.8828 52.2891 38.4609 51.9297C39.0443 51.5703 39.7083 51.3906 40.4531 51.3906C41.6042 51.3906 42.5339 51.7891 43.2422 52.5859C43.9557 53.3828 44.3125 54.4427 44.3125 55.7656V55.8672C44.3125 56.6901 44.1536 57.4297 43.8359 58.0859C43.5234 58.737 43.0729 59.2448 42.4844 59.6094C41.901 59.974 41.2292 60.1562 40.4688 60.1562C39.3229 60.1562 38.3932 59.7578 37.6797 58.9609C36.9714 58.1641 36.6172 57.1094 36.6172 55.7969V55.6953ZM38.0703 55.8672C38.0703 56.8047 38.2865 57.5573 38.7188 58.125C39.1562 58.6927 39.7396 58.9766 40.4688 58.9766C41.2031 58.9766 41.7865 58.6901 42.2188 58.1172C42.651 57.5391 42.8672 56.7318 42.8672 55.6953C42.8672 54.7682 42.6458 54.0182 42.2031 53.4453C41.7656 52.8672 41.1823 52.5781 40.4531 52.5781C39.7396 52.5781 39.1641 52.862 38.7266 53.4297C38.2891 53.9974 38.0703 54.8099 38.0703 55.8672ZM45.7422 55.6953C45.7422 54.8672 45.9036 54.1224 46.2266 53.4609C46.5547 52.7995 47.0078 52.2891 47.5859 51.9297C48.1693 51.5703 48.8333 51.3906 49.5781 51.3906C50.7292 51.3906 51.6589 51.7891 52.3672 52.5859C53.0807 53.3828 53.4375 54.4427 53.4375 55.7656V55.8672C53.4375 56.6901 53.2786 57.4297 52.9609 58.0859C52.6484 58.737 52.1979 59.2448 51.6094 59.6094C51.026 59.974 50.3542 60.1562 49.5938 60.1562C48.4479 60.1562 47.5182 59.7578 46.8047 58.9609C46.0964 58.1641 45.7422 57.1094 45.7422 55.7969V55.6953ZM47.1953 55.8672C47.1953 56.8047 47.4115 57.5573 47.8438 58.125C48.2812 58.6927 48.8646 58.9766 49.5938 58.9766C50.3281 58.9766 50.9115 58.6901 51.3438 58.1172C51.776 57.5391 51.9922 56.7318 51.9922 55.6953C51.9922 54.7682 51.7708 54.0182 51.3281 53.4453C50.8906 52.8672 50.3073 52.5781 49.5781 52.5781C48.8646 52.5781 48.2891 52.862 47.8516 53.4297C47.4141 53.9974 47.1953 54.8099 47.1953 55.8672ZM54.8984 55.7031C54.8984 54.4062 55.2057 53.3646 55.8203 52.5781C56.4349 51.7865 57.2396 51.3906 58.2344 51.3906C59.224 51.3906 60.0078 51.7292 60.5859 52.4062V48H62.0312V60H60.7031L60.6328 59.0938C60.0547 59.8021 59.25 60.1562 58.2188 60.1562C57.2396 60.1562 56.4401 59.7552 55.8203 58.9531C55.2057 58.151 54.8984 57.1042 54.8984 55.8125V55.7031ZM56.3438 55.8672C56.3438 56.8255 56.5417 57.5755 56.9375 58.1172C57.3333 58.6589 57.8802 58.9297 58.5781 58.9297C59.4948 58.9297 60.1641 58.5182 60.5859 57.6953V53.8125C60.1536 53.0156 59.4896 52.6172 58.5938 52.6172C57.8854 52.6172 57.3333 52.8906 56.9375 53.4375C56.5417 53.9844 56.3438 54.7943 56.3438 55.8672Z" fill="black"/>
<circle cx="12" cy="54" r="6.5" stroke="#8C8C8C"/>
<path d="M388.02 53.207H388.834C389.346 53.1992 389.748 53.0645 390.041 52.8027C390.334 52.541 390.48 52.1875 390.48 51.7422C390.48 50.7422 389.982 50.2422 388.986 50.2422C388.518 50.2422 388.143 50.377 387.861 50.6465C387.584 50.9121 387.445 51.2656 387.445 51.707H386.361C386.361 51.0312 386.607 50.4707 387.1 50.0254C387.596 49.5762 388.225 49.3516 388.986 49.3516C389.791 49.3516 390.422 49.5645 390.879 49.9902C391.336 50.416 391.564 51.0078 391.564 51.7656C391.564 52.1367 391.443 52.4961 391.201 52.8438C390.963 53.1914 390.637 53.4512 390.223 53.623C390.691 53.7715 391.053 54.0176 391.307 54.3613C391.564 54.7051 391.693 55.125 391.693 55.6211C391.693 56.3867 391.443 56.9941 390.943 57.4434C390.443 57.8926 389.793 58.1172 388.992 58.1172C388.191 58.1172 387.539 57.9004 387.035 57.4668C386.535 57.0332 386.285 56.4609 386.285 55.75H387.375C387.375 56.1992 387.521 56.5586 387.814 56.8281C388.107 57.0977 388.5 57.2324 388.992 57.2324C389.516 57.2324 389.916 57.0957 390.193 56.8223C390.471 56.5488 390.609 56.1562 390.609 55.6445C390.609 55.1484 390.457 54.7676 390.152 54.502C389.848 54.2363 389.408 54.0996 388.834 54.0918H388.02V53.207ZM398.531 54.3613C398.531 55.6309 398.314 56.5742 397.881 57.1914C397.447 57.8086 396.77 58.1172 395.848 58.1172C394.938 58.1172 394.264 57.8164 393.826 57.2148C393.389 56.6094 393.162 55.707 393.146 54.5078V53.0605C393.146 51.8066 393.363 50.875 393.797 50.2656C394.23 49.6562 394.91 49.3516 395.836 49.3516C396.754 49.3516 397.43 49.6465 397.863 50.2363C398.297 50.8223 398.52 51.7285 398.531 52.9551V54.3613ZM397.447 52.8789C397.447 51.9609 397.318 51.293 397.061 50.875C396.803 50.4531 396.395 50.2422 395.836 50.2422C395.281 50.2422 394.877 50.4512 394.623 50.8691C394.369 51.2871 394.238 51.9297 394.23 52.7969V54.5312C394.23 55.4531 394.363 56.1348 394.629 56.5762C394.898 57.0137 395.305 57.2324 395.848 57.2324C396.383 57.2324 396.779 57.0254 397.037 56.6113C397.299 56.1973 397.436 55.5449 397.447 54.6543V52.8789ZM399.826 51.1094C399.826 50.5977 399.988 50.1758 400.312 49.8438C400.641 49.5117 401.061 49.3457 401.572 49.3457C402.092 49.3457 402.512 49.5137 402.832 49.8496C403.156 50.1816 403.318 50.6133 403.318 51.1445V51.5605C403.318 52.0762 403.154 52.498 402.826 52.8262C402.502 53.1504 402.088 53.3125 401.584 53.3125C401.076 53.3125 400.656 53.1504 400.324 52.8262C399.992 52.498 399.826 52.0625 399.826 51.5195V51.1094ZM400.635 51.5605C400.635 51.8652 400.721 52.1172 400.893 52.3164C401.064 52.5117 401.295 52.6094 401.584 52.6094C401.861 52.6094 402.084 52.5137 402.252 52.3223C402.424 52.1309 402.51 51.8691 402.51 51.5371V51.1094C402.51 50.8047 402.426 50.5527 402.258 50.3535C402.09 50.1543 401.861 50.0547 401.572 50.0547C401.283 50.0547 401.055 50.1543 400.887 50.3535C400.719 50.5527 400.635 50.8125 400.635 51.1328V51.5605ZM403.98 55.9082C403.98 55.3965 404.143 54.9766 404.467 54.6484C404.795 54.3164 405.215 54.1504 405.727 54.1504C406.238 54.1504 406.658 54.3145 406.986 54.6426C407.314 54.9707 407.479 55.4062 407.479 55.9492V56.3652C407.479 56.877 407.314 57.2988 406.986 57.6309C406.662 57.959 406.246 58.123 405.738 58.123C405.23 58.123 404.811 57.9609 404.479 57.6367C404.146 57.3086 403.98 56.873 403.98 56.3301V55.9082ZM404.789 56.3652C404.789 56.6738 404.875 56.9277 405.047 57.127C405.219 57.3223 405.449 57.4199 405.738 57.4199C406.02 57.4199 406.244 57.3242 406.412 57.1328C406.58 56.9375 406.664 56.6738 406.664 56.3418V55.9082C406.664 55.5996 406.578 55.3477 406.406 55.1523C406.238 54.957 406.012 54.8594 405.727 54.8594C405.449 54.8594 405.223 54.957 405.047 55.1523C404.875 55.3438 404.789 55.6035 404.789 55.9316V56.3652ZM401.83 57.3555L401.215 56.9688L405.381 50.3008L405.996 50.6875L401.83 57.3555Z" fill="#698F63"/>
<path d="M430.883 51.6953C430.883 52.1211 430.77 52.5 430.543 52.832C430.32 53.1641 430.018 53.4238 429.635 53.6113C430.08 53.8027 430.432 54.082 430.689 54.4492C430.951 54.8164 431.082 55.2324 431.082 55.6973C431.082 56.4355 430.832 57.0234 430.332 57.4609C429.836 57.8984 429.182 58.1172 428.369 58.1172C427.549 58.1172 426.891 57.8984 426.395 57.4609C425.902 57.0195 425.656 56.4316 425.656 55.6973C425.656 55.2363 425.781 54.8203 426.031 54.4492C426.285 54.0781 426.635 53.7969 427.08 53.6055C426.701 53.418 426.402 53.1582 426.184 52.8262C425.965 52.4941 425.855 52.1172 425.855 51.6953C425.855 50.9766 426.086 50.4062 426.547 49.9844C427.008 49.5625 427.615 49.3516 428.369 49.3516C429.119 49.3516 429.725 49.5625 430.186 49.9844C430.65 50.4062 430.883 50.9766 430.883 51.6953ZM429.998 55.6738C429.998 55.1973 429.846 54.8086 429.541 54.5078C429.24 54.207 428.846 54.0566 428.357 54.0566C427.869 54.0566 427.477 54.2051 427.18 54.502C426.887 54.7988 426.74 55.1895 426.74 55.6738C426.74 56.1582 426.883 56.5391 427.168 56.8164C427.457 57.0938 427.857 57.2324 428.369 57.2324C428.877 57.2324 429.275 57.0938 429.564 56.8164C429.854 56.5352 429.998 56.1543 429.998 55.6738ZM428.369 50.2422C427.943 50.2422 427.598 50.375 427.332 50.6406C427.07 50.9023 426.939 51.2598 426.939 51.7129C426.939 52.1465 427.068 52.498 427.326 52.7676C427.588 53.0332 427.936 53.166 428.369 53.166C428.803 53.166 429.148 53.0332 429.406 52.7676C429.668 52.498 429.799 52.1465 429.799 51.7129C429.799 51.2793 429.664 50.9258 429.395 50.6523C429.125 50.3789 428.783 50.2422 428.369 50.2422Z" fill="#696969"/>
<rect width="326" height="28" rx="4" fill="#F5F5F5"/>
<path d="M34.7188 18.5078C34.3333 19.0599 33.7943 19.474 33.1016 19.75C32.4141 20.0208 31.612 20.1562 30.6953 20.1562C29.7682 20.1562 28.9453 19.9401 28.2266 19.5078C27.5078 19.0703 26.9505 18.4505 26.5547 17.6484C26.1641 16.8464 25.9635 15.9167 25.9531 14.8594V13.8672C25.9531 12.1536 26.3516 10.8255 27.1484 9.88281C27.9505 8.9401 29.0755 8.46875 30.5234 8.46875C31.7109 8.46875 32.6667 8.77344 33.3906 9.38281C34.1146 9.98698 34.5573 10.8464 34.7188 11.9609H33.2188C32.9375 10.4557 32.0417 9.70312 30.5312 9.70312C29.526 9.70312 28.763 10.0573 28.2422 10.7656C27.7266 11.4688 27.4661 12.4896 27.4609 13.8281V14.7578C27.4609 16.0339 27.7526 17.0495 28.3359 17.8047C28.9193 18.5547 29.7083 18.9297 30.7031 18.9297C31.2656 18.9297 31.7578 18.8672 32.1797 18.7422C32.6016 18.6172 32.9505 18.4062 33.2266 18.1094V15.5547H30.5938V14.3359H34.7188V18.5078ZM41.0859 12.8438C40.8672 12.8073 40.6302 12.7891 40.375 12.7891C39.4271 12.7891 38.7839 13.1927 38.4453 14V20H37V11.5469H38.4062L38.4297 12.5234C38.9036 11.7682 39.5755 11.3906 40.4453 11.3906C40.7266 11.3906 40.9401 11.4271 41.0859 11.5V12.8438ZM45.7734 20.1562C44.6276 20.1562 43.6953 19.7812 42.9766 19.0312C42.2578 18.276 41.8984 17.2682 41.8984 16.0078V15.7422C41.8984 14.9036 42.0573 14.1562 42.375 13.5C42.6979 12.8385 43.1458 12.3229 43.7188 11.9531C44.2969 11.5781 44.9219 11.3906 45.5938 11.3906C46.6927 11.3906 47.5469 11.7526 48.1562 12.4766C48.7656 13.2005 49.0703 14.237 49.0703 15.5859V16.1875H43.3438C43.3646 17.0208 43.6068 17.6953 44.0703 18.2109C44.5391 18.7214 45.1328 18.9766 45.8516 18.9766C46.362 18.9766 46.7943 18.8724 47.1484 18.6641C47.5026 18.4557 47.8125 18.1797 48.0781 17.8359L48.9609 18.5234C48.2526 19.612 47.1901 20.1562 45.7734 20.1562ZM45.5938 12.5781C45.0104 12.5781 44.5208 12.7917 44.125 13.2188C43.7292 13.6406 43.4844 14.2344 43.3906 15H47.625V14.8906C47.5833 14.1562 47.3854 13.5885 47.0312 13.1875C46.6771 12.7812 46.1979 12.5781 45.5938 12.5781ZM55.9688 20C55.8854 19.8333 55.8177 19.5365 55.7656 19.1094C55.0938 19.8073 54.2917 20.1562 53.3594 20.1562C52.526 20.1562 51.8411 19.9219 51.3047 19.4531C50.7734 18.9792 50.5078 18.3802 50.5078 17.6562C50.5078 16.776 50.8411 16.0938 51.5078 15.6094C52.1797 15.1198 53.1224 14.875 54.3359 14.875H55.7422V14.2109C55.7422 13.7057 55.5911 13.3047 55.2891 13.0078C54.987 12.7057 54.5417 12.5547 53.9531 12.5547C53.4375 12.5547 53.0052 12.6849 52.6562 12.9453C52.3073 13.2057 52.1328 13.5208 52.1328 13.8906H50.6797C50.6797 13.4688 50.8281 13.0625 51.125 12.6719C51.4271 12.276 51.8333 11.9635 52.3438 11.7344C52.8594 11.5052 53.4245 11.3906 54.0391 11.3906C55.013 11.3906 55.776 11.6354 56.3281 12.125C56.8802 12.6094 57.1667 13.2786 57.1875 14.1328V18.0234C57.1875 18.7995 57.2865 19.4167 57.4844 19.875V20H55.9688ZM53.5703 18.8984C54.0234 18.8984 54.4531 18.7812 54.8594 18.5469C55.2656 18.3125 55.5599 18.0078 55.7422 17.6328V15.8984H54.6094C52.8385 15.8984 51.9531 16.4167 51.9531 17.4531C51.9531 17.9062 52.1042 18.2604 52.4062 18.5156C52.7083 18.7708 53.0964 18.8984 53.5703 18.8984ZM61.4141 9.5V11.5469H62.9922V12.6641H61.4141V17.9062C61.4141 18.2448 61.4844 18.5 61.625 18.6719C61.7656 18.8385 62.0052 18.9219 62.3438 18.9219C62.5104 18.9219 62.7396 18.8906 63.0312 18.8281V20C62.651 20.1042 62.2812 20.1562 61.9219 20.1562C61.276 20.1562 60.7891 19.9609 60.4609 19.5703C60.1328 19.1797 59.9688 18.625 59.9688 17.9062V12.6641H58.4297V11.5469H59.9688V9.5H61.4141Z" fill="black"/>
<circle cx="12" cy="14" r="6.5" stroke="#8C8C8C"/>
<path d="M392.033 18H386.443V17.2207L389.396 13.9395C389.834 13.4434 390.135 13.041 390.299 12.7324C390.467 12.4199 390.551 12.0977 390.551 11.7656C390.551 11.3203 390.416 10.9551 390.146 10.6699C389.877 10.3848 389.518 10.2422 389.068 10.2422C388.529 10.2422 388.109 10.3965 387.809 10.7051C387.512 11.0098 387.363 11.4355 387.363 11.9824H386.279C386.279 11.1973 386.531 10.5625 387.035 10.0781C387.543 9.59375 388.221 9.35156 389.068 9.35156C389.861 9.35156 390.488 9.56055 390.949 9.97852C391.41 10.3926 391.641 10.9453 391.641 11.6367C391.641 12.4766 391.105 13.4766 390.035 14.6367L387.75 17.1152H392.033V18ZM397.758 15.1348H398.941V16.0195H397.758V18H396.668V16.0195H392.783V15.3809L396.604 9.46875H397.758V15.1348ZM394.014 15.1348H396.668V10.9512L396.539 11.1855L394.014 15.1348ZM399.826 11.1094C399.826 10.5977 399.988 10.1758 400.312 9.84375C400.641 9.51172 401.061 9.3457 401.572 9.3457C402.092 9.3457 402.512 9.51367 402.832 9.84961C403.156 10.1816 403.318 10.6133 403.318 11.1445V11.5605C403.318 12.0762 403.154 12.498 402.826 12.8262C402.502 13.1504 402.088 13.3125 401.584 13.3125C401.076 13.3125 400.656 13.1504 400.324 12.8262C399.992 12.498 399.826 12.0625 399.826 11.5195V11.1094ZM400.635 11.5605C400.635 11.8652 400.721 12.1172 400.893 12.3164C401.064 12.5117 401.295 12.6094 401.584 12.6094C401.861 12.6094 402.084 12.5137 402.252 12.3223C402.424 12.1309 402.51 11.8691 402.51 11.5371V11.1094C402.51 10.8047 402.426 10.5527 402.258 10.3535C402.09 10.1543 401.861 10.0547 401.572 10.0547C401.283 10.0547 401.055 10.1543 400.887 10.3535C400.719 10.5527 400.635 10.8125 400.635 11.1328V11.5605ZM403.98 15.9082C403.98 15.3965 404.143 14.9766 404.467 14.6484C404.795 14.3164 405.215 14.1504 405.727 14.1504C406.238 14.1504 406.658 14.3145 406.986 14.6426C407.314 14.9707 407.479 15.4062 407.479 15.9492V16.3652C407.479 16.877 407.314 17.2988 406.986 17.6309C406.662 17.959 406.246 18.123 405.738 18.123C405.23 18.123 404.811 17.9609 404.479 17.6367C404.146 17.3086 403.98 16.873 403.98 16.3301V15.9082ZM404.789 16.3652C404.789 16.6738 404.875 16.9277 405.047 17.127C405.219 17.3223 405.449 17.4199 405.738 17.4199C406.02 17.4199 406.244 17.3242 406.412 17.1328C406.58 16.9375 406.664 16.6738 406.664 16.3418V15.9082C406.664 15.5996 406.578 15.3477 406.406 15.1523C406.238 14.957 406.012 14.8594 405.727 14.8594C405.449 14.8594 405.223 14.957 405.047 15.1523C404.875 15.3438 404.789 15.6035 404.789 15.9316V16.3652ZM401.83 17.3555L401.215 16.9688L405.381 10.3008L405.996 10.6875L401.83 17.3555Z" fill="#696969"/>
<path d="M429.963 9.46289V10.3828H429.764C428.92 10.3984 428.248 10.6484 427.748 11.1328C427.248 11.6172 426.959 12.2988 426.881 13.1777C427.33 12.6621 427.943 12.4043 428.721 12.4043C429.463 12.4043 430.055 12.666 430.496 13.1895C430.941 13.7129 431.164 14.3887 431.164 15.2168C431.164 16.0957 430.924 16.7988 430.443 17.3262C429.967 17.8535 429.326 18.1172 428.521 18.1172C427.705 18.1172 427.043 17.8047 426.535 17.1797C426.027 16.5508 425.773 15.7422 425.773 14.7539V14.3379C425.773 12.7676 426.107 11.5684 426.775 10.7402C427.447 9.9082 428.445 9.48242 429.77 9.46289H429.963ZM428.539 13.3066C428.168 13.3066 427.826 13.418 427.514 13.6406C427.201 13.8633 426.984 14.1426 426.863 14.4785V14.877C426.863 15.5801 427.021 16.1465 427.338 16.5762C427.654 17.0059 428.049 17.2207 428.521 17.2207C429.01 17.2207 429.393 17.041 429.67 16.6816C429.951 16.3223 430.092 15.8516 430.092 15.2695C430.092 14.6836 429.949 14.2109 429.664 13.8516C429.383 13.4883 429.008 13.3066 428.539 13.3066Z" fill="#696969"/>
<rect y="80" width="358" height="28" rx="4" fill="#F5F5F5"/>
<path d="M32.5938 94.9766H27.8203V100H26.3203V88.625H33.3672V89.8594H27.8203V93.75H32.5938V94.9766ZM36.5078 100H35.0625V91.5469H36.5078V100ZM34.9453 89.3047C34.9453 89.0703 35.0156 88.8724 35.1562 88.7109C35.3021 88.5495 35.5156 88.4688 35.7969 88.4688C36.0781 88.4688 36.2917 88.5495 36.4375 88.7109C36.5833 88.8724 36.6562 89.0703 36.6562 89.3047C36.6562 89.5391 36.5833 89.7344 36.4375 89.8906C36.2917 90.0469 36.0781 90.125 35.7969 90.125C35.5156 90.125 35.3021 90.0469 35.1562 89.8906C35.0156 89.7344 34.9453 89.5391 34.9453 89.3047ZM40.1953 91.5469L40.2422 92.6094C40.888 91.7969 41.7318 91.3906 42.7734 91.3906C44.5599 91.3906 45.4609 92.3984 45.4766 94.4141V100H44.0312V94.4062C44.026 93.7969 43.8854 93.3464 43.6094 93.0547C43.3385 92.763 42.9141 92.6172 42.3359 92.6172C41.8672 92.6172 41.4557 92.7422 41.1016 92.9922C40.7474 93.2422 40.4714 93.5703 40.2734 93.9766V100H38.8281V91.5469H40.1953ZM51.1641 100.156C50.0182 100.156 49.0859 99.7812 48.3672 99.0312C47.6484 98.276 47.2891 97.2682 47.2891 96.0078V95.7422C47.2891 94.9036 47.4479 94.1562 47.7656 93.5C48.0885 92.8385 48.5365 92.3229 49.1094 91.9531C49.6875 91.5781 50.3125 91.3906 50.9844 91.3906C52.0833 91.3906 52.9375 91.7526 53.5469 92.4766C54.1562 93.2005 54.4609 94.237 54.4609 95.5859V96.1875H48.7344C48.7552 97.0208 48.9974 97.6953 49.4609 98.2109C49.9297 98.7214 50.5234 98.9766 51.2422 98.9766C51.7526 98.9766 52.1849 98.8724 52.5391 98.6641C52.8932 98.4557 53.2031 98.1797 53.4688 97.8359L54.3516 98.5234C53.6432 99.612 52.5807 100.156 51.1641 100.156ZM50.9844 92.5781C50.401 92.5781 49.9115 92.7917 49.5156 93.2188C49.1198 93.6406 48.875 94.2344 48.7812 95H53.0156V94.8906C52.974 94.1562 52.776 93.5885 52.4219 93.1875C52.0677 92.7812 51.5885 92.5781 50.9844 92.5781Z" fill="black"/>
<circle cx="12" cy="94" r="6.5" stroke="#8C8C8C"/>
<path d="M391.299 98H385.709V97.2207L388.662 93.9395C389.1 93.4434 389.4 93.041 389.564 92.7324C389.732 92.4199 389.816 92.0977 389.816 91.7656C389.816 91.3203 389.682 90.9551 389.412 90.6699C389.143 90.3848 388.783 90.2422 388.334 90.2422C387.795 90.2422 387.375 90.3965 387.074 90.7051C386.777 91.0098 386.629 91.4355 386.629 91.9824H385.545C385.545 91.1973 385.797 90.5625 386.301 90.0781C386.809 89.5938 387.486 89.3516 388.334 89.3516C389.127 89.3516 389.754 89.5605 390.215 89.9785C390.676 90.3926 390.906 90.9453 390.906 91.6367C390.906 92.4766 390.371 93.4766 389.301 94.6367L387.016 97.1152H391.299V98ZM397.797 94.3613C397.797 95.6309 397.58 96.5742 397.146 97.1914C396.713 97.8086 396.035 98.1172 395.113 98.1172C394.203 98.1172 393.529 97.8164 393.092 97.2148C392.654 96.6094 392.428 95.707 392.412 94.5078V93.0605C392.412 91.8066 392.629 90.875 393.062 90.2656C393.496 89.6562 394.176 89.3516 395.102 89.3516C396.02 89.3516 396.695 89.6465 397.129 90.2363C397.562 90.8223 397.785 91.7285 397.797 92.9551V94.3613ZM396.713 92.8789C396.713 91.9609 396.584 91.293 396.326 90.875C396.068 90.4531 395.66 90.2422 395.102 90.2422C394.547 90.2422 394.143 90.4512 393.889 90.8691C393.635 91.2871 393.504 91.9297 393.496 92.7969V94.5312C393.496 95.4531 393.629 96.1348 393.895 96.5762C394.164 97.0137 394.57 97.2324 395.113 97.2324C395.648 97.2324 396.045 97.0254 396.303 96.6113C396.564 96.1973 396.701 95.5449 396.713 94.6543V92.8789ZM399.092 91.1094C399.092 90.5977 399.254 90.1758 399.578 89.8438C399.906 89.5117 400.326 89.3457 400.838 89.3457C401.357 89.3457 401.777 89.5137 402.098 89.8496C402.422 90.1816 402.584 90.6133 402.584 91.1445V91.5605C402.584 92.0762 402.42 92.498 402.092 92.8262C401.768 93.1504 401.354 93.3125 400.85 93.3125C400.342 93.3125 399.922 93.1504 399.59 92.8262C399.258 92.498 399.092 92.0625 399.092 91.5195V91.1094ZM399.9 91.5605C399.9 91.8652 399.986 92.1172 400.158 92.3164C400.33 92.5117 400.561 92.6094 400.85 92.6094C401.127 92.6094 401.35 92.5137 401.518 92.3223C401.689 92.1309 401.775 91.8691 401.775 91.5371V91.1094C401.775 90.8047 401.691 90.5527 401.523 90.3535C401.355 90.1543 401.127 90.0547 400.838 90.0547C400.549 90.0547 400.32 90.1543 400.152 90.3535C399.984 90.5527 399.9 90.8125 399.9 91.1328V91.5605ZM403.246 95.9082C403.246 95.3965 403.408 94.9766 403.732 94.6484C404.061 94.3164 404.48 94.1504 404.992 94.1504C405.504 94.1504 405.924 94.3145 406.252 94.6426C406.58 94.9707 406.744 95.4062 406.744 95.9492V96.3652C406.744 96.877 406.58 97.2988 406.252 97.6309C405.928 97.959 405.512 98.123 405.004 98.123C404.496 98.123 404.076 97.9609 403.744 97.6367C403.412 97.3086 403.246 96.873 403.246 96.3301V95.9082ZM404.055 96.3652C404.055 96.6738 404.141 96.9277 404.312 97.127C404.484 97.3223 404.715 97.4199 405.004 97.4199C405.285 97.4199 405.51 97.3242 405.678 97.1328C405.846 96.9375 405.93 96.6738 405.93 96.3418V95.9082C405.93 95.5996 405.844 95.3477 405.672 95.1523C405.504 94.957 405.277 94.8594 404.992 94.8594C404.715 94.8594 404.488 94.957 404.312 95.1523C404.141 95.3438 404.055 95.6035 404.055 95.9316V96.3652ZM401.096 97.3555L400.48 96.9688L404.646 90.3008L405.262 90.6875L401.096 97.3555Z" fill="#696969"/>
<path d="M426.207 93.7227L426.641 89.4688H431.012V90.4707H427.561L427.303 92.7969C427.721 92.5508 428.195 92.4277 428.727 92.4277C429.504 92.4277 430.121 92.6855 430.578 93.2012C431.035 93.7129 431.264 94.4062 431.264 95.2812C431.264 96.1602 431.025 96.8535 430.549 97.3613C430.076 97.8652 429.414 98.1172 428.562 98.1172C427.809 98.1172 427.193 97.9082 426.717 97.4902C426.24 97.0723 425.969 96.4941 425.902 95.7559H426.928C426.994 96.2441 427.168 96.6133 427.449 96.8633C427.73 97.1094 428.102 97.2324 428.562 97.2324C429.066 97.2324 429.461 97.0605 429.746 96.7168C430.035 96.373 430.18 95.8984 430.18 95.293C430.18 94.7227 430.023 94.2656 429.711 93.9219C429.402 93.5742 428.99 93.4004 428.475 93.4004C428.002 93.4004 427.631 93.5039 427.361 93.7109L427.074 93.9453L426.207 93.7227Z" fill="#696969"/>
<rect y="120" width="305" height="28" rx="4" fill="#F5F5F5"/>
<path d="M26.3203 140V128.625H30.0391C31.2734 128.625 32.2005 128.88 32.8203 129.391C33.4453 129.901 33.7578 130.656 33.7578 131.656C33.7578 132.188 33.6068 132.659 33.3047 133.07C33.0026 133.477 32.5911 133.792 32.0703 134.016C32.6849 134.188 33.1693 134.516 33.5234 135C33.8828 135.479 34.0625 136.052 34.0625 136.719C34.0625 137.74 33.7318 138.542 33.0703 139.125C32.4089 139.708 31.474 140 30.2656 140H26.3203ZM27.8203 134.68V138.773H30.2969C30.9948 138.773 31.5443 138.594 31.9453 138.234C32.3516 137.87 32.5547 137.37 32.5547 136.734C32.5547 135.365 31.8099 134.68 30.3203 134.68H27.8203ZM27.8203 133.477H30.0859C30.7422 133.477 31.2656 133.312 31.6562 132.984C32.0521 132.656 32.25 132.211 32.25 131.648C32.25 131.023 32.0677 130.57 31.7031 130.289C31.3385 130.003 30.7839 129.859 30.0391 129.859H27.8203V133.477ZM41.2812 140C41.1979 139.833 41.1302 139.536 41.0781 139.109C40.4062 139.807 39.6042 140.156 38.6719 140.156C37.8385 140.156 37.1536 139.922 36.6172 139.453C36.0859 138.979 35.8203 138.38 35.8203 137.656C35.8203 136.776 36.1536 136.094 36.8203 135.609C37.4922 135.12 38.4349 134.875 39.6484 134.875H41.0547V134.211C41.0547 133.706 40.9036 133.305 40.6016 133.008C40.2995 132.706 39.8542 132.555 39.2656 132.555C38.75 132.555 38.3177 132.685 37.9688 132.945C37.6198 133.206 37.4453 133.521 37.4453 133.891H35.9922C35.9922 133.469 36.1406 133.062 36.4375 132.672C36.7396 132.276 37.1458 131.964 37.6562 131.734C38.1719 131.505 38.737 131.391 39.3516 131.391C40.3255 131.391 41.0885 131.635 41.6406 132.125C42.1927 132.609 42.4792 133.279 42.5 134.133V138.023C42.5 138.799 42.599 139.417 42.7969 139.875V140H41.2812ZM38.8828 138.898C39.3359 138.898 39.7656 138.781 40.1719 138.547C40.5781 138.312 40.8724 138.008 41.0547 137.633V135.898H39.9219C38.151 135.898 37.2656 136.417 37.2656 137.453C37.2656 137.906 37.4167 138.26 37.7188 138.516C38.0208 138.771 38.4089 138.898 38.8828 138.898ZM44.4141 135.703C44.4141 134.406 44.7214 133.365 45.3359 132.578C45.9505 131.786 46.7552 131.391 47.75 131.391C48.7396 131.391 49.5234 131.729 50.1016 132.406V128H51.5469V140H50.2188L50.1484 139.094C49.5703 139.802 48.7656 140.156 47.7344 140.156C46.7552 140.156 45.9557 139.755 45.3359 138.953C44.7214 138.151 44.4141 137.104 44.4141 135.812V135.703ZM45.8594 135.867C45.8594 136.826 46.0573 137.576 46.4531 138.117C46.849 138.659 47.3958 138.93 48.0938 138.93C49.0104 138.93 49.6797 138.518 50.1016 137.695V133.812C49.6693 133.016 49.0052 132.617 48.1094 132.617C47.401 132.617 46.849 132.891 46.4531 133.438C46.0573 133.984 45.8594 134.794 45.8594 135.867Z" fill="black"/>
<circle cx="12" cy="134" r="6.5" stroke="#8C8C8C"/>
<path d="M390.006 138H388.916V130.775L386.73 131.578V130.594L389.836 129.428H390.006V138ZM398.355 131.695C398.355 132.121 398.242 132.5 398.016 132.832C397.793 133.164 397.49 133.424 397.107 133.611C397.553 133.803 397.904 134.082 398.162 134.449C398.424 134.816 398.555 135.232 398.555 135.697C398.555 136.436 398.305 137.023 397.805 137.461C397.309 137.898 396.654 138.117 395.842 138.117C395.021 138.117 394.363 137.898 393.867 137.461C393.375 137.02 393.129 136.432 393.129 135.697C393.129 135.236 393.254 134.82 393.504 134.449C393.758 134.078 394.107 133.797 394.553 133.605C394.174 133.418 393.875 133.158 393.656 132.826C393.438 132.494 393.328 132.117 393.328 131.695C393.328 130.977 393.559 130.406 394.02 129.984C394.48 129.562 395.088 129.352 395.842 129.352C396.592 129.352 397.197 129.562 397.658 129.984C398.123 130.406 398.355 130.977 398.355 131.695ZM397.471 135.674C397.471 135.197 397.318 134.809 397.014 134.508C396.713 134.207 396.318 134.057 395.83 134.057C395.342 134.057 394.949 134.205 394.652 134.502C394.359 134.799 394.213 135.189 394.213 135.674C394.213 136.158 394.355 136.539 394.641 136.816C394.93 137.094 395.33 137.232 395.842 137.232C396.35 137.232 396.748 137.094 397.037 136.816C397.326 136.535 397.471 136.154 397.471 135.674ZM395.842 130.242C395.416 130.242 395.07 130.375 394.805 130.641C394.543 130.902 394.412 131.26 394.412 131.713C394.412 132.146 394.541 132.498 394.799 132.768C395.061 133.033 395.408 133.166 395.842 133.166C396.275 133.166 396.621 133.033 396.879 132.768C397.141 132.498 397.271 132.146 397.271 131.713C397.271 131.279 397.137 130.926 396.867 130.652C396.598 130.379 396.256 130.242 395.842 130.242ZM399.826 131.109C399.826 130.598 399.988 130.176 400.312 129.844C400.641 129.512 401.061 129.346 401.572 129.346C402.092 129.346 402.512 129.514 402.832 129.85C403.156 130.182 403.318 130.613 403.318 131.145V131.561C403.318 132.076 403.154 132.498 402.826 132.826C402.502 133.15 402.088 133.312 401.584 133.312C401.076 133.312 400.656 133.15 400.324 132.826C399.992 132.498 399.826 132.062 399.826 131.52V131.109ZM400.635 131.561C400.635 131.865 400.721 132.117 400.893 132.316C401.064 132.512 401.295 132.609 401.584 132.609C401.861 132.609 402.084 132.514 402.252 132.322C402.424 132.131 402.51 131.869 402.51 131.537V131.109C402.51 130.805 402.426 130.553 402.258 130.354C402.09 130.154 401.861 130.055 401.572 130.055C401.283 130.055 401.055 130.154 400.887 130.354C400.719 130.553 400.635 130.812 400.635 131.133V131.561ZM403.98 135.908C403.98 135.396 404.143 134.977 404.467 134.648C404.795 134.316 405.215 134.15 405.727 134.15C406.238 134.15 406.658 134.314 406.986 134.643C407.314 134.971 407.479 135.406 407.479 135.949V136.365C407.479 136.877 407.314 137.299 406.986 137.631C406.662 137.959 406.246 138.123 405.738 138.123C405.23 138.123 404.811 137.961 404.479 137.637C404.146 137.309 403.98 136.873 403.98 136.33V135.908ZM404.789 136.365C404.789 136.674 404.875 136.928 405.047 137.127C405.219 137.322 405.449 137.42 405.738 137.42C406.02 137.42 406.244 137.324 406.412 137.133C406.58 136.938 406.664 136.674 406.664 136.342V135.908C406.664 135.6 406.578 135.348 406.406 135.152C406.238 134.957 406.012 134.859 405.727 134.859C405.449 134.859 405.223 134.957 405.047 135.152C404.875 135.344 404.789 135.604 404.789 135.932V136.365ZM401.83 137.355L401.215 136.969L405.381 130.301L405.996 130.688L401.83 137.355Z" fill="#696969"/>
<path d="M430.285 135.135H431.469V136.02H430.285V138H429.195V136.02H425.311V135.381L429.131 129.469H430.285V135.135ZM426.541 135.135H429.195V130.951L429.066 131.186L426.541 135.135Z" fill="#696969"/>
<rect y="160" width="19" height="28" rx="4" fill="#F5F5F5"/>
<path d="M34.1797 169.859H30.5234V180H29.0312V169.859H25.3828V168.625H34.1797V169.859ZM38.3672 180.156C37.2214 180.156 36.2891 179.781 35.5703 179.031C34.8516 178.276 34.4922 177.268 34.4922 176.008V175.742C34.4922 174.904 34.651 174.156 34.9688 173.5C35.2917 172.839 35.7396 172.323 36.3125 171.953C36.8906 171.578 37.5156 171.391 38.1875 171.391C39.2865 171.391 40.1406 171.753 40.75 172.477C41.3594 173.201 41.6641 174.237 41.6641 175.586V176.188H35.9375C35.9583 177.021 36.2005 177.695 36.6641 178.211C37.1328 178.721 37.7266 178.977 38.4453 178.977C38.9557 178.977 39.388 178.872 39.7422 178.664C40.0964 178.456 40.4062 178.18 40.6719 177.836L41.5547 178.523C40.8464 179.612 39.7839 180.156 38.3672 180.156ZM38.1875 172.578C37.6042 172.578 37.1146 172.792 36.7188 173.219C36.3229 173.641 36.0781 174.234 35.9844 175H40.2188V174.891C40.1771 174.156 39.9792 173.589 39.625 173.188C39.2708 172.781 38.7917 172.578 38.1875 172.578ZM47.4297 172.844C47.2109 172.807 46.974 172.789 46.7188 172.789C45.7708 172.789 45.1276 173.193 44.7891 174V180H43.3438V171.547H44.75L44.7734 172.523C45.2474 171.768 45.9193 171.391 46.7891 171.391C47.0703 171.391 47.2839 171.427 47.4297 171.5V172.844ZM52.8516 172.844C52.6328 172.807 52.3958 172.789 52.1406 172.789C51.1927 172.789 50.5495 173.193 50.2109 174V180H48.7656V171.547H50.1719L50.1953 172.523C50.6693 171.768 51.3411 171.391 52.2109 171.391C52.4922 171.391 52.7057 171.427 52.8516 171.5V172.844ZM55.7578 180H54.3125V171.547H55.7578V180ZM54.1953 169.305C54.1953 169.07 54.2656 168.872 54.4062 168.711C54.5521 168.549 54.7656 168.469 55.0469 168.469C55.3281 168.469 55.5417 168.549 55.6875 168.711C55.8333 168.872 55.9062 169.07 55.9062 169.305C55.9062 169.539 55.8333 169.734 55.6875 169.891C55.5417 170.047 55.3281 170.125 55.0469 170.125C54.7656 170.125 54.5521 170.047 54.4062 169.891C54.2656 169.734 54.1953 169.539 54.1953 169.305ZM65.2344 175.867C65.2344 177.159 64.9375 178.198 64.3438 178.984C63.75 179.766 62.9531 180.156 61.9531 180.156C60.8854 180.156 60.0599 179.779 59.4766 179.023L59.4062 180H58.0781V168H59.5234V172.477C60.1068 171.753 60.9115 171.391 61.9375 171.391C62.9635 171.391 63.7682 171.779 64.3516 172.555C64.9401 173.331 65.2344 174.393 65.2344 175.742V175.867ZM63.7891 175.703C63.7891 174.719 63.599 173.958 63.2188 173.422C62.8385 172.885 62.2917 172.617 61.5781 172.617C60.625 172.617 59.9401 173.06 59.5234 173.945V177.602C59.9661 178.487 60.6562 178.93 61.5938 178.93C62.2865 178.93 62.8255 178.661 63.2109 178.125C63.5964 177.589 63.7891 176.781 63.7891 175.703ZM68.6328 180H67.1875V168H68.6328V180ZM74.4609 180.156C73.3151 180.156 72.3828 179.781 71.6641 179.031C70.9453 178.276 70.5859 177.268 70.5859 176.008V175.742C70.5859 174.904 70.7448 174.156 71.0625 173.5C71.3854 172.839 71.8333 172.323 72.4062 171.953C72.9844 171.578 73.6094 171.391 74.2812 171.391C75.3802 171.391 76.2344 171.753 76.8438 172.477C77.4531 173.201 77.7578 174.237 77.7578 175.586V176.188H72.0312C72.0521 177.021 72.2943 177.695 72.7578 178.211C73.2266 178.721 73.8203 178.977 74.5391 178.977C75.0495 178.977 75.4818 178.872 75.8359 178.664C76.1901 178.456 76.5 178.18 76.7656 177.836L77.6484 178.523C76.9401 179.612 75.8776 180.156 74.4609 180.156ZM74.2812 172.578C73.6979 172.578 73.2083 172.792 72.8125 173.219C72.4167 173.641 72.1719 174.234 72.0781 175H76.3125V174.891C76.2708 174.156 76.0729 173.589 75.7188 173.188C75.3646 172.781 74.8854 172.578 74.2812 172.578Z" fill="black"/>
<circle cx="12" cy="174" r="6.5" stroke="#8C8C8C"/>
<path d="M397.758 175.135H398.941V176.02H397.758V178H396.668V176.02H392.783V175.381L396.604 169.469H397.758V175.135ZM394.014 175.135H396.668V170.951L396.539 171.186L394.014 175.135ZM399.826 171.109C399.826 170.598 399.988 170.176 400.312 169.844C400.641 169.512 401.061 169.346 401.572 169.346C402.092 169.346 402.512 169.514 402.832 169.85C403.156 170.182 403.318 170.613 403.318 171.145V171.561C403.318 172.076 403.154 172.498 402.826 172.826C402.502 173.15 402.088 173.312 401.584 173.312C401.076 173.312 400.656 173.15 400.324 172.826C399.992 172.498 399.826 172.062 399.826 171.52V171.109ZM400.635 171.561C400.635 171.865 400.721 172.117 400.893 172.316C401.064 172.512 401.295 172.609 401.584 172.609C401.861 172.609 402.084 172.514 402.252 172.322C402.424 172.131 402.51 171.869 402.51 171.537V171.109C402.51 170.805 402.426 170.553 402.258 170.354C402.09 170.154 401.861 170.055 401.572 170.055C401.283 170.055 401.055 170.154 400.887 170.354C400.719 170.553 400.635 170.812 400.635 171.133V171.561ZM403.98 175.908C403.98 175.396 404.143 174.977 404.467 174.648C404.795 174.316 405.215 174.15 405.727 174.15C406.238 174.15 406.658 174.314 406.986 174.643C407.314 174.971 407.479 175.406 407.479 175.949V176.365C407.479 176.877 407.314 177.299 406.986 177.631C406.662 177.959 406.246 178.123 405.738 178.123C405.23 178.123 404.811 177.961 404.479 177.637C404.146 177.309 403.98 176.873 403.98 176.33V175.908ZM404.789 176.365C404.789 176.674 404.875 176.928 405.047 177.127C405.219 177.322 405.449 177.42 405.738 177.42C406.02 177.42 406.244 177.324 406.412 177.133C406.58 176.938 406.664 176.674 406.664 176.342V175.908C406.664 175.6 406.578 175.348 406.406 175.152C406.238 174.957 406.012 174.859 405.727 174.859C405.449 174.859 405.223 174.957 405.047 175.152C404.875 175.344 404.789 175.604 404.789 175.932V176.365ZM401.83 177.355L401.215 176.969L405.381 170.301L405.996 170.688L401.83 177.355Z" fill="#696969"/>
<path d="M429.271 178H428.182V170.775L425.996 171.578V170.594L429.102 169.428H429.271V178Z" fill="#696969"/>
</svg>
