<svg width="195" height="156" viewBox="0 0 195 156" fill="none" xmlns="http://www.w3.org/2000/svg">
<path d="M8.42598 155.157C14.127 154.226 19.804 153.413 25.4657 152.702M25.4657 152.702C60.8386 148.259 95.6167 147.818 131.962 147.818C147.605 147.818 160.956 145.372 175.995 145.372C182.275 145.372 191.958 146.987 194.206 139.12C196.843 129.891 178.669 128.455 172.869 128.248C132.486 126.806 92.5471 130.694 52.4587 130.694C36.1182 130.694 19.4159 131.224 4.62068 135.451C-3.73381 137.838 4.80708 144.326 6.11562 148.906C7.05442 152.191 19.4349 152.641 25.4657 152.702ZM25.4657 152.702C26.5479 152.712 27.4256 152.711 27.9961 152.711M15.765 133.141C8.60025 110.751 -6.01767 68.0434 25.0064 55.4039C55.3711 43.0331 79.8858 40.1827 113.072 40.1827C130.358 40.1827 137.64 42.1069 151.397 49.9678C154.883 51.9597 160.345 74.0057 161.997 78.7793C167.401 94.3913 162.757 116.449 169.88 130.694M42.6738 79.323C43.9656 85.9434 45.1201 92.1809 45.1201 98.8931M116.062 74.4304C116.062 83.4305 116.378 90.3729 118.508 98.893M111.169 52.4141C116.007 55.9325 122.095 62.1991 128.293 62.1991M37.7811 62.1991C31.5389 64.852 23.6887 68.3674 20.6572 74.4304M72.0287 42.629C70.2054 37.9568 68.1171 22.6809 64.1463 18.71C62.365 16.9287 53.1051 16.7229 50.0123 15.1765C35.5369 7.9388 51.3806 1.04257 59.7974 1.04257C65.0997 1.04257 69.6764 0.545927 74.4749 2.94522C80.213 5.81423 77.9964 9.60847 81.2701 13.8175C82.2207 15.0397 58.2167 15.7201 54.9049 15.7201M84.2601 42.629C83.044 45.4904 70.4067 76.8767 72.0288 76.8767C86.4557 76.8767 79.2985 97.8058 79.9112 97.8058C81.4321 97.8058 97.2578 74.4304 86.7063 74.4304C76.1142 74.4304 86.7063 56.1756 86.7063 49.9678" stroke="black" stroke-linecap="round" stroke-linejoin="round"/>
</svg>
