<svg width="446" height="108" viewBox="0 0 446 108" fill="none" xmlns="http://www.w3.org/2000/svg">
<rect y="40" width="417" height="28" rx="4" fill="#BCFFB1"/>
<path d="M27.8203 55.5469V60H26.3203V48.625H30.5156C31.7604 48.625 32.7344 48.9427 33.4375 49.5781C34.1458 50.2135 34.5 51.0547 34.5 52.1016C34.5 53.2057 34.1536 54.0573 33.4609 54.6562C32.7734 55.25 31.7865 55.5469 30.5 55.5469H27.8203ZM27.8203 54.3203H30.5156C31.3177 54.3203 31.9323 54.1328 32.3594 53.7578C32.7865 53.3776 33 52.8307 33 52.1172C33 51.4401 32.7865 50.8984 32.3594 50.4922C31.9323 50.0859 31.3464 49.875 30.6016 49.8594H27.8203V54.3203ZM37.7578 60H36.3125V51.5469H37.7578V60ZM36.1953 49.3047C36.1953 49.0703 36.2656 48.8724 36.4062 48.7109C36.5521 48.5495 36.7656 48.4688 37.0469 48.4688C37.3281 48.4688 37.5417 48.5495 37.6875 48.7109C37.8333 48.8724 37.9062 49.0703 37.9062 49.3047C37.9062 49.5391 37.8333 49.7344 37.6875 49.8906C37.5417 50.0469 37.3281 50.125 37.0469 50.125C36.7656 50.125 36.5521 50.0469 36.4062 49.8906C36.2656 49.7344 36.1953 49.5391 36.1953 49.3047ZM41.4375 58.8203H46.3828V60H39.6719V58.9375L44.3359 52.7422H39.7422V51.5469H46.1484V52.5703L41.4375 58.8203ZM49.375 58.8203H54.3203V60H47.6094V58.9375L52.2734 52.7422H47.6797V51.5469H54.0859V52.5703L49.375 58.8203ZM61.1719 60C61.0885 59.8333 61.0208 59.5365 60.9688 59.1094C60.2969 59.8073 59.4948 60.1562 58.5625 60.1562C57.7292 60.1562 57.0443 59.9219 56.5078 59.4531C55.9766 58.9792 55.7109 58.3802 55.7109 57.6562C55.7109 56.776 56.0443 56.0938 56.7109 55.6094C57.3828 55.1198 58.3255 54.875 59.5391 54.875H60.9453V54.2109C60.9453 53.7057 60.7943 53.3047 60.4922 53.0078C60.1901 52.7057 59.7448 52.5547 59.1562 52.5547C58.6406 52.5547 58.2083 52.6849 57.8594 52.9453C57.5104 53.2057 57.3359 53.5208 57.3359 53.8906H55.8828C55.8828 53.4688 56.0312 53.0625 56.3281 52.6719C56.6302 52.276 57.0365 51.9635 57.5469 51.7344C58.0625 51.5052 58.6276 51.3906 59.2422 51.3906C60.2161 51.3906 60.9792 51.6354 61.5312 52.125C62.0833 52.6094 62.3698 53.2786 62.3906 54.1328V58.0234C62.3906 58.7995 62.4896 59.4167 62.6875 59.875V60H61.1719ZM58.7734 58.8984C59.2266 58.8984 59.6562 58.7812 60.0625 58.5469C60.4688 58.3125 60.763 58.0078 60.9453 57.6328V55.8984H59.8125C58.0417 55.8984 57.1562 56.4167 57.1562 57.4531C57.1562 57.9062 57.3073 58.2604 57.6094 58.5156C57.9115 58.7708 58.2995 58.8984 58.7734 58.8984ZM70.3516 55.5469V60H68.8516V48.625H73.0469C74.2917 48.625 75.2656 48.9427 75.9688 49.5781C76.6771 50.2135 77.0312 51.0547 77.0312 52.1016C77.0312 53.2057 76.6849 54.0573 75.9922 54.6562C75.3047 55.25 74.3177 55.5469 73.0312 55.5469H70.3516ZM70.3516 54.3203H73.0469C73.849 54.3203 74.4635 54.1328 74.8906 53.7578C75.3177 53.3776 75.5312 52.8307 75.5312 52.1172C75.5312 51.4401 75.3177 50.8984 74.8906 50.4922C74.4635 50.0859 73.8776 49.875 73.1328 49.8594H70.3516V54.3203ZM83.8438 60C83.7604 59.8333 83.6927 59.5365 83.6406 59.1094C82.9688 59.8073 82.1667 60.1562 81.2344 60.1562C80.401 60.1562 79.7161 59.9219 79.1797 59.4531C78.6484 58.9792 78.3828 58.3802 78.3828 57.6562C78.3828 56.776 78.7161 56.0938 79.3828 55.6094C80.0547 55.1198 80.9974 54.875 82.2109 54.875H83.6172V54.2109C83.6172 53.7057 83.4661 53.3047 83.1641 53.0078C82.862 52.7057 82.4167 52.5547 81.8281 52.5547C81.3125 52.5547 80.8802 52.6849 80.5312 52.9453C80.1823 53.2057 80.0078 53.5208 80.0078 53.8906H78.5547C78.5547 53.4688 78.7031 53.0625 79 52.6719C79.3021 52.276 79.7083 51.9635 80.2188 51.7344C80.7344 51.5052 81.2995 51.3906 81.9141 51.3906C82.888 51.3906 83.651 51.6354 84.2031 52.125C84.7552 52.6094 85.0417 53.2786 85.0625 54.1328V58.0234C85.0625 58.7995 85.1615 59.4167 85.3594 59.875V60H83.8438ZM81.4453 58.8984C81.8984 58.8984 82.3281 58.7812 82.7344 58.5469C83.1406 58.3125 83.4349 58.0078 83.6172 57.6328V55.8984H82.4844C80.7135 55.8984 79.8281 56.4167 79.8281 57.4531C79.8281 57.9062 79.9792 58.2604 80.2812 58.5156C80.5833 58.7708 80.9714 58.8984 81.4453 58.8984ZM91.4141 52.8438C91.1953 52.8073 90.9583 52.7891 90.7031 52.7891C89.7552 52.7891 89.112 53.1927 88.7734 54V60H87.3281V51.5469H88.7344L88.7578 52.5234C89.2318 51.7682 89.9036 51.3906 90.7734 51.3906C91.0547 51.3906 91.2682 51.4271 91.4141 51.5V52.8438ZM95.1016 49.5V51.5469H96.6797V52.6641H95.1016V57.9062C95.1016 58.2448 95.1719 58.5 95.3125 58.6719C95.4531 58.8385 95.6927 58.9219 96.0312 58.9219C96.1979 58.9219 96.4271 58.8906 96.7188 58.8281V60C96.3385 60.1042 95.9688 60.1562 95.6094 60.1562C94.9635 60.1562 94.4766 59.9609 94.1484 59.5703C93.8203 59.1797 93.6562 58.625 93.6562 57.9062V52.6641H92.1172V51.5469H93.6562V49.5H95.1016ZM101.141 57.8828L103.109 51.5469H104.656L101.258 61.3047C100.732 62.7109 99.8958 63.4141 98.75 63.4141L98.4766 63.3906L97.9375 63.2891V62.1172L98.3281 62.1484C98.8177 62.1484 99.1979 62.0495 99.4688 61.8516C99.7448 61.6536 99.9714 61.2917 100.148 60.7656L100.469 59.9062L97.4531 51.5469H99.0312L101.141 57.8828Z" fill="black"/>
<circle cx="12" cy="54" r="6.5" stroke="#8C8C8C"/>
<path d="M389.963 49.4629V50.3828H389.764C388.92 50.3984 388.248 50.6484 387.748 51.1328C387.248 51.6172 386.959 52.2988 386.881 53.1777C387.33 52.6621 387.943 52.4043 388.721 52.4043C389.463 52.4043 390.055 52.666 390.496 53.1895C390.941 53.7129 391.164 54.3887 391.164 55.2168C391.164 56.0957 390.924 56.7988 390.443 57.3262C389.967 57.8535 389.326 58.1172 388.521 58.1172C387.705 58.1172 387.043 57.8047 386.535 57.1797C386.027 56.5508 385.773 55.7422 385.773 54.7539V54.3379C385.773 52.7676 386.107 51.5684 386.775 50.7402C387.447 49.9082 388.445 49.4824 389.77 49.4629H389.963ZM388.539 53.3066C388.168 53.3066 387.826 53.418 387.514 53.6406C387.201 53.8633 386.984 54.1426 386.863 54.4785V54.877C386.863 55.5801 387.021 56.1465 387.338 56.5762C387.654 57.0059 388.049 57.2207 388.521 57.2207C389.01 57.2207 389.393 57.041 389.67 56.6816C389.951 56.3223 390.092 55.8516 390.092 55.2695C390.092 54.6836 389.949 54.2109 389.664 53.8516C389.383 53.4883 389.008 53.3066 388.539 53.3066ZM394.023 53.207H394.838C395.35 53.1992 395.752 53.0645 396.045 52.8027C396.338 52.541 396.484 52.1875 396.484 51.7422C396.484 50.7422 395.986 50.2422 394.99 50.2422C394.521 50.2422 394.146 50.377 393.865 50.6465C393.588 50.9121 393.449 51.2656 393.449 51.707H392.365C392.365 51.0312 392.611 50.4707 393.104 50.0254C393.6 49.5762 394.229 49.3516 394.99 49.3516C395.795 49.3516 396.426 49.5645 396.883 49.9902C397.34 50.416 397.568 51.0078 397.568 51.7656C397.568 52.1367 397.447 52.4961 397.205 52.8438C396.967 53.1914 396.641 53.4512 396.227 53.623C396.695 53.7715 397.057 54.0176 397.311 54.3613C397.568 54.7051 397.697 55.125 397.697 55.6211C397.697 56.3867 397.447 56.9941 396.947 57.4434C396.447 57.8926 395.797 58.1172 394.996 58.1172C394.195 58.1172 393.543 57.9004 393.039 57.4668C392.539 57.0332 392.289 56.4609 392.289 55.75H393.379C393.379 56.1992 393.525 56.5586 393.818 56.8281C394.111 57.0977 394.504 57.2324 394.996 57.2324C395.52 57.2324 395.92 57.0957 396.197 56.8223C396.475 56.5488 396.613 56.1562 396.613 55.6445C396.613 55.1484 396.461 54.7676 396.156 54.502C395.852 54.2363 395.412 54.0996 394.838 54.0918H394.023V53.207ZM399.092 51.1094C399.092 50.5977 399.254 50.1758 399.578 49.8438C399.906 49.5117 400.326 49.3457 400.838 49.3457C401.357 49.3457 401.777 49.5137 402.098 49.8496C402.422 50.1816 402.584 50.6133 402.584 51.1445V51.5605C402.584 52.0762 402.42 52.498 402.092 52.8262C401.768 53.1504 401.354 53.3125 400.85 53.3125C400.342 53.3125 399.922 53.1504 399.59 52.8262C399.258 52.498 399.092 52.0625 399.092 51.5195V51.1094ZM399.9 51.5605C399.9 51.8652 399.986 52.1172 400.158 52.3164C400.33 52.5117 400.561 52.6094 400.85 52.6094C401.127 52.6094 401.35 52.5137 401.518 52.3223C401.689 52.1309 401.775 51.8691 401.775 51.5371V51.1094C401.775 50.8047 401.691 50.5527 401.523 50.3535C401.355 50.1543 401.127 50.0547 400.838 50.0547C400.549 50.0547 400.32 50.1543 400.152 50.3535C399.984 50.5527 399.9 50.8125 399.9 51.1328V51.5605ZM403.246 55.9082C403.246 55.3965 403.408 54.9766 403.732 54.6484C404.061 54.3164 404.48 54.1504 404.992 54.1504C405.504 54.1504 405.924 54.3145 406.252 54.6426C406.58 54.9707 406.744 55.4062 406.744 55.9492V56.3652C406.744 56.877 406.58 57.2988 406.252 57.6309C405.928 57.959 405.512 58.123 405.004 58.123C404.496 58.123 404.076 57.9609 403.744 57.6367C403.412 57.3086 403.246 56.873 403.246 56.3301V55.9082ZM404.055 56.3652C404.055 56.6738 404.141 56.9277 404.312 57.127C404.484 57.3223 404.715 57.4199 405.004 57.4199C405.285 57.4199 405.51 57.3242 405.678 57.1328C405.846 56.9375 405.93 56.6738 405.93 56.3418V55.9082C405.93 55.5996 405.844 55.3477 405.672 55.1523C405.504 54.957 405.277 54.8594 404.992 54.8594C404.715 54.8594 404.488 54.957 404.312 55.1523C404.141 55.3438 404.055 55.6035 404.055 55.9316V56.3652ZM401.096 57.3555L400.48 56.9688L404.646 50.3008L405.262 50.6875L401.096 57.3555Z" fill="#698F63"/>
<path d="M431.299 58H425.709V57.2207L428.662 53.9395C429.1 53.4434 429.4 53.041 429.564 52.7324C429.732 52.4199 429.816 52.0977 429.816 51.7656C429.816 51.3203 429.682 50.9551 429.412 50.6699C429.143 50.3848 428.783 50.2422 428.334 50.2422C427.795 50.2422 427.375 50.3965 427.074 50.7051C426.777 51.0098 426.629 51.4355 426.629 51.9824H425.545C425.545 51.1973 425.797 50.5625 426.301 50.0781C426.809 49.5938 427.486 49.3516 428.334 49.3516C429.127 49.3516 429.754 49.5605 430.215 49.9785C430.676 50.3926 430.906 50.9453 430.906 51.6367C430.906 52.4766 430.371 53.4766 429.301 54.6367L427.016 57.1152H431.299V58ZM436.701 49.4629V50.3828H436.502C435.658 50.3984 434.986 50.6484 434.486 51.1328C433.986 51.6172 433.697 52.2988 433.619 53.1777C434.068 52.6621 434.682 52.4043 435.459 52.4043C436.201 52.4043 436.793 52.666 437.234 53.1895C437.68 53.7129 437.902 54.3887 437.902 55.2168C437.902 56.0957 437.662 56.7988 437.182 57.3262C436.705 57.8535 436.064 58.1172 435.26 58.1172C434.443 58.1172 433.781 57.8047 433.273 57.1797C432.766 56.5508 432.512 55.7422 432.512 54.7539V54.3379C432.512 52.7676 432.846 51.5684 433.514 50.7402C434.186 49.9082 435.184 49.4824 436.508 49.4629H436.701ZM435.277 53.3066C434.906 53.3066 434.564 53.418 434.252 53.6406C433.939 53.8633 433.723 54.1426 433.602 54.4785V54.877C433.602 55.5801 433.76 56.1465 434.076 56.5762C434.393 57.0059 434.787 57.2207 435.26 57.2207C435.748 57.2207 436.131 57.041 436.408 56.6816C436.689 56.3223 436.83 55.8516 436.83 55.2695C436.83 54.6836 436.688 54.2109 436.402 53.8516C436.121 53.4883 435.746 53.3066 435.277 53.3066ZM443.439 49.4629V50.3828H443.24C442.396 50.3984 441.725 50.6484 441.225 51.1328C440.725 51.6172 440.436 52.2988 440.357 53.1777C440.807 52.6621 441.42 52.4043 442.197 52.4043C442.939 52.4043 443.531 52.666 443.973 53.1895C444.418 53.7129 444.641 54.3887 444.641 55.2168C444.641 56.0957 444.4 56.7988 443.92 57.3262C443.443 57.8535 442.803 58.1172 441.998 58.1172C441.182 58.1172 440.52 57.8047 440.012 57.1797C439.504 56.5508 439.25 55.7422 439.25 54.7539V54.3379C439.25 52.7676 439.584 51.5684 440.252 50.7402C440.924 49.9082 441.922 49.4824 443.246 49.4629H443.439ZM442.016 53.3066C441.645 53.3066 441.303 53.418 440.99 53.6406C440.678 53.8633 440.461 54.1426 440.34 54.4785V54.877C440.34 55.5801 440.498 56.1465 440.814 56.5762C441.131 57.0059 441.525 57.2207 441.998 57.2207C442.486 57.2207 442.869 57.041 443.146 56.6816C443.428 56.3223 443.568 55.8516 443.568 55.2695C443.568 54.6836 443.426 54.2109 443.141 53.8516C442.859 53.4883 442.484 53.3066 442.016 53.3066Z" fill="#696969"/>
<rect y="80" width="92" height="28" rx="4" fill="#F5F5F5"/>
<path d="M29.2109 94.7109L27.8203 96.1562V100H26.3203V88.625H27.8203V94.25L32.875 88.625H34.6875L30.2109 93.6484L35.0391 100H33.2422L29.2109 94.7109ZM41.3438 100C41.2604 99.8333 41.1927 99.5365 41.1406 99.1094C40.4688 99.8073 39.6667 100.156 38.7344 100.156C37.901 100.156 37.2161 99.9219 36.6797 99.4531C36.1484 98.9792 35.8828 98.3802 35.8828 97.6562C35.8828 96.776 36.2161 96.0938 36.8828 95.6094C37.5547 95.1198 38.4974 94.875 39.7109 94.875H41.1172V94.2109C41.1172 93.7057 40.9661 93.3047 40.6641 93.0078C40.362 92.7057 39.9167 92.5547 39.3281 92.5547C38.8125 92.5547 38.3802 92.6849 38.0312 92.9453C37.6823 93.2057 37.5078 93.5208 37.5078 93.8906H36.0547C36.0547 93.4688 36.2031 93.0625 36.5 92.6719C36.8021 92.276 37.2083 91.9635 37.7188 91.7344C38.2344 91.5052 38.7995 91.3906 39.4141 91.3906C40.388 91.3906 41.151 91.6354 41.7031 92.125C42.2552 92.6094 42.5417 93.2786 42.5625 94.1328V98.0234C42.5625 98.7995 42.6615 99.4167 42.8594 99.875V100H41.3438ZM38.9453 98.8984C39.3984 98.8984 39.8281 98.7812 40.2344 98.5469C40.6406 98.3125 40.9349 98.0078 41.1172 97.6328V95.8984H39.9844C38.2135 95.8984 37.3281 96.4167 37.3281 97.4531C37.3281 97.9062 37.4792 98.2604 37.7812 98.5156C38.0833 98.7708 38.4714 98.8984 38.9453 98.8984ZM48.9141 92.8438C48.6953 92.8073 48.4583 92.7891 48.2031 92.7891C47.2552 92.7891 46.612 93.1927 46.2734 94V100H44.8281V91.5469H46.2344L46.2578 92.5234C46.7318 91.7682 47.4036 91.3906 48.2734 91.3906C48.5547 91.3906 48.7682 91.4271 48.9141 91.5V92.8438ZM55.1562 100C55.0729 99.8333 55.0052 99.5365 54.9531 99.1094C54.2812 99.8073 53.4792 100.156 52.5469 100.156C51.7135 100.156 51.0286 99.9219 50.4922 99.4531C49.9609 98.9792 49.6953 98.3802 49.6953 97.6562C49.6953 96.776 50.0286 96.0938 50.6953 95.6094C51.3672 95.1198 52.3099 94.875 53.5234 94.875H54.9297V94.2109C54.9297 93.7057 54.7786 93.3047 54.4766 93.0078C54.1745 92.7057 53.7292 92.5547 53.1406 92.5547C52.625 92.5547 52.1927 92.6849 51.8438 92.9453C51.4948 93.2057 51.3203 93.5208 51.3203 93.8906H49.8672C49.8672 93.4688 50.0156 93.0625 50.3125 92.6719C50.6146 92.276 51.0208 91.9635 51.5312 91.7344C52.0469 91.5052 52.612 91.3906 53.2266 91.3906C54.2005 91.3906 54.9635 91.6354 55.5156 92.125C56.0677 92.6094 56.3542 93.2786 56.375 94.1328V98.0234C56.375 98.7995 56.474 99.4167 56.6719 99.875V100H55.1562ZM52.7578 98.8984C53.2109 98.8984 53.6406 98.7812 54.0469 98.5469C54.4531 98.3125 54.7474 98.0078 54.9297 97.6328V95.8984H53.7969C52.026 95.8984 51.1406 96.4167 51.1406 97.4531C51.1406 97.9062 51.2917 98.2604 51.5938 98.5156C51.8958 98.7708 52.2839 98.8984 52.7578 98.8984ZM58.2578 95.6953C58.2578 94.8672 58.4193 94.1224 58.7422 93.4609C59.0703 92.7995 59.5234 92.2891 60.1016 91.9297C60.6849 91.5703 61.349 91.3906 62.0938 91.3906C63.2448 91.3906 64.1745 91.7891 64.8828 92.5859C65.5964 93.3828 65.9531 94.4427 65.9531 95.7656V95.8672C65.9531 96.6901 65.7943 97.4297 65.4766 98.0859C65.1641 98.737 64.7135 99.2448 64.125 99.6094C63.5417 99.974 62.8698 100.156 62.1094 100.156C60.9635 100.156 60.0339 99.7578 59.3203 98.9609C58.612 98.1641 58.2578 97.1094 58.2578 95.7969V95.6953ZM59.7109 95.8672C59.7109 96.8047 59.9271 97.5573 60.3594 98.125C60.7969 98.6927 61.3802 98.9766 62.1094 98.9766C62.8438 98.9766 63.4271 98.6901 63.8594 98.1172C64.2917 97.5391 64.5078 96.7318 64.5078 95.6953C64.5078 94.7682 64.2865 94.0182 63.8438 93.4453C63.4062 92.8672 62.8229 92.5781 62.0938 92.5781C61.3802 92.5781 60.8047 92.862 60.3672 93.4297C59.9297 93.9974 59.7109 94.8099 59.7109 95.8672ZM70.125 96.0859L69.2188 97.0312V100H67.7734V88H69.2188V95.2578L69.9922 94.3281L72.625 91.5469H74.3828L71.0938 95.0781L74.7656 100H73.0703L70.125 96.0859ZM79.2266 100.156C78.0807 100.156 77.1484 99.7812 76.4297 99.0312C75.7109 98.276 75.3516 97.2682 75.3516 96.0078V95.7422C75.3516 94.9036 75.5104 94.1562 75.8281 93.5C76.151 92.8385 76.599 92.3229 77.1719 91.9531C77.75 91.5781 78.375 91.3906 79.0469 91.3906C80.1458 91.3906 81 91.7526 81.6094 92.4766C82.2188 93.2005 82.5234 94.237 82.5234 95.5859V96.1875H76.7969C76.8177 97.0208 77.0599 97.6953 77.5234 98.2109C77.9922 98.7214 78.5859 98.9766 79.3047 98.9766C79.8151 98.9766 80.2474 98.8724 80.6016 98.6641C80.9557 98.4557 81.2656 98.1797 81.5312 97.8359L82.4141 98.5234C81.7057 99.612 80.6432 100.156 79.2266 100.156ZM79.0469 92.5781C78.4635 92.5781 77.974 92.7917 77.5781 93.2188C77.1823 93.6406 76.9375 94.2344 76.8438 95H81.0781V94.8906C81.0365 94.1562 80.8385 93.5885 80.4844 93.1875C80.1302 92.7812 79.651 92.5781 79.0469 92.5781ZM97.1406 100H95.6328L89.9062 91.2344V100H88.3984V88.625H89.9062L95.6484 97.4297V88.625H97.1406V100ZM101.148 100H99.7031V91.5469H101.148V100ZM99.5859 89.3047C99.5859 89.0703 99.6562 88.8724 99.7969 88.7109C99.9427 88.5495 100.156 88.4688 100.438 88.4688C100.719 88.4688 100.932 88.5495 101.078 88.7109C101.224 88.8724 101.297 89.0703 101.297 89.3047C101.297 89.5391 101.224 89.7344 101.078 89.8906C100.932 90.0469 100.719 90.125 100.438 90.125C100.156 90.125 99.9427 90.0469 99.7969 89.8906C99.6562 89.7344 99.5859 89.5391 99.5859 89.3047ZM103.125 95.7031C103.125 94.3854 103.43 93.3385 104.039 92.5625C104.648 91.7812 105.456 91.3906 106.461 91.3906C107.492 91.3906 108.297 91.7552 108.875 92.4844L108.945 91.5469H110.266V99.7969C110.266 100.891 109.94 101.753 109.289 102.383C108.643 103.013 107.773 103.328 106.68 103.328C106.07 103.328 105.474 103.198 104.891 102.938C104.307 102.677 103.862 102.32 103.555 101.867L104.305 101C104.924 101.766 105.682 102.148 106.578 102.148C107.281 102.148 107.828 101.951 108.219 101.555C108.615 101.159 108.812 100.602 108.812 99.8828V99.1562C108.234 99.8229 107.445 100.156 106.445 100.156C105.456 100.156 104.654 99.7578 104.039 98.9609C103.43 98.1641 103.125 97.0781 103.125 95.7031ZM104.578 95.8672C104.578 96.8203 104.773 97.5703 105.164 98.1172C105.555 98.6589 106.102 98.9297 106.805 98.9297C107.716 98.9297 108.385 98.5156 108.812 97.6875V93.8281C108.37 93.0208 107.706 92.6172 106.82 92.6172C106.117 92.6172 105.568 92.8906 105.172 93.4375C104.776 93.9844 104.578 94.7943 104.578 95.8672ZM113.898 92.5703C114.539 91.7839 115.372 91.3906 116.398 91.3906C118.185 91.3906 119.086 92.3984 119.102 94.4141V100H117.656V94.4062C117.651 93.7969 117.51 93.3464 117.234 93.0547C116.964 92.763 116.539 92.6172 115.961 92.6172C115.492 92.6172 115.081 92.7422 114.727 92.9922C114.372 93.2422 114.096 93.5703 113.898 93.9766V100H112.453V88H113.898V92.5703ZM123.227 89.5V91.5469H124.805V92.6641H123.227V97.9062C123.227 98.2448 123.297 98.5 123.438 98.6719C123.578 98.8385 123.818 98.9219 124.156 98.9219C124.323 98.9219 124.552 98.8906 124.844 98.8281V100C124.464 100.104 124.094 100.156 123.734 100.156C123.089 100.156 122.602 99.9609 122.273 99.5703C121.945 99.1797 121.781 98.625 121.781 97.9062V92.6641H120.242V91.5469H121.781V89.5H123.227Z" fill="black"/>
<circle cx="12" cy="94" r="6.5" stroke="#8C8C8C"/>
<path d="M389.271 98H388.182V90.7754L385.996 91.5781V90.5938L389.102 89.4277H389.271V98ZM396.01 98H394.92V90.7754L392.734 91.5781V90.5938L395.84 89.4277H396.01V98ZM399.092 91.1094C399.092 90.5977 399.254 90.1758 399.578 89.8438C399.906 89.5117 400.326 89.3457 400.838 89.3457C401.357 89.3457 401.777 89.5137 402.098 89.8496C402.422 90.1816 402.584 90.6133 402.584 91.1445V91.5605C402.584 92.0762 402.42 92.498 402.092 92.8262C401.768 93.1504 401.354 93.3125 400.85 93.3125C400.342 93.3125 399.922 93.1504 399.59 92.8262C399.258 92.498 399.092 92.0625 399.092 91.5195V91.1094ZM399.9 91.5605C399.9 91.8652 399.986 92.1172 400.158 92.3164C400.33 92.5117 400.561 92.6094 400.85 92.6094C401.127 92.6094 401.35 92.5137 401.518 92.3223C401.689 92.1309 401.775 91.8691 401.775 91.5371V91.1094C401.775 90.8047 401.691 90.5527 401.523 90.3535C401.355 90.1543 401.127 90.0547 400.838 90.0547C400.549 90.0547 400.32 90.1543 400.152 90.3535C399.984 90.5527 399.9 90.8125 399.9 91.1328V91.5605ZM403.246 95.9082C403.246 95.3965 403.408 94.9766 403.732 94.6484C404.061 94.3164 404.48 94.1504 404.992 94.1504C405.504 94.1504 405.924 94.3145 406.252 94.6426C406.58 94.9707 406.744 95.4062 406.744 95.9492V96.3652C406.744 96.877 406.58 97.2988 406.252 97.6309C405.928 97.959 405.512 98.123 405.004 98.123C404.496 98.123 404.076 97.9609 403.744 97.6367C403.412 97.3086 403.246 96.873 403.246 96.3301V95.9082ZM404.055 96.3652C404.055 96.6738 404.141 96.9277 404.312 97.127C404.484 97.3223 404.715 97.4199 405.004 97.4199C405.285 97.4199 405.51 97.3242 405.678 97.1328C405.846 96.9375 405.93 96.6738 405.93 96.3418V95.9082C405.93 95.5996 405.844 95.3477 405.672 95.1523C405.504 94.957 405.277 94.8594 404.992 94.8594C404.715 94.8594 404.488 94.957 404.312 95.1523C404.141 95.3438 404.055 95.6035 404.055 95.9316V96.3652ZM401.096 97.3555L400.48 96.9688L404.646 90.3008L405.262 90.6875L401.096 97.3555Z" fill="#696969"/>
<path d="M430.285 95.1348H431.469V96.0195H430.285V98H429.195V96.0195H425.311V95.3809L429.131 89.4688H430.285V95.1348ZM426.541 95.1348H429.195V90.9512L429.066 91.1855L426.541 95.1348ZM436.701 89.4629V90.3828H436.502C435.658 90.3984 434.986 90.6484 434.486 91.1328C433.986 91.6172 433.697 92.2988 433.619 93.1777C434.068 92.6621 434.682 92.4043 435.459 92.4043C436.201 92.4043 436.793 92.666 437.234 93.1895C437.68 93.7129 437.902 94.3887 437.902 95.2168C437.902 96.0957 437.662 96.7988 437.182 97.3262C436.705 97.8535 436.064 98.1172 435.26 98.1172C434.443 98.1172 433.781 97.8047 433.273 97.1797C432.766 96.5508 432.512 95.7422 432.512 94.7539V94.3379C432.512 92.7676 432.846 91.5684 433.514 90.7402C434.186 89.9082 435.184 89.4824 436.508 89.4629H436.701ZM435.277 93.3066C434.906 93.3066 434.564 93.418 434.252 93.6406C433.939 93.8633 433.723 94.1426 433.602 94.4785V94.877C433.602 95.5801 433.76 96.1465 434.076 96.5762C434.393 97.0059 434.787 97.2207 435.26 97.2207C435.748 97.2207 436.131 97.041 436.408 96.6816C436.689 96.3223 436.83 95.8516 436.83 95.2695C436.83 94.6836 436.688 94.2109 436.402 93.8516C436.121 93.4883 435.746 93.3066 435.277 93.3066Z" fill="#696969"/>
<rect width="223" height="28" rx="4" fill="#F5F5F5"/>
<path d="M35.0625 20H33.5547V14.7422H27.8203V20H26.3203V8.625H27.8203V13.5156H33.5547V8.625H35.0625V20ZM42.7188 20C42.6354 19.8333 42.5677 19.5365 42.5156 19.1094C41.8438 19.8073 41.0417 20.1562 40.1094 20.1562C39.276 20.1562 38.5911 19.9219 38.0547 19.4531C37.5234 18.9792 37.2578 18.3802 37.2578 17.6562C37.2578 16.776 37.5911 16.0938 38.2578 15.6094C38.9297 15.1198 39.8724 14.875 41.0859 14.875H42.4922V14.2109C42.4922 13.7057 42.3411 13.3047 42.0391 13.0078C41.737 12.7057 41.2917 12.5547 40.7031 12.5547C40.1875 12.5547 39.7552 12.6849 39.4062 12.9453C39.0573 13.2057 38.8828 13.5208 38.8828 13.8906H37.4297C37.4297 13.4688 37.5781 13.0625 37.875 12.6719C38.1771 12.276 38.5833 11.9635 39.0938 11.7344C39.6094 11.5052 40.1745 11.3906 40.7891 11.3906C41.763 11.3906 42.526 11.6354 43.0781 12.125C43.6302 12.6094 43.9167 13.2786 43.9375 14.1328V18.0234C43.9375 18.7995 44.0365 19.4167 44.2344 19.875V20H42.7188ZM40.3203 18.8984C40.7734 18.8984 41.2031 18.7812 41.6094 18.5469C42.0156 18.3125 42.3099 18.0078 42.4922 17.6328V15.8984H41.3594C39.5885 15.8984 38.7031 16.4167 38.7031 17.4531C38.7031 17.9062 38.8542 18.2604 39.1562 18.5156C39.4583 18.7708 39.8464 18.8984 40.3203 18.8984ZM47.7734 20H46.3281V8H47.7734V20ZM51.6641 20H50.2188V8H51.6641V20ZM53.6016 15.6953C53.6016 14.8672 53.763 14.1224 54.0859 13.4609C54.4141 12.7995 54.8672 12.2891 55.4453 11.9297C56.0286 11.5703 56.6927 11.3906 57.4375 11.3906C58.5885 11.3906 59.5182 11.7891 60.2266 12.5859C60.9401 13.3828 61.2969 14.4427 61.2969 15.7656V15.8672C61.2969 16.6901 61.138 17.4297 60.8203 18.0859C60.5078 18.737 60.0573 19.2448 59.4688 19.6094C58.8854 19.974 58.2135 20.1562 57.4531 20.1562C56.3073 20.1562 55.3776 19.7578 54.6641 18.9609C53.9557 18.1641 53.6016 17.1094 53.6016 15.7969V15.6953ZM55.0547 15.8672C55.0547 16.8047 55.2708 17.5573 55.7031 18.125C56.1406 18.6927 56.724 18.9766 57.4531 18.9766C58.1875 18.9766 58.7708 18.6901 59.2031 18.1172C59.6354 17.5391 59.8516 16.7318 59.8516 15.6953C59.8516 14.7682 59.6302 14.0182 59.1875 13.4453C58.75 12.8672 58.1667 12.5781 57.4375 12.5781C56.724 12.5781 56.1484 12.862 55.7109 13.4297C55.2734 13.9974 55.0547 14.8099 55.0547 15.8672ZM70.5938 18.0078L72.2188 11.5469H73.6641L71.2031 20H70.0312L67.9766 13.5938L65.9766 20H64.8047L62.3516 11.5469H63.7891L65.4531 17.875L67.4219 11.5469H68.5859L70.5938 18.0078ZM78.6484 20.1562C77.5026 20.1562 76.5703 19.7812 75.8516 19.0312C75.1328 18.276 74.7734 17.2682 74.7734 16.0078V15.7422C74.7734 14.9036 74.9323 14.1562 75.25 13.5C75.5729 12.8385 76.0208 12.3229 76.5938 11.9531C77.1719 11.5781 77.7969 11.3906 78.4688 11.3906C79.5677 11.3906 80.4219 11.7526 81.0312 12.4766C81.6406 13.2005 81.9453 14.237 81.9453 15.5859V16.1875H76.2188C76.2396 17.0208 76.4818 17.6953 76.9453 18.2109C77.4141 18.7214 78.0078 18.9766 78.7266 18.9766C79.237 18.9766 79.6693 18.8724 80.0234 18.6641C80.3776 18.4557 80.6875 18.1797 80.9531 17.8359L81.8359 18.5234C81.1276 19.612 80.0651 20.1562 78.6484 20.1562ZM78.4688 12.5781C77.8854 12.5781 77.3958 12.7917 77 13.2188C76.6042 13.6406 76.3594 14.2344 76.2656 15H80.5V14.8906C80.4583 14.1562 80.2604 13.5885 79.9062 13.1875C79.5521 12.7812 79.0729 12.5781 78.4688 12.5781ZM87.1328 20.1562C85.987 20.1562 85.0547 19.7812 84.3359 19.0312C83.6172 18.276 83.2578 17.2682 83.2578 16.0078V15.7422C83.2578 14.9036 83.4167 14.1562 83.7344 13.5C84.0573 12.8385 84.5052 12.3229 85.0781 11.9531C85.6562 11.5781 86.2812 11.3906 86.9531 11.3906C88.0521 11.3906 88.9062 11.7526 89.5156 12.4766C90.125 13.2005 90.4297 14.237 90.4297 15.5859V16.1875H84.7031C84.724 17.0208 84.9661 17.6953 85.4297 18.2109C85.8984 18.7214 86.4922 18.9766 87.2109 18.9766C87.7214 18.9766 88.1536 18.8724 88.5078 18.6641C88.862 18.4557 89.1719 18.1797 89.4375 17.8359L90.3203 18.5234C89.612 19.612 88.5495 20.1562 87.1328 20.1562ZM86.9531 12.5781C86.3698 12.5781 85.8802 12.7917 85.4844 13.2188C85.0885 13.6406 84.8438 14.2344 84.75 15H88.9844V14.8906C88.9427 14.1562 88.7448 13.5885 88.3906 13.1875C88.0365 12.7812 87.5573 12.5781 86.9531 12.5781ZM93.4766 11.5469L93.5234 12.6094C94.1693 11.7969 95.013 11.3906 96.0547 11.3906C97.8411 11.3906 98.7422 12.3984 98.7578 14.4141V20H97.3125V14.4062C97.3073 13.7969 97.1667 13.3464 96.8906 13.0547C96.6198 12.763 96.1953 12.6172 95.6172 12.6172C95.1484 12.6172 94.737 12.7422 94.3828 12.9922C94.0286 13.2422 93.7526 13.5703 93.5547 13.9766V20H92.1094V11.5469H93.4766ZM106.633 15.5469V20H105.133V8.625H109.328C110.573 8.625 111.547 8.94271 112.25 9.57812C112.958 10.2135 113.312 11.0547 113.312 12.1016C113.312 13.2057 112.966 14.0573 112.273 14.6562C111.586 15.25 110.599 15.5469 109.312 15.5469H106.633ZM106.633 14.3203H109.328C110.13 14.3203 110.745 14.1328 111.172 13.7578C111.599 13.3776 111.812 12.8307 111.812 12.1172C111.812 11.4401 111.599 10.8984 111.172 10.4922C110.745 10.0859 110.159 9.875 109.414 9.85938H106.633V14.3203ZM120.125 20C120.042 19.8333 119.974 19.5365 119.922 19.1094C119.25 19.8073 118.448 20.1562 117.516 20.1562C116.682 20.1562 115.997 19.9219 115.461 19.4531C114.93 18.9792 114.664 18.3802 114.664 17.6562C114.664 16.776 114.997 16.0938 115.664 15.6094C116.336 15.1198 117.279 14.875 118.492 14.875H119.898V14.2109C119.898 13.7057 119.747 13.3047 119.445 13.0078C119.143 12.7057 118.698 12.5547 118.109 12.5547C117.594 12.5547 117.161 12.6849 116.812 12.9453C116.464 13.2057 116.289 13.5208 116.289 13.8906H114.836C114.836 13.4688 114.984 13.0625 115.281 12.6719C115.583 12.276 115.99 11.9635 116.5 11.7344C117.016 11.5052 117.581 11.3906 118.195 11.3906C119.169 11.3906 119.932 11.6354 120.484 12.125C121.036 12.6094 121.323 13.2786 121.344 14.1328V18.0234C121.344 18.7995 121.443 19.4167 121.641 19.875V20H120.125ZM117.727 18.8984C118.18 18.8984 118.609 18.7812 119.016 18.5469C119.422 18.3125 119.716 18.0078 119.898 17.6328V15.8984H118.766C116.995 15.8984 116.109 16.4167 116.109 17.4531C116.109 17.9062 116.26 18.2604 116.562 18.5156C116.865 18.7708 117.253 18.8984 117.727 18.8984ZM127.695 12.8438C127.477 12.8073 127.24 12.7891 126.984 12.7891C126.036 12.7891 125.393 13.1927 125.055 14V20H123.609V11.5469H125.016L125.039 12.5234C125.513 11.7682 126.185 11.3906 127.055 11.3906C127.336 11.3906 127.549 11.4271 127.695 11.5V12.8438ZM131.383 9.5V11.5469H132.961V12.6641H131.383V17.9062C131.383 18.2448 131.453 18.5 131.594 18.6719C131.734 18.8385 131.974 18.9219 132.312 18.9219C132.479 18.9219 132.708 18.8906 133 18.8281V20C132.62 20.1042 132.25 20.1562 131.891 20.1562C131.245 20.1562 130.758 19.9609 130.43 19.5703C130.102 19.1797 129.938 18.625 129.938 17.9062V12.6641H128.398V11.5469H129.938V9.5H131.383ZM137.422 17.8828L139.391 11.5469H140.938L137.539 21.3047C137.013 22.7109 136.177 23.4141 135.031 23.4141L134.758 23.3906L134.219 23.2891V22.1172L134.609 22.1484C135.099 22.1484 135.479 22.0495 135.75 21.8516C136.026 21.6536 136.253 21.2917 136.43 20.7656L136.75 19.9062L133.734 11.5469H135.312L137.422 17.8828Z" fill="black"/>
<circle cx="12" cy="14" r="6.5" stroke="#8C8C8C"/>
<path d="M391.299 18H385.709V17.2207L388.662 13.9395C389.1 13.4434 389.4 13.041 389.564 12.7324C389.732 12.4199 389.816 12.0977 389.816 11.7656C389.816 11.3203 389.682 10.9551 389.412 10.6699C389.143 10.3848 388.783 10.2422 388.334 10.2422C387.795 10.2422 387.375 10.3965 387.074 10.7051C386.777 11.0098 386.629 11.4355 386.629 11.9824H385.545C385.545 11.1973 385.797 10.5625 386.301 10.0781C386.809 9.59375 387.486 9.35156 388.334 9.35156C389.127 9.35156 389.754 9.56055 390.215 9.97852C390.676 10.3926 390.906 10.9453 390.906 11.6367C390.906 12.4766 390.371 13.4766 389.301 14.6367L387.016 17.1152H391.299V18ZM396.701 9.46289V10.3828H396.502C395.658 10.3984 394.986 10.6484 394.486 11.1328C393.986 11.6172 393.697 12.2988 393.619 13.1777C394.068 12.6621 394.682 12.4043 395.459 12.4043C396.201 12.4043 396.793 12.666 397.234 13.1895C397.68 13.7129 397.902 14.3887 397.902 15.2168C397.902 16.0957 397.662 16.7988 397.182 17.3262C396.705 17.8535 396.064 18.1172 395.26 18.1172C394.443 18.1172 393.781 17.8047 393.273 17.1797C392.766 16.5508 392.512 15.7422 392.512 14.7539V14.3379C392.512 12.7676 392.846 11.5684 393.514 10.7402C394.186 9.9082 395.184 9.48242 396.508 9.46289H396.701ZM395.277 13.3066C394.906 13.3066 394.564 13.418 394.252 13.6406C393.939 13.8633 393.723 14.1426 393.602 14.4785V14.877C393.602 15.5801 393.76 16.1465 394.076 16.5762C394.393 17.0059 394.787 17.2207 395.26 17.2207C395.748 17.2207 396.131 17.041 396.408 16.6816C396.689 16.3223 396.83 15.8516 396.83 15.2695C396.83 14.6836 396.688 14.2109 396.402 13.8516C396.121 13.4883 395.746 13.3066 395.277 13.3066ZM399.092 11.1094C399.092 10.5977 399.254 10.1758 399.578 9.84375C399.906 9.51172 400.326 9.3457 400.838 9.3457C401.357 9.3457 401.777 9.51367 402.098 9.84961C402.422 10.1816 402.584 10.6133 402.584 11.1445V11.5605C402.584 12.0762 402.42 12.498 402.092 12.8262C401.768 13.1504 401.354 13.3125 400.85 13.3125C400.342 13.3125 399.922 13.1504 399.59 12.8262C399.258 12.498 399.092 12.0625 399.092 11.5195V11.1094ZM399.9 11.5605C399.9 11.8652 399.986 12.1172 400.158 12.3164C400.33 12.5117 400.561 12.6094 400.85 12.6094C401.127 12.6094 401.35 12.5137 401.518 12.3223C401.689 12.1309 401.775 11.8691 401.775 11.5371V11.1094C401.775 10.8047 401.691 10.5527 401.523 10.3535C401.355 10.1543 401.127 10.0547 400.838 10.0547C400.549 10.0547 400.32 10.1543 400.152 10.3535C399.984 10.5527 399.9 10.8125 399.9 11.1328V11.5605ZM403.246 15.9082C403.246 15.3965 403.408 14.9766 403.732 14.6484C404.061 14.3164 404.48 14.1504 404.992 14.1504C405.504 14.1504 405.924 14.3145 406.252 14.6426C406.58 14.9707 406.744 15.4062 406.744 15.9492V16.3652C406.744 16.877 406.58 17.2988 406.252 17.6309C405.928 17.959 405.512 18.123 405.004 18.123C404.496 18.123 404.076 17.9609 403.744 17.6367C403.412 17.3086 403.246 16.873 403.246 16.3301V15.9082ZM404.055 16.3652C404.055 16.6738 404.141 16.9277 404.312 17.127C404.484 17.3223 404.715 17.4199 405.004 17.4199C405.285 17.4199 405.51 17.3242 405.678 17.1328C405.846 16.9375 405.93 16.6738 405.93 16.3418V15.9082C405.93 15.5996 405.844 15.3477 405.672 15.1523C405.504 14.957 405.277 14.8594 404.992 14.8594C404.715 14.8594 404.488 14.957 404.312 15.1523C404.141 15.3438 404.055 15.6035 404.055 15.9316V16.3652ZM401.096 17.3555L400.48 16.9688L404.646 10.3008L405.262 10.6875L401.096 17.3555Z" fill="#696969"/>
<path d="M429.271 18H428.182V10.7754L425.996 11.5781V10.5938L429.102 9.42773H429.271V18ZM436.01 18H434.92V10.7754L432.734 11.5781V10.5938L435.84 9.42773H436.01V18ZM444.535 14.3613C444.535 15.6309 444.318 16.5742 443.885 17.1914C443.451 17.8086 442.773 18.1172 441.852 18.1172C440.941 18.1172 440.268 17.8164 439.83 17.2148C439.393 16.6094 439.166 15.707 439.15 14.5078V13.0605C439.15 11.8066 439.367 10.875 439.801 10.2656C440.234 9.65625 440.914 9.35156 441.84 9.35156C442.758 9.35156 443.434 9.64648 443.867 10.2363C444.301 10.8223 444.523 11.7285 444.535 12.9551V14.3613ZM443.451 12.8789C443.451 11.9609 443.322 11.293 443.064 10.875C442.807 10.4531 442.398 10.2422 441.84 10.2422C441.285 10.2422 440.881 10.4512 440.627 10.8691C440.373 11.2871 440.242 11.9297 440.234 12.7969V14.5312C440.234 15.4531 440.367 16.1348 440.633 16.5762C440.902 17.0137 441.309 17.2324 441.852 17.2324C442.387 17.2324 442.783 17.0254 443.041 16.6113C443.303 16.1973 443.439 15.5449 443.451 14.6543V12.8789Z" fill="#696969"/>
</svg>
