<svg width="446" height="148" viewBox="0 0 446 148" fill="none" xmlns="http://www.w3.org/2000/svg">
<rect width="417" height="28" rx="4" fill="#BCFFB1"/>
<path d="M27.8203 15.5469V20H26.3203V8.625H30.5156C31.7604 8.625 32.7344 8.94271 33.4375 9.57812C34.1458 10.2135 34.5 11.0547 34.5 12.1016C34.5 13.2057 34.1536 14.0573 33.4609 14.6562C32.7734 15.25 31.7865 15.5469 30.5 15.5469H27.8203ZM27.8203 14.3203H30.5156C31.3177 14.3203 31.9323 14.1328 32.3594 13.7578C32.7865 13.3776 33 12.8307 33 12.1172C33 11.4401 32.7865 10.8984 32.3594 10.4922C31.9323 10.0859 31.3464 9.875 30.6016 9.85938H27.8203V14.3203ZM39.5859 20.1562C38.4401 20.1562 37.5078 19.7812 36.7891 19.0312C36.0703 18.276 35.7109 17.2682 35.7109 16.0078V15.7422C35.7109 14.9036 35.8698 14.1562 36.1875 13.5C36.5104 12.8385 36.9583 12.3229 37.5312 11.9531C38.1094 11.5781 38.7344 11.3906 39.4062 11.3906C40.5052 11.3906 41.3594 11.7526 41.9688 12.4766C42.5781 13.2005 42.8828 14.237 42.8828 15.5859V16.1875H37.1562C37.1771 17.0208 37.4193 17.6953 37.8828 18.2109C38.3516 18.7214 38.9453 18.9766 39.6641 18.9766C40.1745 18.9766 40.6068 18.8724 40.9609 18.6641C41.3151 18.4557 41.625 18.1797 41.8906 17.8359L42.7734 18.5234C42.0651 19.612 41.0026 20.1562 39.5859 20.1562ZM39.4062 12.5781C38.8229 12.5781 38.3333 12.7917 37.9375 13.2188C37.5417 13.6406 37.2969 14.2344 37.2031 15H41.4375V14.8906C41.3958 14.1562 41.1979 13.5885 40.8438 13.1875C40.4896 12.7812 40.0104 12.5781 39.4062 12.5781ZM51.7031 15.8672C51.7031 17.1536 51.4089 18.1901 50.8203 18.9766C50.2318 19.763 49.4349 20.1562 48.4297 20.1562C47.4036 20.1562 46.5964 19.8307 46.0078 19.1797V23.25H44.5625V11.5469H45.8828L45.9531 12.4844C46.5417 11.7552 47.3594 11.3906 48.4062 11.3906C49.4219 11.3906 50.224 11.7734 50.8125 12.5391C51.4062 13.3047 51.7031 14.3698 51.7031 15.7344V15.8672ZM50.2578 15.7031C50.2578 14.75 50.0547 13.9974 49.6484 13.4453C49.2422 12.8932 48.6849 12.6172 47.9766 12.6172C47.1016 12.6172 46.4453 13.0052 46.0078 13.7812V17.8203C46.4401 18.5911 47.1016 18.9766 47.9922 18.9766C48.6849 18.9766 49.2344 18.7031 49.6406 18.1562C50.0521 17.6042 50.2578 16.7865 50.2578 15.7031ZM60.6875 15.8672C60.6875 17.1536 60.3932 18.1901 59.8047 18.9766C59.2161 19.763 58.4193 20.1562 57.4141 20.1562C56.388 20.1562 55.5807 19.8307 54.9922 19.1797V23.25H53.5469V11.5469H54.8672L54.9375 12.4844C55.526 11.7552 56.3438 11.3906 57.3906 11.3906C58.4062 11.3906 59.2083 11.7734 59.7969 12.5391C60.3906 13.3047 60.6875 14.3698 60.6875 15.7344V15.8672ZM59.2422 15.7031C59.2422 14.75 59.0391 13.9974 58.6328 13.4453C58.2266 12.8932 57.6693 12.6172 56.9609 12.6172C56.0859 12.6172 55.4297 13.0052 54.9922 13.7812V17.8203C55.4245 18.5911 56.0859 18.9766 56.9766 18.9766C57.6693 18.9766 58.2188 18.7031 58.625 18.1562C59.0365 17.6042 59.2422 16.7865 59.2422 15.7031ZM66.0391 20.1562C64.8932 20.1562 63.9609 19.7812 63.2422 19.0312C62.5234 18.276 62.1641 17.2682 62.1641 16.0078V15.7422C62.1641 14.9036 62.3229 14.1562 62.6406 13.5C62.9635 12.8385 63.4115 12.3229 63.9844 11.9531C64.5625 11.5781 65.1875 11.3906 65.8594 11.3906C66.9583 11.3906 67.8125 11.7526 68.4219 12.4766C69.0312 13.2005 69.3359 14.237 69.3359 15.5859V16.1875H63.6094C63.6302 17.0208 63.8724 17.6953 64.3359 18.2109C64.8047 18.7214 65.3984 18.9766 66.1172 18.9766C66.6276 18.9766 67.0599 18.8724 67.4141 18.6641C67.7682 18.4557 68.0781 18.1797 68.3438 17.8359L69.2266 18.5234C68.5182 19.612 67.4557 20.1562 66.0391 20.1562ZM65.8594 12.5781C65.276 12.5781 64.7865 12.7917 64.3906 13.2188C63.9948 13.6406 63.75 14.2344 63.6562 15H67.8906V14.8906C67.849 14.1562 67.651 13.5885 67.2969 13.1875C66.9427 12.7812 66.4635 12.5781 65.8594 12.5781ZM75.1016 12.8438C74.8828 12.8073 74.6458 12.7891 74.3906 12.7891C73.4427 12.7891 72.7995 13.1927 72.4609 14V20H71.0156V11.5469H72.4219L72.4453 12.5234C72.9193 11.7682 73.5911 11.3906 74.4609 11.3906C74.7422 11.3906 74.9557 11.4271 75.1016 11.5V12.8438ZM75.8984 15.6953C75.8984 14.8672 76.0599 14.1224 76.3828 13.4609C76.7109 12.7995 77.1641 12.2891 77.7422 11.9297C78.3255 11.5703 78.9896 11.3906 79.7344 11.3906C80.8854 11.3906 81.8151 11.7891 82.5234 12.5859C83.237 13.3828 83.5938 14.4427 83.5938 15.7656V15.8672C83.5938 16.6901 83.4349 17.4297 83.1172 18.0859C82.8047 18.737 82.3542 19.2448 81.7656 19.6094C81.1823 19.974 80.5104 20.1562 79.75 20.1562C78.6042 20.1562 77.6745 19.7578 76.9609 18.9609C76.2526 18.1641 75.8984 17.1094 75.8984 15.7969V15.6953ZM77.3516 15.8672C77.3516 16.8047 77.5677 17.5573 78 18.125C78.4375 18.6927 79.0208 18.9766 79.75 18.9766C80.4844 18.9766 81.0677 18.6901 81.5 18.1172C81.9323 17.5391 82.1484 16.7318 82.1484 15.6953C82.1484 14.7682 81.9271 14.0182 81.4844 13.4453C81.0469 12.8672 80.4635 12.5781 79.7344 12.5781C79.0208 12.5781 78.4453 12.862 78.0078 13.4297C77.5703 13.9974 77.3516 14.8099 77.3516 15.8672ZM86.7734 11.5469L86.8203 12.6094C87.4661 11.7969 88.3099 11.3906 89.3516 11.3906C91.138 11.3906 92.0391 12.3984 92.0547 14.4141V20H90.6094V14.4062C90.6042 13.7969 90.4635 13.3464 90.1875 13.0547C89.9167 12.763 89.4922 12.6172 88.9141 12.6172C88.4453 12.6172 88.0339 12.7422 87.6797 12.9922C87.3255 13.2422 87.0495 13.5703 86.8516 13.9766V20H85.4062V11.5469H86.7734ZM95.8047 20H94.3594V11.5469H95.8047V20ZM94.2422 9.30469C94.2422 9.07031 94.3125 8.8724 94.4531 8.71094C94.599 8.54948 94.8125 8.46875 95.0938 8.46875C95.375 8.46875 95.5885 8.54948 95.7344 8.71094C95.8802 8.8724 95.9531 9.07031 95.9531 9.30469C95.9531 9.53906 95.8802 9.73438 95.7344 9.89062C95.5885 10.0469 95.375 10.125 95.0938 10.125C94.8125 10.125 94.599 10.0469 94.4531 9.89062C94.3125 9.73438 94.2422 9.53906 94.2422 9.30469Z" fill="black"/>
<circle cx="12" cy="14" r="6.5" stroke="#8C8C8C"/>
<path d="M386.941 13.7227L387.375 9.46875H391.746V10.4707H388.295L388.037 12.7969C388.455 12.5508 388.93 12.4277 389.461 12.4277C390.238 12.4277 390.855 12.6855 391.312 13.2012C391.77 13.7129 391.998 14.4062 391.998 15.2812C391.998 16.1602 391.76 16.8535 391.283 17.3613C390.811 17.8652 390.148 18.1172 389.297 18.1172C388.543 18.1172 387.928 17.9082 387.451 17.4902C386.975 17.0723 386.703 16.4941 386.637 15.7559H387.662C387.729 16.2441 387.902 16.6133 388.184 16.8633C388.465 17.1094 388.836 17.2324 389.297 17.2324C389.801 17.2324 390.195 17.0605 390.48 16.7168C390.77 16.373 390.914 15.8984 390.914 15.293C390.914 14.7227 390.758 14.2656 390.445 13.9219C390.137 13.5742 389.725 13.4004 389.209 13.4004C388.736 13.4004 388.365 13.5039 388.096 13.7109L387.809 13.9453L386.941 13.7227ZM397.758 15.1348H398.941V16.0195H397.758V18H396.668V16.0195H392.783V15.3809L396.604 9.46875H397.758V15.1348ZM394.014 15.1348H396.668V10.9512L396.539 11.1855L394.014 15.1348ZM399.826 11.1094C399.826 10.5977 399.988 10.1758 400.312 9.84375C400.641 9.51172 401.061 9.3457 401.572 9.3457C402.092 9.3457 402.512 9.51367 402.832 9.84961C403.156 10.1816 403.318 10.6133 403.318 11.1445V11.5605C403.318 12.0762 403.154 12.498 402.826 12.8262C402.502 13.1504 402.088 13.3125 401.584 13.3125C401.076 13.3125 400.656 13.1504 400.324 12.8262C399.992 12.498 399.826 12.0625 399.826 11.5195V11.1094ZM400.635 11.5605C400.635 11.8652 400.721 12.1172 400.893 12.3164C401.064 12.5117 401.295 12.6094 401.584 12.6094C401.861 12.6094 402.084 12.5137 402.252 12.3223C402.424 12.1309 402.51 11.8691 402.51 11.5371V11.1094C402.51 10.8047 402.426 10.5527 402.258 10.3535C402.09 10.1543 401.861 10.0547 401.572 10.0547C401.283 10.0547 401.055 10.1543 400.887 10.3535C400.719 10.5527 400.635 10.8125 400.635 11.1328V11.5605ZM403.98 15.9082C403.98 15.3965 404.143 14.9766 404.467 14.6484C404.795 14.3164 405.215 14.1504 405.727 14.1504C406.238 14.1504 406.658 14.3145 406.986 14.6426C407.314 14.9707 407.479 15.4062 407.479 15.9492V16.3652C407.479 16.877 407.314 17.2988 406.986 17.6309C406.662 17.959 406.246 18.123 405.738 18.123C405.23 18.123 404.811 17.9609 404.479 17.6367C404.146 17.3086 403.98 16.873 403.98 16.3301V15.9082ZM404.789 16.3652C404.789 16.6738 404.875 16.9277 405.047 17.127C405.219 17.3223 405.449 17.4199 405.738 17.4199C406.02 17.4199 406.244 17.3242 406.412 17.1328C406.58 16.9375 406.664 16.6738 406.664 16.3418V15.9082C406.664 15.5996 406.578 15.3477 406.406 15.1523C406.238 14.957 406.012 14.8594 405.727 14.8594C405.449 14.8594 405.223 14.957 405.047 15.1523C404.875 15.3438 404.789 15.6035 404.789 15.9316V16.3652ZM401.83 17.3555L401.215 16.9688L405.381 10.3008L405.996 10.6875L401.83 17.3555Z" fill="#698F63"/>
<path d="M431.299 18H425.709V17.2207L428.662 13.9395C429.1 13.4434 429.4 13.041 429.564 12.7324C429.732 12.4199 429.816 12.0977 429.816 11.7656C429.816 11.3203 429.682 10.9551 429.412 10.6699C429.143 10.3848 428.783 10.2422 428.334 10.2422C427.795 10.2422 427.375 10.3965 427.074 10.7051C426.777 11.0098 426.629 11.4355 426.629 11.9824H425.545C425.545 11.1973 425.797 10.5625 426.301 10.0781C426.809 9.59375 427.486 9.35156 428.334 9.35156C429.127 9.35156 429.754 9.56055 430.215 9.97852C430.676 10.3926 430.906 10.9453 430.906 11.6367C430.906 12.4766 430.371 13.4766 429.301 14.6367L427.016 17.1152H431.299V18ZM438.037 18H432.447V17.2207L435.4 13.9395C435.838 13.4434 436.139 13.041 436.303 12.7324C436.471 12.4199 436.555 12.0977 436.555 11.7656C436.555 11.3203 436.42 10.9551 436.15 10.6699C435.881 10.3848 435.521 10.2422 435.072 10.2422C434.533 10.2422 434.113 10.3965 433.812 10.7051C433.516 11.0098 433.367 11.4355 433.367 11.9824H432.283C432.283 11.1973 432.535 10.5625 433.039 10.0781C433.547 9.59375 434.225 9.35156 435.072 9.35156C435.865 9.35156 436.492 9.56055 436.953 9.97852C437.414 10.3926 437.645 10.9453 437.645 11.6367C437.645 12.4766 437.109 13.4766 436.039 14.6367L433.754 17.1152H438.037V18ZM442.748 18H441.658V10.7754L439.473 11.5781V10.5938L442.578 9.42773H442.748V18Z" fill="#696969"/>
<rect y="40" width="35" height="28" rx="4" fill="#F5F5F5"/>
<path d="M35.0625 60H33.5547V54.7422H27.8203V60H26.3203V48.625H27.8203V53.5156H33.5547V48.625H35.0625V60ZM42.7188 60C42.6354 59.8333 42.5677 59.5365 42.5156 59.1094C41.8438 59.8073 41.0417 60.1562 40.1094 60.1562C39.276 60.1562 38.5911 59.9219 38.0547 59.4531C37.5234 58.9792 37.2578 58.3802 37.2578 57.6562C37.2578 56.776 37.5911 56.0938 38.2578 55.6094C38.9297 55.1198 39.8724 54.875 41.0859 54.875H42.4922V54.2109C42.4922 53.7057 42.3411 53.3047 42.0391 53.0078C41.737 52.7057 41.2917 52.5547 40.7031 52.5547C40.1875 52.5547 39.7552 52.6849 39.4062 52.9453C39.0573 53.2057 38.8828 53.5208 38.8828 53.8906H37.4297C37.4297 53.4688 37.5781 53.0625 37.875 52.6719C38.1771 52.276 38.5833 51.9635 39.0938 51.7344C39.6094 51.5052 40.1745 51.3906 40.7891 51.3906C41.763 51.3906 42.526 51.6354 43.0781 52.125C43.6302 52.6094 43.9167 53.2786 43.9375 54.1328V58.0234C43.9375 58.7995 44.0365 59.4167 44.2344 59.875V60H42.7188ZM40.3203 58.8984C40.7734 58.8984 41.2031 58.7812 41.6094 58.5469C42.0156 58.3125 42.3099 58.0078 42.4922 57.6328V55.8984H41.3594C39.5885 55.8984 38.7031 56.4167 38.7031 57.4531C38.7031 57.9062 38.8542 58.2604 39.1562 58.5156C39.4583 58.7708 39.8464 58.8984 40.3203 58.8984ZM53.6875 58.0078L55.3125 51.5469H56.7578L54.2969 60H53.125L51.0703 53.5938L49.0703 60H47.8984L45.4453 51.5469H46.8828L48.5469 57.875L50.5156 51.5469H51.6797L53.6875 58.0078ZM63.4531 60C63.3698 59.8333 63.3021 59.5365 63.25 59.1094C62.5781 59.8073 61.776 60.1562 60.8438 60.1562C60.0104 60.1562 59.3255 59.9219 58.7891 59.4531C58.2578 58.9792 57.9922 58.3802 57.9922 57.6562C57.9922 56.776 58.3255 56.0938 58.9922 55.6094C59.6641 55.1198 60.6068 54.875 61.8203 54.875H63.2266V54.2109C63.2266 53.7057 63.0755 53.3047 62.7734 53.0078C62.4714 52.7057 62.026 52.5547 61.4375 52.5547C60.9219 52.5547 60.4896 52.6849 60.1406 52.9453C59.7917 53.2057 59.6172 53.5208 59.6172 53.8906H58.1641C58.1641 53.4688 58.3125 53.0625 58.6094 52.6719C58.9115 52.276 59.3177 51.9635 59.8281 51.7344C60.3438 51.5052 60.9089 51.3906 61.5234 51.3906C62.4974 51.3906 63.2604 51.6354 63.8125 52.125C64.3646 52.6094 64.651 53.2786 64.6719 54.1328V58.0234C64.6719 58.7995 64.7708 59.4167 64.9688 59.875V60H63.4531ZM61.0547 58.8984C61.5078 58.8984 61.9375 58.7812 62.3438 58.5469C62.75 58.3125 63.0443 58.0078 63.2266 57.6328V55.8984H62.0938C60.3229 55.8984 59.4375 56.4167 59.4375 57.4531C59.4375 57.9062 59.5885 58.2604 59.8906 58.5156C60.1927 58.7708 60.5807 58.8984 61.0547 58.8984ZM68.5078 60H67.0625V51.5469H68.5078V60ZM66.9453 49.3047C66.9453 49.0703 67.0156 48.8724 67.1562 48.7109C67.3021 48.5495 67.5156 48.4688 67.7969 48.4688C68.0781 48.4688 68.2917 48.5495 68.4375 48.7109C68.5833 48.8724 68.6562 49.0703 68.6562 49.3047C68.6562 49.5391 68.5833 49.7344 68.4375 49.8906C68.2917 50.0469 68.0781 50.125 67.7969 50.125C67.5156 50.125 67.3021 50.0469 67.1562 49.8906C67.0156 49.7344 66.9453 49.5391 66.9453 49.3047ZM72.3984 60H70.9531V51.5469H72.3984V60ZM70.8359 49.3047C70.8359 49.0703 70.9062 48.8724 71.0469 48.7109C71.1927 48.5495 71.4062 48.4688 71.6875 48.4688C71.9688 48.4688 72.1823 48.5495 72.3281 48.7109C72.474 48.8724 72.5469 49.0703 72.5469 49.3047C72.5469 49.5391 72.474 49.7344 72.3281 49.8906C72.1823 50.0469 71.9688 50.125 71.6875 50.125C71.4062 50.125 71.1927 50.0469 71.0469 49.8906C70.9062 49.7344 70.8359 49.5391 70.8359 49.3047ZM79.9375 60C79.8542 59.8333 79.7865 59.5365 79.7344 59.1094C79.0625 59.8073 78.2604 60.1562 77.3281 60.1562C76.4948 60.1562 75.8099 59.9219 75.2734 59.4531C74.7422 58.9792 74.4766 58.3802 74.4766 57.6562C74.4766 56.776 74.8099 56.0938 75.4766 55.6094C76.1484 55.1198 77.0911 54.875 78.3047 54.875H79.7109V54.2109C79.7109 53.7057 79.5599 53.3047 79.2578 53.0078C78.9557 52.7057 78.5104 52.5547 77.9219 52.5547C77.4062 52.5547 76.974 52.6849 76.625 52.9453C76.276 53.2057 76.1016 53.5208 76.1016 53.8906H74.6484C74.6484 53.4688 74.7969 53.0625 75.0938 52.6719C75.3958 52.276 75.8021 51.9635 76.3125 51.7344C76.8281 51.5052 77.3932 51.3906 78.0078 51.3906C78.9818 51.3906 79.7448 51.6354 80.2969 52.125C80.849 52.6094 81.1354 53.2786 81.1562 54.1328V58.0234C81.1562 58.7995 81.2552 59.4167 81.4531 59.875V60H79.9375ZM77.5391 58.8984C77.9922 58.8984 78.4219 58.7812 78.8281 58.5469C79.2344 58.3125 79.5286 58.0078 79.7109 57.6328V55.8984H78.5781C76.8073 55.8984 75.9219 56.4167 75.9219 57.4531C75.9219 57.9062 76.0729 58.2604 76.375 58.5156C76.6771 58.7708 77.0651 58.8984 77.5391 58.8984ZM84.7891 51.5469L84.8359 52.6094C85.4818 51.7969 86.3255 51.3906 87.3672 51.3906C89.1536 51.3906 90.0547 52.3984 90.0703 54.4141V60H88.625V54.4062C88.6198 53.7969 88.4792 53.3464 88.2031 53.0547C87.9323 52.763 87.5078 52.6172 86.9297 52.6172C86.4609 52.6172 86.0495 52.7422 85.6953 52.9922C85.3411 53.2422 85.0651 53.5703 84.8672 53.9766V60H83.4219V51.5469H84.7891Z" fill="black"/>
<circle cx="12" cy="54" r="6.5" stroke="#8C8C8C"/>
<path d="M397.436 49.4629V50.3828H397.236C396.393 50.3984 395.721 50.6484 395.221 51.1328C394.721 51.6172 394.432 52.2988 394.354 53.1777C394.803 52.6621 395.416 52.4043 396.193 52.4043C396.936 52.4043 397.527 52.666 397.969 53.1895C398.414 53.7129 398.637 54.3887 398.637 55.2168C398.637 56.0957 398.396 56.7988 397.916 57.3262C397.439 57.8535 396.799 58.1172 395.994 58.1172C395.178 58.1172 394.516 57.8047 394.008 57.1797C393.5 56.5508 393.246 55.7422 393.246 54.7539V54.3379C393.246 52.7676 393.58 51.5684 394.248 50.7402C394.92 49.9082 395.918 49.4824 397.242 49.4629H397.436ZM396.012 53.3066C395.641 53.3066 395.299 53.418 394.986 53.6406C394.674 53.8633 394.457 54.1426 394.336 54.4785V54.877C394.336 55.5801 394.494 56.1465 394.811 56.5762C395.127 57.0059 395.521 57.2207 395.994 57.2207C396.482 57.2207 396.865 57.041 397.143 56.6816C397.424 56.3223 397.564 55.8516 397.564 55.2695C397.564 54.6836 397.422 54.2109 397.137 53.8516C396.855 53.4883 396.48 53.3066 396.012 53.3066ZM399.826 51.1094C399.826 50.5977 399.988 50.1758 400.312 49.8438C400.641 49.5117 401.061 49.3457 401.572 49.3457C402.092 49.3457 402.512 49.5137 402.832 49.8496C403.156 50.1816 403.318 50.6133 403.318 51.1445V51.5605C403.318 52.0762 403.154 52.498 402.826 52.8262C402.502 53.1504 402.088 53.3125 401.584 53.3125C401.076 53.3125 400.656 53.1504 400.324 52.8262C399.992 52.498 399.826 52.0625 399.826 51.5195V51.1094ZM400.635 51.5605C400.635 51.8652 400.721 52.1172 400.893 52.3164C401.064 52.5117 401.295 52.6094 401.584 52.6094C401.861 52.6094 402.084 52.5137 402.252 52.3223C402.424 52.1309 402.51 51.8691 402.51 51.5371V51.1094C402.51 50.8047 402.426 50.5527 402.258 50.3535C402.09 50.1543 401.861 50.0547 401.572 50.0547C401.283 50.0547 401.055 50.1543 400.887 50.3535C400.719 50.5527 400.635 50.8125 400.635 51.1328V51.5605ZM403.98 55.9082C403.98 55.3965 404.143 54.9766 404.467 54.6484C404.795 54.3164 405.215 54.1504 405.727 54.1504C406.238 54.1504 406.658 54.3145 406.986 54.6426C407.314 54.9707 407.479 55.4062 407.479 55.9492V56.3652C407.479 56.877 407.314 57.2988 406.986 57.6309C406.662 57.959 406.246 58.123 405.738 58.123C405.23 58.123 404.811 57.9609 404.479 57.6367C404.146 57.3086 403.98 56.873 403.98 56.3301V55.9082ZM404.789 56.3652C404.789 56.6738 404.875 56.9277 405.047 57.127C405.219 57.3223 405.449 57.4199 405.738 57.4199C406.02 57.4199 406.244 57.3242 406.412 57.1328C406.58 56.9375 406.664 56.6738 406.664 56.3418V55.9082C406.664 55.5996 406.578 55.3477 406.406 55.1523C406.238 54.957 406.012 54.8594 405.727 54.8594C405.449 54.8594 405.223 54.957 405.047 55.1523C404.875 55.3438 404.789 55.6035 404.789 55.9316V56.3652ZM401.83 57.3555L401.215 56.9688L405.381 50.3008L405.996 50.6875L401.83 57.3555Z" fill="#696969"/>
<path d="M431.299 58H425.709V57.2207L428.662 53.9395C429.1 53.4434 429.4 53.041 429.564 52.7324C429.732 52.4199 429.816 52.0977 429.816 51.7656C429.816 51.3203 429.682 50.9551 429.412 50.6699C429.143 50.3848 428.783 50.2422 428.334 50.2422C427.795 50.2422 427.375 50.3965 427.074 50.7051C426.777 51.0098 426.629 51.4355 426.629 51.9824H425.545C425.545 51.1973 425.797 50.5625 426.301 50.0781C426.809 49.5938 427.486 49.3516 428.334 49.3516C429.127 49.3516 429.754 49.5605 430.215 49.9785C430.676 50.3926 430.906 50.9453 430.906 51.6367C430.906 52.4766 430.371 53.4766 429.301 54.6367L427.016 57.1152H431.299V58ZM432.945 53.7227L433.379 49.4688H437.75V50.4707H434.299L434.041 52.7969C434.459 52.5508 434.934 52.4277 435.465 52.4277C436.242 52.4277 436.859 52.6855 437.316 53.2012C437.773 53.7129 438.002 54.4062 438.002 55.2812C438.002 56.1602 437.764 56.8535 437.287 57.3613C436.814 57.8652 436.152 58.1172 435.301 58.1172C434.547 58.1172 433.932 57.9082 433.455 57.4902C432.979 57.0723 432.707 56.4941 432.641 55.7559H433.666C433.732 56.2441 433.906 56.6133 434.188 56.8633C434.469 57.1094 434.84 57.2324 435.301 57.2324C435.805 57.2324 436.199 57.0605 436.484 56.7168C436.773 56.373 436.918 55.8984 436.918 55.293C436.918 54.7227 436.762 54.2656 436.449 53.9219C436.141 53.5742 435.729 53.4004 435.213 53.4004C434.74 53.4004 434.369 53.5039 434.1 53.7109L433.812 53.9453L432.945 53.7227Z" fill="#696969"/>
<rect y="80" width="223" height="28" rx="4" fill="#F5F5F5"/>
<path d="M34.6875 96.3906C34.5469 97.5938 34.1016 98.5234 33.3516 99.1797C32.6068 99.8307 31.6146 100.156 30.375 100.156C29.0312 100.156 27.9531 99.6745 27.1406 98.7109C26.3333 97.7474 25.9297 96.4583 25.9297 94.8438V93.75C25.9297 92.6927 26.1172 91.763 26.4922 90.9609C26.8724 90.1589 27.4089 89.5443 28.1016 89.1172C28.7943 88.6849 29.5964 88.4688 30.5078 88.4688C31.7161 88.4688 32.6849 88.8073 33.4141 89.4844C34.1432 90.1562 34.5677 91.0885 34.6875 92.2812H33.1797C33.0495 91.375 32.7656 90.7188 32.3281 90.3125C31.8958 89.9062 31.2891 89.7031 30.5078 89.7031C29.5495 89.7031 28.7969 90.0573 28.25 90.7656C27.7083 91.474 27.4375 92.4818 27.4375 93.7891V94.8906C27.4375 96.125 27.6953 97.1068 28.2109 97.8359C28.7266 98.5651 29.4479 98.9297 30.375 98.9297C31.2083 98.9297 31.8464 98.7422 32.2891 98.3672C32.737 97.987 33.0339 97.3281 33.1797 96.3906H34.6875ZM37.9609 92.5703C38.6016 91.7839 39.4349 91.3906 40.4609 91.3906C42.2474 91.3906 43.1484 92.3984 43.1641 94.4141V100H41.7188V94.4062C41.7135 93.7969 41.5729 93.3464 41.2969 93.0547C41.026 92.763 40.6016 92.6172 40.0234 92.6172C39.5547 92.6172 39.1432 92.7422 38.7891 92.9922C38.4349 93.2422 38.1589 93.5703 37.9609 93.9766V100H36.5156V88H37.9609V92.5703ZM48.8359 100.156C47.6901 100.156 46.7578 99.7812 46.0391 99.0312C45.3203 98.276 44.9609 97.2682 44.9609 96.0078V95.7422C44.9609 94.9036 45.1198 94.1562 45.4375 93.5C45.7604 92.8385 46.2083 92.3229 46.7812 91.9531C47.3594 91.5781 47.9844 91.3906 48.6562 91.3906C49.7552 91.3906 50.6094 91.7526 51.2188 92.4766C51.8281 93.2005 52.1328 94.237 52.1328 95.5859V96.1875H46.4062C46.4271 97.0208 46.6693 97.6953 47.1328 98.2109C47.6016 98.7214 48.1953 98.9766 48.9141 98.9766C49.4245 98.9766 49.8568 98.8724 50.2109 98.6641C50.5651 98.4557 50.875 98.1797 51.1406 97.8359L52.0234 98.5234C51.3151 99.612 50.2526 100.156 48.8359 100.156ZM48.6562 92.5781C48.0729 92.5781 47.5833 92.7917 47.1875 93.2188C46.7917 93.6406 46.5469 94.2344 46.4531 95H50.6875V94.8906C50.6458 94.1562 50.4479 93.5885 50.0938 93.1875C49.7396 92.7812 49.2604 92.5781 48.6562 92.5781ZM57.3203 100.156C56.1745 100.156 55.2422 99.7812 54.5234 99.0312C53.8047 98.276 53.4453 97.2682 53.4453 96.0078V95.7422C53.4453 94.9036 53.6042 94.1562 53.9219 93.5C54.2448 92.8385 54.6927 92.3229 55.2656 91.9531C55.8438 91.5781 56.4688 91.3906 57.1406 91.3906C58.2396 91.3906 59.0938 91.7526 59.7031 92.4766C60.3125 93.2005 60.6172 94.237 60.6172 95.5859V96.1875H54.8906C54.9115 97.0208 55.1536 97.6953 55.6172 98.2109C56.0859 98.7214 56.6797 98.9766 57.3984 98.9766C57.9089 98.9766 58.3411 98.8724 58.6953 98.6641C59.0495 98.4557 59.3594 98.1797 59.625 97.8359L60.5078 98.5234C59.7995 99.612 58.737 100.156 57.3203 100.156ZM57.1406 92.5781C56.5573 92.5781 56.0677 92.7917 55.6719 93.2188C55.276 93.6406 55.0312 94.2344 54.9375 95H59.1719V94.8906C59.1302 94.1562 58.9323 93.5885 58.5781 93.1875C58.224 92.7812 57.7448 92.5781 57.1406 92.5781ZM67.2188 97.7578C67.2188 97.3672 67.0703 97.0651 66.7734 96.8516C66.4818 96.6328 65.9688 96.4453 65.2344 96.2891C64.5052 96.1328 63.9245 95.9453 63.4922 95.7266C63.0651 95.5078 62.7474 95.2474 62.5391 94.9453C62.3359 94.6432 62.2344 94.2839 62.2344 93.8672C62.2344 93.1745 62.526 92.5885 63.1094 92.1094C63.6979 91.6302 64.4479 91.3906 65.3594 91.3906C66.3177 91.3906 67.0938 91.638 67.6875 92.1328C68.2865 92.6276 68.5859 93.2604 68.5859 94.0312H67.1328C67.1328 93.6354 66.9635 93.2943 66.625 93.0078C66.2917 92.7214 65.8698 92.5781 65.3594 92.5781C64.8333 92.5781 64.4219 92.6927 64.125 92.9219C63.8281 93.151 63.6797 93.4505 63.6797 93.8203C63.6797 94.1693 63.8177 94.4323 64.0938 94.6094C64.3698 94.7865 64.8672 94.9557 65.5859 95.1172C66.3099 95.2786 66.8958 95.4714 67.3438 95.6953C67.7917 95.9193 68.1224 96.1901 68.3359 96.5078C68.5547 96.8203 68.6641 97.2031 68.6641 97.6562C68.6641 98.4115 68.362 99.0182 67.7578 99.4766C67.1536 99.9297 66.3698 100.156 65.4062 100.156C64.7292 100.156 64.1302 100.036 63.6094 99.7969C63.0885 99.5573 62.6797 99.224 62.3828 98.7969C62.0911 98.3646 61.9453 97.8984 61.9453 97.3984H63.3906C63.4167 97.8828 63.6094 98.2682 63.9688 98.5547C64.3333 98.8359 64.8125 98.9766 65.4062 98.9766C65.9531 98.9766 66.3906 98.8672 66.7188 98.6484C67.0521 98.4245 67.2188 98.1276 67.2188 97.7578ZM74.0547 100.156C72.9089 100.156 71.9766 99.7812 71.2578 99.0312C70.5391 98.276 70.1797 97.2682 70.1797 96.0078V95.7422C70.1797 94.9036 70.3385 94.1562 70.6562 93.5C70.9792 92.8385 71.4271 92.3229 72 91.9531C72.5781 91.5781 73.2031 91.3906 73.875 91.3906C74.974 91.3906 75.8281 91.7526 76.4375 92.4766C77.0469 93.2005 77.3516 94.237 77.3516 95.5859V96.1875H71.625C71.6458 97.0208 71.888 97.6953 72.3516 98.2109C72.8203 98.7214 73.4141 98.9766 74.1328 98.9766C74.6432 98.9766 75.0755 98.8724 75.4297 98.6641C75.7839 98.4557 76.0938 98.1797 76.3594 97.8359L77.2422 98.5234C76.5339 99.612 75.4714 100.156 74.0547 100.156ZM73.875 92.5781C73.2917 92.5781 72.8021 92.7917 72.4062 93.2188C72.0104 93.6406 71.7656 94.2344 71.6719 95H75.9062V94.8906C75.8646 94.1562 75.6667 93.5885 75.3125 93.1875C74.9583 92.7812 74.4792 92.5781 73.875 92.5781Z" fill="black"/>
<circle cx="12" cy="94" r="6.5" stroke="#8C8C8C"/>
<path d="M391.299 98H385.709V97.2207L388.662 93.9395C389.1 93.4434 389.4 93.041 389.564 92.7324C389.732 92.4199 389.816 92.0977 389.816 91.7656C389.816 91.3203 389.682 90.9551 389.412 90.6699C389.143 90.3848 388.783 90.2422 388.334 90.2422C387.795 90.2422 387.375 90.3965 387.074 90.7051C386.777 91.0098 386.629 91.4355 386.629 91.9824H385.545C385.545 91.1973 385.797 90.5625 386.301 90.0781C386.809 89.5938 387.486 89.3516 388.334 89.3516C389.127 89.3516 389.754 89.5605 390.215 89.9785C390.676 90.3926 390.906 90.9453 390.906 91.6367C390.906 92.4766 390.371 93.4766 389.301 94.6367L387.016 97.1152H391.299V98ZM396.701 89.4629V90.3828H396.502C395.658 90.3984 394.986 90.6484 394.486 91.1328C393.986 91.6172 393.697 92.2988 393.619 93.1777C394.068 92.6621 394.682 92.4043 395.459 92.4043C396.201 92.4043 396.793 92.666 397.234 93.1895C397.68 93.7129 397.902 94.3887 397.902 95.2168C397.902 96.0957 397.662 96.7988 397.182 97.3262C396.705 97.8535 396.064 98.1172 395.26 98.1172C394.443 98.1172 393.781 97.8047 393.273 97.1797C392.766 96.5508 392.512 95.7422 392.512 94.7539V94.3379C392.512 92.7676 392.846 91.5684 393.514 90.7402C394.186 89.9082 395.184 89.4824 396.508 89.4629H396.701ZM395.277 93.3066C394.906 93.3066 394.564 93.418 394.252 93.6406C393.939 93.8633 393.723 94.1426 393.602 94.4785V94.877C393.602 95.5801 393.76 96.1465 394.076 96.5762C394.393 97.0059 394.787 97.2207 395.26 97.2207C395.748 97.2207 396.131 97.041 396.408 96.6816C396.689 96.3223 396.83 95.8516 396.83 95.2695C396.83 94.6836 396.688 94.2109 396.402 93.8516C396.121 93.4883 395.746 93.3066 395.277 93.3066ZM399.092 91.1094C399.092 90.5977 399.254 90.1758 399.578 89.8438C399.906 89.5117 400.326 89.3457 400.838 89.3457C401.357 89.3457 401.777 89.5137 402.098 89.8496C402.422 90.1816 402.584 90.6133 402.584 91.1445V91.5605C402.584 92.0762 402.42 92.498 402.092 92.8262C401.768 93.1504 401.354 93.3125 400.85 93.3125C400.342 93.3125 399.922 93.1504 399.59 92.8262C399.258 92.498 399.092 92.0625 399.092 91.5195V91.1094ZM399.9 91.5605C399.9 91.8652 399.986 92.1172 400.158 92.3164C400.33 92.5117 400.561 92.6094 400.85 92.6094C401.127 92.6094 401.35 92.5137 401.518 92.3223C401.689 92.1309 401.775 91.8691 401.775 91.5371V91.1094C401.775 90.8047 401.691 90.5527 401.523 90.3535C401.355 90.1543 401.127 90.0547 400.838 90.0547C400.549 90.0547 400.32 90.1543 400.152 90.3535C399.984 90.5527 399.9 90.8125 399.9 91.1328V91.5605ZM403.246 95.9082C403.246 95.3965 403.408 94.9766 403.732 94.6484C404.061 94.3164 404.48 94.1504 404.992 94.1504C405.504 94.1504 405.924 94.3145 406.252 94.6426C406.58 94.9707 406.744 95.4062 406.744 95.9492V96.3652C406.744 96.877 406.58 97.2988 406.252 97.6309C405.928 97.959 405.512 98.123 405.004 98.123C404.496 98.123 404.076 97.9609 403.744 97.6367C403.412 97.3086 403.246 96.873 403.246 96.3301V95.9082ZM404.055 96.3652C404.055 96.6738 404.141 96.9277 404.312 97.127C404.484 97.3223 404.715 97.4199 405.004 97.4199C405.285 97.4199 405.51 97.3242 405.678 97.1328C405.846 96.9375 405.93 96.6738 405.93 96.3418V95.9082C405.93 95.5996 405.844 95.3477 405.672 95.1523C405.504 94.957 405.277 94.8594 404.992 94.8594C404.715 94.8594 404.488 94.957 404.312 95.1523C404.141 95.3438 404.055 95.6035 404.055 95.9316V96.3652ZM401.096 97.3555L400.48 96.9688L404.646 90.3008L405.262 90.6875L401.096 97.3555Z" fill="#696969"/>
<path d="M429.271 98H428.182V90.7754L425.996 91.5781V90.5938L429.102 89.4277H429.271V98ZM437.797 94.3613C437.797 95.6309 437.58 96.5742 437.146 97.1914C436.713 97.8086 436.035 98.1172 435.113 98.1172C434.203 98.1172 433.529 97.8164 433.092 97.2148C432.654 96.6094 432.428 95.707 432.412 94.5078V93.0605C432.412 91.8066 432.629 90.875 433.062 90.2656C433.496 89.6562 434.176 89.3516 435.102 89.3516C436.02 89.3516 436.695 89.6465 437.129 90.2363C437.562 90.8223 437.785 91.7285 437.797 92.9551V94.3613ZM436.713 92.8789C436.713 91.9609 436.584 91.293 436.326 90.875C436.068 90.4531 435.66 90.2422 435.102 90.2422C434.547 90.2422 434.143 90.4512 433.889 90.8691C433.635 91.2871 433.504 91.9297 433.496 92.7969V94.5312C433.496 95.4531 433.629 96.1348 433.895 96.5762C434.164 97.0137 434.57 97.2324 435.113 97.2324C435.648 97.2324 436.045 97.0254 436.303 96.6113C436.564 96.1973 436.701 95.5449 436.713 94.6543V92.8789ZM444.693 90.0781L441.16 98H440.023L443.545 90.3594H438.928V89.4688H444.693V90.0781Z" fill="#696969"/>
<rect y="120" width="202" height="28" rx="4" fill="#F5F5F5"/>
<path d="M29.6719 134.93C28.3854 134.56 27.4479 134.107 26.8594 133.57C26.276 133.029 25.9844 132.362 25.9844 131.57C25.9844 130.674 26.3411 129.935 27.0547 129.352C27.7734 128.763 28.7057 128.469 29.8516 128.469C30.6328 128.469 31.3281 128.62 31.9375 128.922C32.5521 129.224 33.026 129.641 33.3594 130.172C33.6979 130.703 33.8672 131.284 33.8672 131.914H32.3594C32.3594 131.227 32.1406 130.688 31.7031 130.297C31.2656 129.901 30.6484 129.703 29.8516 129.703C29.112 129.703 28.5339 129.867 28.1172 130.195C27.7057 130.518 27.5 130.969 27.5 131.547C27.5 132.01 27.6953 132.404 28.0859 132.727C28.4818 133.044 29.151 133.336 30.0938 133.602C31.0417 133.867 31.7812 134.161 32.3125 134.484C32.849 134.802 33.2448 135.174 33.5 135.602C33.7604 136.029 33.8906 136.531 33.8906 137.109C33.8906 138.031 33.5312 138.771 32.8125 139.328C32.0938 139.88 31.1328 140.156 29.9297 140.156C29.1484 140.156 28.4193 140.008 27.7422 139.711C27.0651 139.409 26.5417 138.997 26.1719 138.477C25.8073 137.956 25.625 137.365 25.625 136.703H27.1328C27.1328 137.391 27.3854 137.935 27.8906 138.336C28.401 138.732 29.0807 138.93 29.9297 138.93C30.7214 138.93 31.3281 138.768 31.75 138.445C32.1719 138.122 32.3828 137.682 32.3828 137.125C32.3828 136.568 32.1875 136.138 31.7969 135.836C31.4062 135.529 30.6979 135.227 29.6719 134.93ZM40.8125 140C40.7292 139.833 40.6615 139.536 40.6094 139.109C39.9375 139.807 39.1354 140.156 38.2031 140.156C37.3698 140.156 36.6849 139.922 36.1484 139.453C35.6172 138.979 35.3516 138.38 35.3516 137.656C35.3516 136.776 35.6849 136.094 36.3516 135.609C37.0234 135.12 37.9661 134.875 39.1797 134.875H40.5859V134.211C40.5859 133.706 40.4349 133.305 40.1328 133.008C39.8307 132.706 39.3854 132.555 38.7969 132.555C38.2812 132.555 37.849 132.685 37.5 132.945C37.151 133.206 36.9766 133.521 36.9766 133.891H35.5234C35.5234 133.469 35.6719 133.062 35.9688 132.672C36.2708 132.276 36.6771 131.964 37.1875 131.734C37.7031 131.505 38.2682 131.391 38.8828 131.391C39.8568 131.391 40.6198 131.635 41.1719 132.125C41.724 132.609 42.0104 133.279 42.0312 134.133V138.023C42.0312 138.799 42.1302 139.417 42.3281 139.875V140H40.8125ZM38.4141 138.898C38.8672 138.898 39.2969 138.781 39.7031 138.547C40.1094 138.312 40.4036 138.008 40.5859 137.633V135.898H39.4531C37.6823 135.898 36.7969 136.417 36.7969 137.453C36.7969 137.906 36.9479 138.26 37.25 138.516C37.5521 138.771 37.9401 138.898 38.4141 138.898ZM49.5156 139.164C48.9531 139.826 48.1276 140.156 47.0391 140.156C46.138 140.156 45.4505 139.896 44.9766 139.375C44.5078 138.849 44.2708 138.073 44.2656 137.047V131.547H45.7109V137.008C45.7109 138.289 46.2318 138.93 47.2734 138.93C48.3776 138.93 49.112 138.518 49.4766 137.695V131.547H50.9219V140H49.5469L49.5156 139.164ZM58.0469 137.758C58.0469 137.367 57.8984 137.065 57.6016 136.852C57.3099 136.633 56.7969 136.445 56.0625 136.289C55.3333 136.133 54.7526 135.945 54.3203 135.727C53.8932 135.508 53.5755 135.247 53.3672 134.945C53.1641 134.643 53.0625 134.284 53.0625 133.867C53.0625 133.174 53.3542 132.589 53.9375 132.109C54.526 131.63 55.276 131.391 56.1875 131.391C57.1458 131.391 57.9219 131.638 58.5156 132.133C59.1146 132.628 59.4141 133.26 59.4141 134.031H57.9609C57.9609 133.635 57.7917 133.294 57.4531 133.008C57.1198 132.721 56.6979 132.578 56.1875 132.578C55.6615 132.578 55.25 132.693 54.9531 132.922C54.6562 133.151 54.5078 133.451 54.5078 133.82C54.5078 134.169 54.6458 134.432 54.9219 134.609C55.1979 134.786 55.6953 134.956 56.4141 135.117C57.138 135.279 57.724 135.471 58.1719 135.695C58.6198 135.919 58.9505 136.19 59.1641 136.508C59.3828 136.82 59.4922 137.203 59.4922 137.656C59.4922 138.411 59.1901 139.018 58.5859 139.477C57.9818 139.93 57.1979 140.156 56.2344 140.156C55.5573 140.156 54.9583 140.036 54.4375 139.797C53.9167 139.557 53.5078 139.224 53.2109 138.797C52.9193 138.365 52.7734 137.898 52.7734 137.398H54.2188C54.2448 137.883 54.4375 138.268 54.7969 138.555C55.1615 138.836 55.6406 138.977 56.2344 138.977C56.7812 138.977 57.2188 138.867 57.5469 138.648C57.8802 138.424 58.0469 138.128 58.0469 137.758ZM66.5938 140C66.5104 139.833 66.4427 139.536 66.3906 139.109C65.7188 139.807 64.9167 140.156 63.9844 140.156C63.151 140.156 62.4661 139.922 61.9297 139.453C61.3984 138.979 61.1328 138.38 61.1328 137.656C61.1328 136.776 61.4661 136.094 62.1328 135.609C62.8047 135.12 63.7474 134.875 64.9609 134.875H66.3672V134.211C66.3672 133.706 66.2161 133.305 65.9141 133.008C65.612 132.706 65.1667 132.555 64.5781 132.555C64.0625 132.555 63.6302 132.685 63.2812 132.945C62.9323 133.206 62.7578 133.521 62.7578 133.891H61.3047C61.3047 133.469 61.4531 133.062 61.75 132.672C62.0521 132.276 62.4583 131.964 62.9688 131.734C63.4844 131.505 64.0495 131.391 64.6641 131.391C65.638 131.391 66.401 131.635 66.9531 132.125C67.5052 132.609 67.7917 133.279 67.8125 134.133V138.023C67.8125 138.799 67.9115 139.417 68.1094 139.875V140H66.5938ZM64.1953 138.898C64.6484 138.898 65.0781 138.781 65.4844 138.547C65.8906 138.312 66.1849 138.008 66.3672 137.633V135.898H65.2344C63.4635 135.898 62.5781 136.417 62.5781 137.453C62.5781 137.906 62.7292 138.26 63.0312 138.516C63.3333 138.771 63.7214 138.898 64.1953 138.898ZM69.7344 135.703C69.7344 134.385 70.0391 133.339 70.6484 132.562C71.2578 131.781 72.0651 131.391 73.0703 131.391C74.1016 131.391 74.9062 131.755 75.4844 132.484L75.5547 131.547H76.875V139.797C76.875 140.891 76.5495 141.753 75.8984 142.383C75.2526 143.013 74.3828 143.328 73.2891 143.328C72.6797 143.328 72.0833 143.198 71.5 142.938C70.9167 142.677 70.4714 142.32 70.1641 141.867L70.9141 141C71.5339 141.766 72.2917 142.148 73.1875 142.148C73.8906 142.148 74.4375 141.951 74.8281 141.555C75.224 141.159 75.4219 140.602 75.4219 139.883V139.156C74.8438 139.823 74.0547 140.156 73.0547 140.156C72.0651 140.156 71.263 139.758 70.6484 138.961C70.0391 138.164 69.7344 137.078 69.7344 135.703ZM71.1875 135.867C71.1875 136.82 71.3828 137.57 71.7734 138.117C72.1641 138.659 72.7109 138.93 73.4141 138.93C74.3255 138.93 74.9948 138.516 75.4219 137.688V133.828C74.9792 133.021 74.3151 132.617 73.4297 132.617C72.7266 132.617 72.1771 132.891 71.7812 133.438C71.3854 133.984 71.1875 134.794 71.1875 135.867ZM82.5703 140.156C81.4245 140.156 80.4922 139.781 79.7734 139.031C79.0547 138.276 78.6953 137.268 78.6953 136.008V135.742C78.6953 134.904 78.8542 134.156 79.1719 133.5C79.4948 132.839 79.9427 132.323 80.5156 131.953C81.0938 131.578 81.7188 131.391 82.3906 131.391C83.4896 131.391 84.3438 131.753 84.9531 132.477C85.5625 133.201 85.8672 134.237 85.8672 135.586V136.188H80.1406C80.1615 137.021 80.4036 137.695 80.8672 138.211C81.3359 138.721 81.9297 138.977 82.6484 138.977C83.1589 138.977 83.5911 138.872 83.9453 138.664C84.2995 138.456 84.6094 138.18 84.875 137.836L85.7578 138.523C85.0495 139.612 83.987 140.156 82.5703 140.156ZM82.3906 132.578C81.8073 132.578 81.3177 132.792 80.9219 133.219C80.526 133.641 80.2812 134.234 80.1875 135H84.4219V134.891C84.3802 134.156 84.1823 133.589 83.8281 133.188C83.474 132.781 82.9948 132.578 82.3906 132.578Z" fill="black"/>
<circle cx="12" cy="134" r="6.5" stroke="#8C8C8C"/>
<path d="M392.033 138H386.443V137.221L389.396 133.939C389.834 133.443 390.135 133.041 390.299 132.732C390.467 132.42 390.551 132.098 390.551 131.766C390.551 131.32 390.416 130.955 390.146 130.67C389.877 130.385 389.518 130.242 389.068 130.242C388.529 130.242 388.109 130.396 387.809 130.705C387.512 131.01 387.363 131.436 387.363 131.982H386.279C386.279 131.197 386.531 130.562 387.035 130.078C387.543 129.594 388.221 129.352 389.068 129.352C389.861 129.352 390.488 129.561 390.949 129.979C391.41 130.393 391.641 130.945 391.641 131.637C391.641 132.477 391.105 133.477 390.035 134.637L387.75 137.115H392.033V138ZM398.771 138H393.182V137.221L396.135 133.939C396.572 133.443 396.873 133.041 397.037 132.732C397.205 132.42 397.289 132.098 397.289 131.766C397.289 131.32 397.154 130.955 396.885 130.67C396.615 130.385 396.256 130.242 395.807 130.242C395.268 130.242 394.848 130.396 394.547 130.705C394.25 131.01 394.102 131.436 394.102 131.982H393.018C393.018 131.197 393.27 130.562 393.773 130.078C394.281 129.594 394.959 129.352 395.807 129.352C396.6 129.352 397.227 129.561 397.688 129.979C398.148 130.393 398.379 130.945 398.379 131.637C398.379 132.477 397.844 133.477 396.773 134.637L394.488 137.115H398.771V138ZM399.826 131.109C399.826 130.598 399.988 130.176 400.312 129.844C400.641 129.512 401.061 129.346 401.572 129.346C402.092 129.346 402.512 129.514 402.832 129.85C403.156 130.182 403.318 130.613 403.318 131.145V131.561C403.318 132.076 403.154 132.498 402.826 132.826C402.502 133.15 402.088 133.312 401.584 133.312C401.076 133.312 400.656 133.15 400.324 132.826C399.992 132.498 399.826 132.062 399.826 131.52V131.109ZM400.635 131.561C400.635 131.865 400.721 132.117 400.893 132.316C401.064 132.512 401.295 132.609 401.584 132.609C401.861 132.609 402.084 132.514 402.252 132.322C402.424 132.131 402.51 131.869 402.51 131.537V131.109C402.51 130.805 402.426 130.553 402.258 130.354C402.09 130.154 401.861 130.055 401.572 130.055C401.283 130.055 401.055 130.154 400.887 130.354C400.719 130.553 400.635 130.812 400.635 131.133V131.561ZM403.98 135.908C403.98 135.396 404.143 134.977 404.467 134.648C404.795 134.316 405.215 134.15 405.727 134.15C406.238 134.15 406.658 134.314 406.986 134.643C407.314 134.971 407.479 135.406 407.479 135.949V136.365C407.479 136.877 407.314 137.299 406.986 137.631C406.662 137.959 406.246 138.123 405.738 138.123C405.23 138.123 404.811 137.961 404.479 137.637C404.146 137.309 403.98 136.873 403.98 136.33V135.908ZM404.789 136.365C404.789 136.674 404.875 136.928 405.047 137.127C405.219 137.322 405.449 137.42 405.738 137.42C406.02 137.42 406.244 137.324 406.412 137.133C406.58 136.938 406.664 136.674 406.664 136.342V135.908C406.664 135.6 406.578 135.348 406.406 135.152C406.238 134.957 406.012 134.859 405.727 134.859C405.449 134.859 405.223 134.957 405.047 135.152C404.875 135.344 404.789 135.604 404.789 135.932V136.365ZM401.83 137.355L401.215 136.969L405.381 130.301L405.996 130.688L401.83 137.355Z" fill="#696969"/>
<path d="M429.863 134.25C429.637 134.52 429.365 134.736 429.049 134.9C428.736 135.064 428.393 135.146 428.018 135.146C427.525 135.146 427.096 135.025 426.729 134.783C426.365 134.541 426.084 134.201 425.885 133.764C425.686 133.322 425.586 132.836 425.586 132.305C425.586 131.734 425.693 131.221 425.908 130.764C426.127 130.307 426.436 129.957 426.834 129.715C427.232 129.473 427.697 129.352 428.229 129.352C429.072 129.352 429.736 129.668 430.221 130.301C430.709 130.93 430.953 131.789 430.953 132.879V133.195C430.953 134.855 430.625 136.068 429.969 136.834C429.312 137.596 428.322 137.986 426.998 138.006H426.787V137.092H427.016C427.91 137.076 428.598 136.844 429.078 136.395C429.559 135.941 429.82 135.227 429.863 134.25ZM428.193 134.25C428.557 134.25 428.891 134.139 429.195 133.916C429.504 133.693 429.729 133.418 429.869 133.09V132.656C429.869 131.945 429.715 131.367 429.406 130.922C429.098 130.477 428.707 130.254 428.234 130.254C427.758 130.254 427.375 130.438 427.086 130.805C426.797 131.168 426.652 131.648 426.652 132.246C426.652 132.828 426.791 133.309 427.068 133.688C427.35 134.062 427.725 134.25 428.193 134.25ZM437.797 134.361C437.797 135.631 437.58 136.574 437.146 137.191C436.713 137.809 436.035 138.117 435.113 138.117C434.203 138.117 433.529 137.816 433.092 137.215C432.654 136.609 432.428 135.707 432.412 134.508V133.061C432.412 131.807 432.629 130.875 433.062 130.266C433.496 129.656 434.176 129.352 435.102 129.352C436.02 129.352 436.695 129.646 437.129 130.236C437.562 130.822 437.785 131.729 437.797 132.955V134.361ZM436.713 132.879C436.713 131.961 436.584 131.293 436.326 130.875C436.068 130.453 435.66 130.242 435.102 130.242C434.547 130.242 434.143 130.451 433.889 130.869C433.635 131.287 433.504 131.93 433.496 132.797V134.531C433.496 135.453 433.629 136.135 433.895 136.576C434.164 137.014 434.57 137.232 435.113 137.232C435.648 137.232 436.045 137.025 436.303 136.611C436.564 136.197 436.701 135.545 436.713 134.654V132.879Z" fill="#696969"/>
</svg>
