<svg width="439" height="228" viewBox="0 0 439 228" fill="none" xmlns="http://www.w3.org/2000/svg">
<rect y="80" width="417" height="28" rx="4" fill="#BCFFB1"/>
<path d="M27.8281 98.7734H33.2188V100H26.3203V88.625H27.8281V98.7734ZM38.2109 100.156C37.0651 100.156 36.1328 99.7812 35.4141 99.0312C34.6953 98.276 34.3359 97.2682 34.3359 96.0078V95.7422C34.3359 94.9036 34.4948 94.1562 34.8125 93.5C35.1354 92.8385 35.5833 92.3229 36.1562 91.9531C36.7344 91.5781 37.3594 91.3906 38.0312 91.3906C39.1302 91.3906 39.9844 91.7526 40.5938 92.4766C41.2031 93.2005 41.5078 94.237 41.5078 95.5859V96.1875H35.7812C35.8021 97.0208 36.0443 97.6953 36.5078 98.2109C36.9766 98.7214 37.5703 98.9766 38.2891 98.9766C38.7995 98.9766 39.2318 98.8724 39.5859 98.6641C39.9401 98.4557 40.25 98.1797 40.5156 97.8359L41.3984 98.5234C40.6901 99.612 39.6276 100.156 38.2109 100.156ZM38.0312 92.5781C37.4479 92.5781 36.9583 92.7917 36.5625 93.2188C36.1667 93.6406 35.9219 94.2344 35.8281 95H40.0625V94.8906C40.0208 94.1562 39.8229 93.5885 39.4688 93.1875C39.1146 92.7812 38.6354 92.5781 38.0312 92.5781ZM44.5469 91.5469L44.5859 92.4844C45.2057 91.7552 46.0417 91.3906 47.0938 91.3906C48.276 91.3906 49.0807 91.8438 49.5078 92.75C49.7891 92.3438 50.1536 92.0156 50.6016 91.7656C51.0547 91.5156 51.5885 91.3906 52.2031 91.3906C54.0573 91.3906 55 92.3724 55.0312 94.3359V100H53.5859V94.4219C53.5859 93.8177 53.4479 93.3672 53.1719 93.0703C52.8958 92.7682 52.4323 92.6172 51.7812 92.6172C51.2448 92.6172 50.7995 92.7786 50.4453 93.1016C50.0911 93.4193 49.8854 93.849 49.8281 94.3906V100H48.375V94.4609C48.375 93.2318 47.7734 92.6172 46.5703 92.6172C45.6224 92.6172 44.974 93.0208 44.625 93.8281V100H43.1797V91.5469H44.5469ZM56.8359 95.6953C56.8359 94.8672 56.9974 94.1224 57.3203 93.4609C57.6484 92.7995 58.1016 92.2891 58.6797 91.9297C59.263 91.5703 59.9271 91.3906 60.6719 91.3906C61.8229 91.3906 62.7526 91.7891 63.4609 92.5859C64.1745 93.3828 64.5312 94.4427 64.5312 95.7656V95.8672C64.5312 96.6901 64.3724 97.4297 64.0547 98.0859C63.7422 98.737 63.2917 99.2448 62.7031 99.6094C62.1198 99.974 61.4479 100.156 60.6875 100.156C59.5417 100.156 58.612 99.7578 57.8984 98.9609C57.1901 98.1641 56.8359 97.1094 56.8359 95.7969V95.6953ZM58.2891 95.8672C58.2891 96.8047 58.5052 97.5573 58.9375 98.125C59.375 98.6927 59.9583 98.9766 60.6875 98.9766C61.4219 98.9766 62.0052 98.6901 62.4375 98.1172C62.8698 97.5391 63.0859 96.7318 63.0859 95.6953C63.0859 94.7682 62.8646 94.0182 62.4219 93.4453C61.9844 92.8672 61.401 92.5781 60.6719 92.5781C59.9583 92.5781 59.3828 92.862 58.9453 93.4297C58.5078 93.9974 58.2891 94.8099 58.2891 95.8672ZM67.7109 91.5469L67.7578 92.6094C68.4036 91.7969 69.2474 91.3906 70.2891 91.3906C72.0755 91.3906 72.9766 92.3984 72.9922 94.4141V100H71.5469V94.4062C71.5417 93.7969 71.401 93.3464 71.125 93.0547C70.8542 92.763 70.4297 92.6172 69.8516 92.6172C69.3828 92.6172 68.9714 92.7422 68.6172 92.9922C68.263 93.2422 67.987 93.5703 67.7891 93.9766V100H66.3438V91.5469H67.7109ZM80.3906 100C80.3073 99.8333 80.2396 99.5365 80.1875 99.1094C79.5156 99.8073 78.7135 100.156 77.7812 100.156C76.9479 100.156 76.263 99.9219 75.7266 99.4531C75.1953 98.9792 74.9297 98.3802 74.9297 97.6562C74.9297 96.776 75.263 96.0938 75.9297 95.6094C76.6016 95.1198 77.5443 94.875 78.7578 94.875H80.1641V94.2109C80.1641 93.7057 80.013 93.3047 79.7109 93.0078C79.4089 92.7057 78.9635 92.5547 78.375 92.5547C77.8594 92.5547 77.4271 92.6849 77.0781 92.9453C76.7292 93.2057 76.5547 93.5208 76.5547 93.8906H75.1016C75.1016 93.4688 75.25 93.0625 75.5469 92.6719C75.849 92.276 76.2552 91.9635 76.7656 91.7344C77.2812 91.5052 77.8464 91.3906 78.4609 91.3906C79.4349 91.3906 80.1979 91.6354 80.75 92.125C81.3021 92.6094 81.5885 93.2786 81.6094 94.1328V98.0234C81.6094 98.7995 81.7083 99.4167 81.9062 99.875V100H80.3906ZM77.9922 98.8984C78.4453 98.8984 78.875 98.7812 79.2812 98.5469C79.6875 98.3125 79.9818 98.0078 80.1641 97.6328V95.8984H79.0312C77.2604 95.8984 76.375 96.4167 76.375 97.4531C76.375 97.9062 76.526 98.2604 76.8281 98.5156C77.1302 98.7708 77.5182 98.8984 77.9922 98.8984ZM83.5234 95.7031C83.5234 94.4062 83.8307 93.3646 84.4453 92.5781C85.0599 91.7865 85.8646 91.3906 86.8594 91.3906C87.849 91.3906 88.6328 91.7292 89.2109 92.4062V88H90.6562V100H89.3281L89.2578 99.0938C88.6797 99.8021 87.875 100.156 86.8438 100.156C85.8646 100.156 85.0651 99.7552 84.4453 98.9531C83.8307 98.151 83.5234 97.1042 83.5234 95.8125V95.7031ZM84.9688 95.8672C84.9688 96.8255 85.1667 97.5755 85.5625 98.1172C85.9583 98.6589 86.5052 98.9297 87.2031 98.9297C88.1198 98.9297 88.7891 98.5182 89.2109 97.6953V93.8125C88.7786 93.0156 88.1146 92.6172 87.2188 92.6172C86.5104 92.6172 85.9583 92.8906 85.5625 93.4375C85.1667 93.9844 84.9688 94.7943 84.9688 95.8672ZM96.4141 100.156C95.2682 100.156 94.3359 99.7812 93.6172 99.0312C92.8984 98.276 92.5391 97.2682 92.5391 96.0078V95.7422C92.5391 94.9036 92.6979 94.1562 93.0156 93.5C93.3385 92.8385 93.7865 92.3229 94.3594 91.9531C94.9375 91.5781 95.5625 91.3906 96.2344 91.3906C97.3333 91.3906 98.1875 91.7526 98.7969 92.4766C99.4062 93.2005 99.7109 94.237 99.7109 95.5859V96.1875H93.9844C94.0052 97.0208 94.2474 97.6953 94.7109 98.2109C95.1797 98.7214 95.7734 98.9766 96.4922 98.9766C97.0026 98.9766 97.4349 98.8724 97.7891 98.6641C98.1432 98.4557 98.4531 98.1797 98.7188 97.8359L99.6016 98.5234C98.8932 99.612 97.8307 100.156 96.4141 100.156ZM96.2344 92.5781C95.651 92.5781 95.1615 92.7917 94.7656 93.2188C94.3698 93.6406 94.125 94.2344 94.0312 95H98.2656V94.8906C98.224 94.1562 98.026 93.5885 97.6719 93.1875C97.3177 92.7812 96.8385 92.5781 96.2344 92.5781Z" fill="black"/>
<circle cx="12" cy="94" r="6.5" stroke="#8C8C8C"/>
<path d="M392.033 98H386.443V97.2207L389.396 93.9395C389.834 93.4434 390.135 93.041 390.299 92.7324C390.467 92.4199 390.551 92.0977 390.551 91.7656C390.551 91.3203 390.416 90.9551 390.146 90.6699C389.877 90.3848 389.518 90.2422 389.068 90.2422C388.529 90.2422 388.109 90.3965 387.809 90.7051C387.512 91.0098 387.363 91.4355 387.363 91.9824H386.279C386.279 91.1973 386.531 90.5625 387.035 90.0781C387.543 89.5938 388.221 89.3516 389.068 89.3516C389.861 89.3516 390.488 89.5605 390.949 89.9785C391.41 90.3926 391.641 90.9453 391.641 91.6367C391.641 92.4766 391.105 93.4766 390.035 94.6367L387.75 97.1152H392.033V98ZM398.771 98H393.182V97.2207L396.135 93.9395C396.572 93.4434 396.873 93.041 397.037 92.7324C397.205 92.4199 397.289 92.0977 397.289 91.7656C397.289 91.3203 397.154 90.9551 396.885 90.6699C396.615 90.3848 396.256 90.2422 395.807 90.2422C395.268 90.2422 394.848 90.3965 394.547 90.7051C394.25 91.0098 394.102 91.4355 394.102 91.9824H393.018C393.018 91.1973 393.27 90.5625 393.773 90.0781C394.281 89.5938 394.959 89.3516 395.807 89.3516C396.6 89.3516 397.227 89.5605 397.688 89.9785C398.148 90.3926 398.379 90.9453 398.379 91.6367C398.379 92.4766 397.844 93.4766 396.773 94.6367L394.488 97.1152H398.771V98ZM399.826 91.1094C399.826 90.5977 399.988 90.1758 400.312 89.8438C400.641 89.5117 401.061 89.3457 401.572 89.3457C402.092 89.3457 402.512 89.5137 402.832 89.8496C403.156 90.1816 403.318 90.6133 403.318 91.1445V91.5605C403.318 92.0762 403.154 92.498 402.826 92.8262C402.502 93.1504 402.088 93.3125 401.584 93.3125C401.076 93.3125 400.656 93.1504 400.324 92.8262C399.992 92.498 399.826 92.0625 399.826 91.5195V91.1094ZM400.635 91.5605C400.635 91.8652 400.721 92.1172 400.893 92.3164C401.064 92.5117 401.295 92.6094 401.584 92.6094C401.861 92.6094 402.084 92.5137 402.252 92.3223C402.424 92.1309 402.51 91.8691 402.51 91.5371V91.1094C402.51 90.8047 402.426 90.5527 402.258 90.3535C402.09 90.1543 401.861 90.0547 401.572 90.0547C401.283 90.0547 401.055 90.1543 400.887 90.3535C400.719 90.5527 400.635 90.8125 400.635 91.1328V91.5605ZM403.98 95.9082C403.98 95.3965 404.143 94.9766 404.467 94.6484C404.795 94.3164 405.215 94.1504 405.727 94.1504C406.238 94.1504 406.658 94.3145 406.986 94.6426C407.314 94.9707 407.479 95.4062 407.479 95.9492V96.3652C407.479 96.877 407.314 97.2988 406.986 97.6309C406.662 97.959 406.246 98.123 405.738 98.123C405.23 98.123 404.811 97.9609 404.479 97.6367C404.146 97.3086 403.98 96.873 403.98 96.3301V95.9082ZM404.789 96.3652C404.789 96.6738 404.875 96.9277 405.047 97.127C405.219 97.3223 405.449 97.4199 405.738 97.4199C406.02 97.4199 406.244 97.3242 406.412 97.1328C406.58 96.9375 406.664 96.6738 406.664 96.3418V95.9082C406.664 95.5996 406.578 95.3477 406.406 95.1523C406.238 94.957 406.012 94.8594 405.727 94.8594C405.449 94.8594 405.223 94.957 405.047 95.1523C404.875 95.3438 404.789 95.6035 404.789 95.9316V96.3652ZM401.83 97.3555L401.215 96.9688L405.381 90.3008L405.996 90.6875L401.83 97.3555Z" fill="#698F63"/>
<path d="M429.863 94.25C429.637 94.5195 429.365 94.7363 429.049 94.9004C428.736 95.0645 428.393 95.1465 428.018 95.1465C427.525 95.1465 427.096 95.0254 426.729 94.7832C426.365 94.541 426.084 94.2012 425.885 93.7637C425.686 93.3223 425.586 92.8359 425.586 92.3047C425.586 91.7344 425.693 91.2207 425.908 90.7637C426.127 90.3066 426.436 89.957 426.834 89.7148C427.232 89.4727 427.697 89.3516 428.229 89.3516C429.072 89.3516 429.736 89.668 430.221 90.3008C430.709 90.9297 430.953 91.7891 430.953 92.8789V93.1953C430.953 94.8555 430.625 96.0684 429.969 96.834C429.312 97.5957 428.322 97.9863 426.998 98.0059H426.787V97.0918H427.016C427.91 97.0762 428.598 96.8438 429.078 96.3945C429.559 95.9414 429.82 95.2266 429.863 94.25ZM428.193 94.25C428.557 94.25 428.891 94.1387 429.195 93.916C429.504 93.6934 429.729 93.418 429.869 93.0898V92.6562C429.869 91.9453 429.715 91.3672 429.406 90.9219C429.098 90.4766 428.707 90.2539 428.234 90.2539C427.758 90.2539 427.375 90.4375 427.086 90.8047C426.797 91.168 426.652 91.6484 426.652 92.2461C426.652 92.8281 426.791 93.3086 427.068 93.6875C427.35 94.0625 427.725 94.25 428.193 94.25ZM436.01 98H434.92V90.7754L432.734 91.5781V90.5938L435.84 89.4277H436.01V98Z" fill="#696969"/>
<rect y="40" width="326" height="28" rx="4" fill="#F5F5F5"/>
<path d="M26.3203 60V48.625H29.5312C30.5208 48.625 31.3958 48.8438 32.1562 49.2812C32.9167 49.7188 33.5026 50.3411 33.9141 51.1484C34.3307 51.9557 34.5417 52.8828 34.5469 53.9297V54.6562C34.5469 55.7292 34.3385 56.6693 33.9219 57.4766C33.5104 58.2839 32.9193 58.9036 32.1484 59.3359C31.3828 59.7682 30.4896 59.9896 29.4688 60H26.3203ZM27.8203 49.8594V58.7734H29.3984C30.5547 58.7734 31.4531 58.4141 32.0938 57.6953C32.7396 56.9766 33.0625 55.9531 33.0625 54.625V53.9609C33.0625 52.6693 32.7578 51.6667 32.1484 50.9531C31.5443 50.2344 30.6849 49.8698 29.5703 49.8594H27.8203ZM40.6797 52.8438C40.4609 52.8073 40.224 52.7891 39.9688 52.7891C39.0208 52.7891 38.3776 53.1927 38.0391 54V60H36.5938V51.5469H38L38.0234 52.5234C38.4974 51.7682 39.1693 51.3906 40.0391 51.3906C40.3203 51.3906 40.5339 51.4271 40.6797 51.5V52.8438ZM47.7109 55.5469V60H46.2109V48.625H50.4062C51.651 48.625 52.625 48.9427 53.3281 49.5781C54.0365 50.2135 54.3906 51.0547 54.3906 52.1016C54.3906 53.2057 54.0443 54.0573 53.3516 54.6562C52.6641 55.25 51.6771 55.5469 50.3906 55.5469H47.7109ZM47.7109 54.3203H50.4062C51.2083 54.3203 51.8229 54.1328 52.25 53.7578C52.6771 53.3776 52.8906 52.8307 52.8906 52.1172C52.8906 51.4401 52.6771 50.8984 52.25 50.4922C51.8229 50.0859 51.237 49.875 50.4922 49.8594H47.7109V54.3203ZM59.4766 60.1562C58.3307 60.1562 57.3984 59.7812 56.6797 59.0312C55.9609 58.276 55.6016 57.2682 55.6016 56.0078V55.7422C55.6016 54.9036 55.7604 54.1562 56.0781 53.5C56.401 52.8385 56.849 52.3229 57.4219 51.9531C58 51.5781 58.625 51.3906 59.2969 51.3906C60.3958 51.3906 61.25 51.7526 61.8594 52.4766C62.4688 53.2005 62.7734 54.237 62.7734 55.5859V56.1875H57.0469C57.0677 57.0208 57.3099 57.6953 57.7734 58.2109C58.2422 58.7214 58.8359 58.9766 59.5547 58.9766C60.0651 58.9766 60.4974 58.8724 60.8516 58.6641C61.2057 58.4557 61.5156 58.1797 61.7812 57.8359L62.6641 58.5234C61.9557 59.612 60.8932 60.1562 59.4766 60.1562ZM59.2969 52.5781C58.7135 52.5781 58.224 52.7917 57.8281 53.2188C57.4323 53.6406 57.1875 54.2344 57.0938 55H61.3281V54.8906C61.2865 54.1562 61.0885 53.5885 60.7344 53.1875C60.3802 52.7812 59.901 52.5781 59.2969 52.5781ZM71.5938 55.8672C71.5938 57.1536 71.2995 58.1901 70.7109 58.9766C70.1224 59.763 69.3255 60.1562 68.3203 60.1562C67.2943 60.1562 66.487 59.8307 65.8984 59.1797V63.25H64.4531V51.5469H65.7734L65.8438 52.4844C66.4323 51.7552 67.25 51.3906 68.2969 51.3906C69.3125 51.3906 70.1146 51.7734 70.7031 52.5391C71.2969 53.3047 71.5938 54.3698 71.5938 55.7344V55.8672ZM70.1484 55.7031C70.1484 54.75 69.9453 53.9974 69.5391 53.4453C69.1328 52.8932 68.5755 52.6172 67.8672 52.6172C66.9922 52.6172 66.3359 53.0052 65.8984 53.7812V57.8203C66.3307 58.5911 66.9922 58.9766 67.8828 58.9766C68.5755 58.9766 69.125 58.7031 69.5312 58.1562C69.9427 57.6042 70.1484 56.7865 70.1484 55.7031ZM80.5781 55.8672C80.5781 57.1536 80.2839 58.1901 79.6953 58.9766C79.1068 59.763 78.3099 60.1562 77.3047 60.1562C76.2786 60.1562 75.4714 59.8307 74.8828 59.1797V63.25H73.4375V51.5469H74.7578L74.8281 52.4844C75.4167 51.7552 76.2344 51.3906 77.2812 51.3906C78.2969 51.3906 79.099 51.7734 79.6875 52.5391C80.2812 53.3047 80.5781 54.3698 80.5781 55.7344V55.8672ZM79.1328 55.7031C79.1328 54.75 78.9297 53.9974 78.5234 53.4453C78.1172 52.8932 77.5599 52.6172 76.8516 52.6172C75.9766 52.6172 75.3203 53.0052 74.8828 53.7812V57.8203C75.3151 58.5911 75.9766 58.9766 76.8672 58.9766C77.5599 58.9766 78.1094 58.7031 78.5156 58.1562C78.9271 57.6042 79.1328 56.7865 79.1328 55.7031ZM85.9297 60.1562C84.7839 60.1562 83.8516 59.7812 83.1328 59.0312C82.4141 58.276 82.0547 57.2682 82.0547 56.0078V55.7422C82.0547 54.9036 82.2135 54.1562 82.5312 53.5C82.8542 52.8385 83.3021 52.3229 83.875 51.9531C84.4531 51.5781 85.0781 51.3906 85.75 51.3906C86.849 51.3906 87.7031 51.7526 88.3125 52.4766C88.9219 53.2005 89.2266 54.237 89.2266 55.5859V56.1875H83.5C83.5208 57.0208 83.763 57.6953 84.2266 58.2109C84.6953 58.7214 85.2891 58.9766 86.0078 58.9766C86.5182 58.9766 86.9505 58.8724 87.3047 58.6641C87.6589 58.4557 87.9688 58.1797 88.2344 57.8359L89.1172 58.5234C88.4089 59.612 87.3464 60.1562 85.9297 60.1562ZM85.75 52.5781C85.1667 52.5781 84.6771 52.7917 84.2812 53.2188C83.8854 53.6406 83.6406 54.2344 83.5469 55H87.7812V54.8906C87.7396 54.1562 87.5417 53.5885 87.1875 53.1875C86.8333 52.7812 86.3542 52.5781 85.75 52.5781ZM94.9922 52.8438C94.7734 52.8073 94.5365 52.7891 94.2812 52.7891C93.3333 52.7891 92.6901 53.1927 92.3516 54V60H90.9062V51.5469H92.3125L92.3359 52.5234C92.8099 51.7682 93.4818 51.3906 94.3516 51.3906C94.6328 51.3906 94.8464 51.4271 94.9922 51.5V52.8438Z" fill="black"/>
<circle cx="12" cy="54" r="6.5" stroke="#8C8C8C"/>
<path d="M390.006 58H388.916V50.7754L386.73 51.5781V50.5938L389.836 49.4277H390.006V58ZM397.336 54.25C397.109 54.5195 396.838 54.7363 396.521 54.9004C396.209 55.0645 395.865 55.1465 395.49 55.1465C394.998 55.1465 394.568 55.0254 394.201 54.7832C393.838 54.541 393.557 54.2012 393.357 53.7637C393.158 53.3223 393.059 52.8359 393.059 52.3047C393.059 51.7344 393.166 51.2207 393.381 50.7637C393.6 50.3066 393.908 49.957 394.307 49.7148C394.705 49.4727 395.17 49.3516 395.701 49.3516C396.545 49.3516 397.209 49.668 397.693 50.3008C398.182 50.9297 398.426 51.7891 398.426 52.8789V53.1953C398.426 54.8555 398.098 56.0684 397.441 56.834C396.785 57.5957 395.795 57.9863 394.471 58.0059H394.26V57.0918H394.488C395.383 57.0762 396.07 56.8438 396.551 56.3945C397.031 55.9414 397.293 55.2266 397.336 54.25ZM395.666 54.25C396.029 54.25 396.363 54.1387 396.668 53.916C396.977 53.6934 397.201 53.418 397.342 53.0898V52.6562C397.342 51.9453 397.188 51.3672 396.879 50.9219C396.57 50.4766 396.18 50.2539 395.707 50.2539C395.23 50.2539 394.848 50.4375 394.559 50.8047C394.27 51.168 394.125 51.6484 394.125 52.2461C394.125 52.8281 394.264 53.3086 394.541 53.6875C394.822 54.0625 395.197 54.25 395.666 54.25ZM399.826 51.1094C399.826 50.5977 399.988 50.1758 400.312 49.8438C400.641 49.5117 401.061 49.3457 401.572 49.3457C402.092 49.3457 402.512 49.5137 402.832 49.8496C403.156 50.1816 403.318 50.6133 403.318 51.1445V51.5605C403.318 52.0762 403.154 52.498 402.826 52.8262C402.502 53.1504 402.088 53.3125 401.584 53.3125C401.076 53.3125 400.656 53.1504 400.324 52.8262C399.992 52.498 399.826 52.0625 399.826 51.5195V51.1094ZM400.635 51.5605C400.635 51.8652 400.721 52.1172 400.893 52.3164C401.064 52.5117 401.295 52.6094 401.584 52.6094C401.861 52.6094 402.084 52.5137 402.252 52.3223C402.424 52.1309 402.51 51.8691 402.51 51.5371V51.1094C402.51 50.8047 402.426 50.5527 402.258 50.3535C402.09 50.1543 401.861 50.0547 401.572 50.0547C401.283 50.0547 401.055 50.1543 400.887 50.3535C400.719 50.5527 400.635 50.8125 400.635 51.1328V51.5605ZM403.98 55.9082C403.98 55.3965 404.143 54.9766 404.467 54.6484C404.795 54.3164 405.215 54.1504 405.727 54.1504C406.238 54.1504 406.658 54.3145 406.986 54.6426C407.314 54.9707 407.479 55.4062 407.479 55.9492V56.3652C407.479 56.877 407.314 57.2988 406.986 57.6309C406.662 57.959 406.246 58.123 405.738 58.123C405.23 58.123 404.811 57.9609 404.479 57.6367C404.146 57.3086 403.98 56.873 403.98 56.3301V55.9082ZM404.789 56.3652C404.789 56.6738 404.875 56.9277 405.047 57.127C405.219 57.3223 405.449 57.4199 405.738 57.4199C406.02 57.4199 406.244 57.3242 406.412 57.1328C406.58 56.9375 406.664 56.6738 406.664 56.3418V55.9082C406.664 55.5996 406.578 55.3477 406.406 55.1523C406.238 54.957 406.012 54.8594 405.727 54.8594C405.449 54.8594 405.223 54.957 405.047 55.1523C404.875 55.3438 404.789 55.6035 404.789 55.9316V56.3652ZM401.83 57.3555L401.215 56.9688L405.381 50.3008L405.996 50.6875L401.83 57.3555Z" fill="#696969"/>
<path d="M431.217 50.0781L427.684 58H426.547L430.068 50.3594H425.451V49.4688H431.217V50.0781ZM436.602 54.25C436.375 54.5195 436.104 54.7363 435.787 54.9004C435.475 55.0645 435.131 55.1465 434.756 55.1465C434.264 55.1465 433.834 55.0254 433.467 54.7832C433.104 54.541 432.822 54.2012 432.623 53.7637C432.424 53.3223 432.324 52.8359 432.324 52.3047C432.324 51.7344 432.432 51.2207 432.646 50.7637C432.865 50.3066 433.174 49.957 433.572 49.7148C433.971 49.4727 434.436 49.3516 434.967 49.3516C435.811 49.3516 436.475 49.668 436.959 50.3008C437.447 50.9297 437.691 51.7891 437.691 52.8789V53.1953C437.691 54.8555 437.363 56.0684 436.707 56.834C436.051 57.5957 435.061 57.9863 433.736 58.0059H433.525V57.0918H433.754C434.648 57.0762 435.336 56.8438 435.816 56.3945C436.297 55.9414 436.559 55.2266 436.602 54.25ZM434.932 54.25C435.295 54.25 435.629 54.1387 435.934 53.916C436.242 53.6934 436.467 53.418 436.607 53.0898V52.6562C436.607 51.9453 436.453 51.3672 436.145 50.9219C435.836 50.4766 435.445 50.2539 434.973 50.2539C434.496 50.2539 434.113 50.4375 433.824 50.8047C433.535 51.168 433.391 51.6484 433.391 52.2461C433.391 52.8281 433.529 53.3086 433.807 53.6875C434.088 54.0625 434.463 54.25 434.932 54.25Z" fill="#696969"/>
<rect width="358" height="28" rx="4" fill="#F5F5F5"/>
<path d="M29.6719 14.9297C28.3854 14.5599 27.4479 14.1068 26.8594 13.5703C26.276 13.0286 25.9844 12.362 25.9844 11.5703C25.9844 10.6745 26.3411 9.9349 27.0547 9.35156C27.7734 8.76302 28.7057 8.46875 29.8516 8.46875C30.6328 8.46875 31.3281 8.61979 31.9375 8.92188C32.5521 9.22396 33.026 9.64062 33.3594 10.1719C33.6979 10.7031 33.8672 11.2839 33.8672 11.9141H32.3594C32.3594 11.2266 32.1406 10.6875 31.7031 10.2969C31.2656 9.90104 30.6484 9.70312 29.8516 9.70312C29.112 9.70312 28.5339 9.86719 28.1172 10.1953C27.7057 10.5182 27.5 10.9688 27.5 11.5469C27.5 12.0104 27.6953 12.4036 28.0859 12.7266C28.4818 13.0443 29.151 13.3359 30.0938 13.6016C31.0417 13.8672 31.7812 14.1615 32.3125 14.4844C32.849 14.8021 33.2448 15.1745 33.5 15.6016C33.7604 16.0286 33.8906 16.5312 33.8906 17.1094C33.8906 18.0312 33.5312 18.7708 32.8125 19.3281C32.0938 19.8802 31.1328 20.1562 29.9297 20.1562C29.1484 20.1562 28.4193 20.0078 27.7422 19.7109C27.0651 19.4089 26.5417 18.9974 26.1719 18.4766C25.8073 17.9557 25.625 17.3646 25.625 16.7031H27.1328C27.1328 17.3906 27.3854 17.9349 27.8906 18.3359C28.401 18.7318 29.0807 18.9297 29.9297 18.9297C30.7214 18.9297 31.3281 18.7682 31.75 18.4453C32.1719 18.1224 32.3828 17.6823 32.3828 17.125C32.3828 16.5677 32.1875 16.138 31.7969 15.8359C31.4062 15.5286 30.6979 15.2266 29.6719 14.9297ZM42.7344 15.8672C42.7344 17.1536 42.4401 18.1901 41.8516 18.9766C41.263 19.763 40.4661 20.1562 39.4609 20.1562C38.4349 20.1562 37.6276 19.8307 37.0391 19.1797V23.25H35.5938V11.5469H36.9141L36.9844 12.4844C37.5729 11.7552 38.3906 11.3906 39.4375 11.3906C40.4531 11.3906 41.2552 11.7734 41.8438 12.5391C42.4375 13.3047 42.7344 14.3698 42.7344 15.7344V15.8672ZM41.2891 15.7031C41.2891 14.75 41.0859 13.9974 40.6797 13.4453C40.2734 12.8932 39.7161 12.6172 39.0078 12.6172C38.1328 12.6172 37.4766 13.0052 37.0391 13.7812V17.8203C37.4714 18.5911 38.1328 18.9766 39.0234 18.9766C39.7161 18.9766 40.2656 18.7031 40.6719 18.1562C41.0833 17.6042 41.2891 16.7865 41.2891 15.7031ZM48.6641 12.8438C48.4453 12.8073 48.2083 12.7891 47.9531 12.7891C47.0052 12.7891 46.362 13.1927 46.0234 14V20H44.5781V11.5469H45.9844L46.0078 12.5234C46.4818 11.7682 47.1536 11.3906 48.0234 11.3906C48.3047 11.3906 48.5182 11.4271 48.6641 11.5V12.8438ZM51.5703 20H50.125V11.5469H51.5703V20ZM50.0078 9.30469C50.0078 9.07031 50.0781 8.8724 50.2188 8.71094C50.3646 8.54948 50.5781 8.46875 50.8594 8.46875C51.1406 8.46875 51.3542 8.54948 51.5 8.71094C51.6458 8.8724 51.7188 9.07031 51.7188 9.30469C51.7188 9.53906 51.6458 9.73438 51.5 9.89062C51.3542 10.0469 51.1406 10.125 50.8594 10.125C50.5781 10.125 50.3646 10.0469 50.2188 9.89062C50.0781 9.73438 50.0078 9.53906 50.0078 9.30469ZM55.8516 9.5V11.5469H57.4297V12.6641H55.8516V17.9062C55.8516 18.2448 55.9219 18.5 56.0625 18.6719C56.2031 18.8385 56.4427 18.9219 56.7812 18.9219C56.9479 18.9219 57.1771 18.8906 57.4688 18.8281V20C57.0885 20.1042 56.7188 20.1562 56.3594 20.1562C55.7135 20.1562 55.2266 19.9609 54.8984 19.5703C54.5703 19.1797 54.4062 18.625 54.4062 17.9062V12.6641H52.8672V11.5469H54.4062V9.5H55.8516ZM62.6328 20.1562C61.487 20.1562 60.5547 19.7812 59.8359 19.0312C59.1172 18.276 58.7578 17.2682 58.7578 16.0078V15.7422C58.7578 14.9036 58.9167 14.1562 59.2344 13.5C59.5573 12.8385 60.0052 12.3229 60.5781 11.9531C61.1562 11.5781 61.7812 11.3906 62.4531 11.3906C63.5521 11.3906 64.4062 11.7526 65.0156 12.4766C65.625 13.2005 65.9297 14.237 65.9297 15.5859V16.1875H60.2031C60.224 17.0208 60.4661 17.6953 60.9297 18.2109C61.3984 18.7214 61.9922 18.9766 62.7109 18.9766C63.2214 18.9766 63.6536 18.8724 64.0078 18.6641C64.362 18.4557 64.6719 18.1797 64.9375 17.8359L65.8203 18.5234C65.112 19.612 64.0495 20.1562 62.6328 20.1562ZM62.4531 12.5781C61.8698 12.5781 61.3802 12.7917 60.9844 13.2188C60.5885 13.6406 60.3438 14.2344 60.25 15H64.4844V14.8906C64.4427 14.1562 64.2448 13.5885 63.8906 13.1875C63.5365 12.7812 63.0573 12.5781 62.4531 12.5781Z" fill="black"/>
<circle cx="12" cy="14" r="6.5" stroke="#8C8C8C"/>
<path d="M391.299 18H385.709V17.2207L388.662 13.9395C389.1 13.4434 389.4 13.041 389.564 12.7324C389.732 12.4199 389.816 12.0977 389.816 11.7656C389.816 11.3203 389.682 10.9551 389.412 10.6699C389.143 10.3848 388.783 10.2422 388.334 10.2422C387.795 10.2422 387.375 10.3965 387.074 10.7051C386.777 11.0098 386.629 11.4355 386.629 11.9824H385.545C385.545 11.1973 385.797 10.5625 386.301 10.0781C386.809 9.59375 387.486 9.35156 388.334 9.35156C389.127 9.35156 389.754 9.56055 390.215 9.97852C390.676 10.3926 390.906 10.9453 390.906 11.6367C390.906 12.4766 390.371 13.4766 389.301 14.6367L387.016 17.1152H391.299V18ZM397.797 14.3613C397.797 15.6309 397.58 16.5742 397.146 17.1914C396.713 17.8086 396.035 18.1172 395.113 18.1172C394.203 18.1172 393.529 17.8164 393.092 17.2148C392.654 16.6094 392.428 15.707 392.412 14.5078V13.0605C392.412 11.8066 392.629 10.875 393.062 10.2656C393.496 9.65625 394.176 9.35156 395.102 9.35156C396.02 9.35156 396.695 9.64648 397.129 10.2363C397.562 10.8223 397.785 11.7285 397.797 12.9551V14.3613ZM396.713 12.8789C396.713 11.9609 396.584 11.293 396.326 10.875C396.068 10.4531 395.66 10.2422 395.102 10.2422C394.547 10.2422 394.143 10.4512 393.889 10.8691C393.635 11.2871 393.504 11.9297 393.496 12.7969V14.5312C393.496 15.4531 393.629 16.1348 393.895 16.5762C394.164 17.0137 394.57 17.2324 395.113 17.2324C395.648 17.2324 396.045 17.0254 396.303 16.6113C396.564 16.1973 396.701 15.5449 396.713 14.6543V12.8789ZM399.092 11.1094C399.092 10.5977 399.254 10.1758 399.578 9.84375C399.906 9.51172 400.326 9.3457 400.838 9.3457C401.357 9.3457 401.777 9.51367 402.098 9.84961C402.422 10.1816 402.584 10.6133 402.584 11.1445V11.5605C402.584 12.0762 402.42 12.498 402.092 12.8262C401.768 13.1504 401.354 13.3125 400.85 13.3125C400.342 13.3125 399.922 13.1504 399.59 12.8262C399.258 12.498 399.092 12.0625 399.092 11.5195V11.1094ZM399.9 11.5605C399.9 11.8652 399.986 12.1172 400.158 12.3164C400.33 12.5117 400.561 12.6094 400.85 12.6094C401.127 12.6094 401.35 12.5137 401.518 12.3223C401.689 12.1309 401.775 11.8691 401.775 11.5371V11.1094C401.775 10.8047 401.691 10.5527 401.523 10.3535C401.355 10.1543 401.127 10.0547 400.838 10.0547C400.549 10.0547 400.32 10.1543 400.152 10.3535C399.984 10.5527 399.9 10.8125 399.9 11.1328V11.5605ZM403.246 15.9082C403.246 15.3965 403.408 14.9766 403.732 14.6484C404.061 14.3164 404.48 14.1504 404.992 14.1504C405.504 14.1504 405.924 14.3145 406.252 14.6426C406.58 14.9707 406.744 15.4062 406.744 15.9492V16.3652C406.744 16.877 406.58 17.2988 406.252 17.6309C405.928 17.959 405.512 18.123 405.004 18.123C404.496 18.123 404.076 17.9609 403.744 17.6367C403.412 17.3086 403.246 16.873 403.246 16.3301V15.9082ZM404.055 16.3652C404.055 16.6738 404.141 16.9277 404.312 17.127C404.484 17.3223 404.715 17.4199 405.004 17.4199C405.285 17.4199 405.51 17.3242 405.678 17.1328C405.846 16.9375 405.93 16.6738 405.93 16.3418V15.9082C405.93 15.5996 405.844 15.3477 405.672 15.1523C405.504 14.957 405.277 14.8594 404.992 14.8594C404.715 14.8594 404.488 14.957 404.312 15.1523C404.141 15.3438 404.055 15.6035 404.055 15.9316V16.3652ZM401.096 17.3555L400.48 16.9688L404.646 10.3008L405.262 10.6875L401.096 17.3555Z" fill="#696969"/>
<path d="M430.883 11.6953C430.883 12.1211 430.77 12.5 430.543 12.832C430.32 13.1641 430.018 13.4238 429.635 13.6113C430.08 13.8027 430.432 14.082 430.689 14.4492C430.951 14.8164 431.082 15.2324 431.082 15.6973C431.082 16.4355 430.832 17.0234 430.332 17.4609C429.836 17.8984 429.182 18.1172 428.369 18.1172C427.549 18.1172 426.891 17.8984 426.395 17.4609C425.902 17.0195 425.656 16.4316 425.656 15.6973C425.656 15.2363 425.781 14.8203 426.031 14.4492C426.285 14.0781 426.635 13.7969 427.08 13.6055C426.701 13.418 426.402 13.1582 426.184 12.8262C425.965 12.4941 425.855 12.1172 425.855 11.6953C425.855 10.9766 426.086 10.4062 426.547 9.98438C427.008 9.5625 427.615 9.35156 428.369 9.35156C429.119 9.35156 429.725 9.5625 430.186 9.98438C430.65 10.4062 430.883 10.9766 430.883 11.6953ZM429.998 15.6738C429.998 15.1973 429.846 14.8086 429.541 14.5078C429.24 14.207 428.846 14.0566 428.357 14.0566C427.869 14.0566 427.477 14.2051 427.18 14.502C426.887 14.7988 426.74 15.1895 426.74 15.6738C426.74 16.1582 426.883 16.5391 427.168 16.8164C427.457 17.0938 427.857 17.2324 428.369 17.2324C428.877 17.2324 429.275 17.0938 429.564 16.8164C429.854 16.5352 429.998 16.1543 429.998 15.6738ZM428.369 10.2422C427.943 10.2422 427.598 10.375 427.332 10.6406C427.07 10.9023 426.939 11.2598 426.939 11.7129C426.939 12.1465 427.068 12.498 427.326 12.7676C427.588 13.0332 427.936 13.166 428.369 13.166C428.803 13.166 429.148 13.0332 429.406 12.7676C429.668 12.498 429.799 12.1465 429.799 11.7129C429.799 11.2793 429.664 10.9258 429.395 10.6523C429.125 10.3789 428.783 10.2422 428.369 10.2422ZM434.023 13.207H434.838C435.35 13.1992 435.752 13.0645 436.045 12.8027C436.338 12.541 436.484 12.1875 436.484 11.7422C436.484 10.7422 435.986 10.2422 434.99 10.2422C434.521 10.2422 434.146 10.377 433.865 10.6465C433.588 10.9121 433.449 11.2656 433.449 11.707H432.365C432.365 11.0312 432.611 10.4707 433.104 10.0254C433.6 9.57617 434.229 9.35156 434.99 9.35156C435.795 9.35156 436.426 9.56445 436.883 9.99023C437.34 10.416 437.568 11.0078 437.568 11.7656C437.568 12.1367 437.447 12.4961 437.205 12.8438C436.967 13.1914 436.641 13.4512 436.227 13.623C436.695 13.7715 437.057 14.0176 437.311 14.3613C437.568 14.7051 437.697 15.125 437.697 15.6211C437.697 16.3867 437.447 16.9941 436.947 17.4434C436.447 17.8926 435.797 18.1172 434.996 18.1172C434.195 18.1172 433.543 17.9004 433.039 17.4668C432.539 17.0332 432.289 16.4609 432.289 15.75H433.379C433.379 16.1992 433.525 16.5586 433.818 16.8281C434.111 17.0977 434.504 17.2324 434.996 17.2324C435.52 17.2324 435.92 17.0957 436.197 16.8223C436.475 16.5488 436.613 16.1562 436.613 15.6445C436.613 15.1484 436.461 14.7676 436.156 14.502C435.852 14.2363 435.412 14.0996 434.838 14.0918H434.023V13.207Z" fill="#696969"/>
<rect y="160" width="305" height="28" rx="4" fill="#F5F5F5"/>
<path d="M34.6875 176.391C34.5469 177.594 34.1016 178.523 33.3516 179.18C32.6068 179.831 31.6146 180.156 30.375 180.156C29.0312 180.156 27.9531 179.674 27.1406 178.711C26.3333 177.747 25.9297 176.458 25.9297 174.844V173.75C25.9297 172.693 26.1172 171.763 26.4922 170.961C26.8724 170.159 27.4089 169.544 28.1016 169.117C28.7943 168.685 29.5964 168.469 30.5078 168.469C31.7161 168.469 32.6849 168.807 33.4141 169.484C34.1432 170.156 34.5677 171.089 34.6875 172.281H33.1797C33.0495 171.375 32.7656 170.719 32.3281 170.312C31.8958 169.906 31.2891 169.703 30.5078 169.703C29.5495 169.703 28.7969 170.057 28.25 170.766C27.7083 171.474 27.4375 172.482 27.4375 173.789V174.891C27.4375 176.125 27.6953 177.107 28.2109 177.836C28.7266 178.565 29.4479 178.93 30.375 178.93C31.2083 178.93 31.8464 178.742 32.2891 178.367C32.737 177.987 33.0339 177.328 33.1797 176.391H34.6875ZM36.1328 175.695C36.1328 174.867 36.2943 174.122 36.6172 173.461C36.9453 172.799 37.3984 172.289 37.9766 171.93C38.5599 171.57 39.224 171.391 39.9688 171.391C41.1198 171.391 42.0495 171.789 42.7578 172.586C43.4714 173.383 43.8281 174.443 43.8281 175.766V175.867C43.8281 176.69 43.6693 177.43 43.3516 178.086C43.0391 178.737 42.5885 179.245 42 179.609C41.4167 179.974 40.7448 180.156 39.9844 180.156C38.8385 180.156 37.9089 179.758 37.1953 178.961C36.487 178.164 36.1328 177.109 36.1328 175.797V175.695ZM37.5859 175.867C37.5859 176.805 37.8021 177.557 38.2344 178.125C38.6719 178.693 39.2552 178.977 39.9844 178.977C40.7188 178.977 41.3021 178.69 41.7344 178.117C42.1667 177.539 42.3828 176.732 42.3828 175.695C42.3828 174.768 42.1615 174.018 41.7188 173.445C41.2812 172.867 40.6979 172.578 39.9688 172.578C39.2552 172.578 38.6797 172.862 38.2422 173.43C37.8047 173.997 37.5859 174.81 37.5859 175.867ZM48 176.086L47.0938 177.031V180H45.6484V168H47.0938V175.258L47.8672 174.328L50.5 171.547H52.2578L48.9688 175.078L52.6406 180H50.9453L48 176.086ZM57.1016 180.156C55.9557 180.156 55.0234 179.781 54.3047 179.031C53.5859 178.276 53.2266 177.268 53.2266 176.008V175.742C53.2266 174.904 53.3854 174.156 53.7031 173.5C54.026 172.839 54.474 172.323 55.0469 171.953C55.625 171.578 56.25 171.391 56.9219 171.391C58.0208 171.391 58.875 171.753 59.4844 172.477C60.0938 173.201 60.3984 174.237 60.3984 175.586V176.188H54.6719C54.6927 177.021 54.9349 177.695 55.3984 178.211C55.8672 178.721 56.4609 178.977 57.1797 178.977C57.6901 178.977 58.1224 178.872 58.4766 178.664C58.8307 178.456 59.1406 178.18 59.4062 177.836L60.2891 178.523C59.5807 179.612 58.5182 180.156 57.1016 180.156ZM56.9219 172.578C56.3385 172.578 55.849 172.792 55.4531 173.219C55.0573 173.641 54.8125 174.234 54.7188 175H58.9531V174.891C58.9115 174.156 58.7135 173.589 58.3594 173.188C58.0052 172.781 57.526 172.578 56.9219 172.578Z" fill="black"/>
<circle cx="12" cy="174" r="6.5" stroke="#8C8C8C"/>
<path d="M390.006 178H388.916V170.775L386.73 171.578V170.594L389.836 169.428H390.006V178ZM398.355 171.695C398.355 172.121 398.242 172.5 398.016 172.832C397.793 173.164 397.49 173.424 397.107 173.611C397.553 173.803 397.904 174.082 398.162 174.449C398.424 174.816 398.555 175.232 398.555 175.697C398.555 176.436 398.305 177.023 397.805 177.461C397.309 177.898 396.654 178.117 395.842 178.117C395.021 178.117 394.363 177.898 393.867 177.461C393.375 177.02 393.129 176.432 393.129 175.697C393.129 175.236 393.254 174.82 393.504 174.449C393.758 174.078 394.107 173.797 394.553 173.605C394.174 173.418 393.875 173.158 393.656 172.826C393.438 172.494 393.328 172.117 393.328 171.695C393.328 170.977 393.559 170.406 394.02 169.984C394.48 169.562 395.088 169.352 395.842 169.352C396.592 169.352 397.197 169.562 397.658 169.984C398.123 170.406 398.355 170.977 398.355 171.695ZM397.471 175.674C397.471 175.197 397.318 174.809 397.014 174.508C396.713 174.207 396.318 174.057 395.83 174.057C395.342 174.057 394.949 174.205 394.652 174.502C394.359 174.799 394.213 175.189 394.213 175.674C394.213 176.158 394.355 176.539 394.641 176.816C394.93 177.094 395.33 177.232 395.842 177.232C396.35 177.232 396.748 177.094 397.037 176.816C397.326 176.535 397.471 176.154 397.471 175.674ZM395.842 170.242C395.416 170.242 395.07 170.375 394.805 170.641C394.543 170.902 394.412 171.26 394.412 171.713C394.412 172.146 394.541 172.498 394.799 172.768C395.061 173.033 395.408 173.166 395.842 173.166C396.275 173.166 396.621 173.033 396.879 172.768C397.141 172.498 397.271 172.146 397.271 171.713C397.271 171.279 397.137 170.926 396.867 170.652C396.598 170.379 396.256 170.242 395.842 170.242ZM399.826 171.109C399.826 170.598 399.988 170.176 400.312 169.844C400.641 169.512 401.061 169.346 401.572 169.346C402.092 169.346 402.512 169.514 402.832 169.85C403.156 170.182 403.318 170.613 403.318 171.145V171.561C403.318 172.076 403.154 172.498 402.826 172.826C402.502 173.15 402.088 173.312 401.584 173.312C401.076 173.312 400.656 173.15 400.324 172.826C399.992 172.498 399.826 172.062 399.826 171.52V171.109ZM400.635 171.561C400.635 171.865 400.721 172.117 400.893 172.316C401.064 172.512 401.295 172.609 401.584 172.609C401.861 172.609 402.084 172.514 402.252 172.322C402.424 172.131 402.51 171.869 402.51 171.537V171.109C402.51 170.805 402.426 170.553 402.258 170.354C402.09 170.154 401.861 170.055 401.572 170.055C401.283 170.055 401.055 170.154 400.887 170.354C400.719 170.553 400.635 170.812 400.635 171.133V171.561ZM403.98 175.908C403.98 175.396 404.143 174.977 404.467 174.648C404.795 174.316 405.215 174.15 405.727 174.15C406.238 174.15 406.658 174.314 406.986 174.643C407.314 174.971 407.479 175.406 407.479 175.949V176.365C407.479 176.877 407.314 177.299 406.986 177.631C406.662 177.959 406.246 178.123 405.738 178.123C405.23 178.123 404.811 177.961 404.479 177.637C404.146 177.309 403.98 176.873 403.98 176.33V175.908ZM404.789 176.365C404.789 176.674 404.875 176.928 405.047 177.127C405.219 177.322 405.449 177.42 405.738 177.42C406.02 177.42 406.244 177.324 406.412 177.133C406.58 176.938 406.664 176.674 406.664 176.342V175.908C406.664 175.6 406.578 175.348 406.406 175.152C406.238 174.957 406.012 174.859 405.727 174.859C405.449 174.859 405.223 174.957 405.047 175.152C404.875 175.344 404.789 175.604 404.789 175.932V176.365ZM401.83 177.355L401.215 176.969L405.381 170.301L405.996 170.688L401.83 177.355Z" fill="#696969"/>
<path d="M431.217 170.078L427.684 178H426.547L430.068 170.359H425.451V169.469H431.217V170.078ZM432.945 173.723L433.379 169.469H437.75V170.471H434.299L434.041 172.797C434.459 172.551 434.934 172.428 435.465 172.428C436.242 172.428 436.859 172.686 437.316 173.201C437.773 173.713 438.002 174.406 438.002 175.281C438.002 176.16 437.764 176.854 437.287 177.361C436.814 177.865 436.152 178.117 435.301 178.117C434.547 178.117 433.932 177.908 433.455 177.49C432.979 177.072 432.707 176.494 432.641 175.756H433.666C433.732 176.244 433.906 176.613 434.188 176.863C434.469 177.109 434.84 177.232 435.301 177.232C435.805 177.232 436.199 177.061 436.484 176.717C436.773 176.373 436.918 175.898 436.918 175.293C436.918 174.723 436.762 174.266 436.449 173.922C436.141 173.574 435.729 173.4 435.213 173.4C434.74 173.4 434.369 173.504 434.1 173.711L433.812 173.945L432.945 173.723Z" fill="#696969"/>
<rect y="200" width="287" height="28" rx="4" fill="#F5F5F5"/>
<path d="M26.3203 220V208.625H29.5312C30.5208 208.625 31.3958 208.844 32.1562 209.281C32.9167 209.719 33.5026 210.341 33.9141 211.148C34.3307 211.956 34.5417 212.883 34.5469 213.93V214.656C34.5469 215.729 34.3385 216.669 33.9219 217.477C33.5104 218.284 32.9193 218.904 32.1484 219.336C31.3828 219.768 30.4896 219.99 29.4688 220H26.3203ZM27.8203 209.859V218.773H29.3984C30.5547 218.773 31.4531 218.414 32.0938 217.695C32.7396 216.977 33.0625 215.953 33.0625 214.625V213.961C33.0625 212.669 32.7578 211.667 32.1484 210.953C31.5443 210.234 30.6849 209.87 29.5703 209.859H27.8203ZM38.1641 220H36.7188V211.547H38.1641V220ZM36.6016 209.305C36.6016 209.07 36.6719 208.872 36.8125 208.711C36.9583 208.549 37.1719 208.469 37.4531 208.469C37.7344 208.469 37.9479 208.549 38.0938 208.711C38.2396 208.872 38.3125 209.07 38.3125 209.305C38.3125 209.539 38.2396 209.734 38.0938 209.891C37.9479 210.047 37.7344 210.125 37.4531 210.125C37.1719 210.125 36.9583 210.047 36.8125 209.891C36.6719 209.734 36.6016 209.539 36.6016 209.305ZM43.9922 220.156C42.8464 220.156 41.9141 219.781 41.1953 219.031C40.4766 218.276 40.1172 217.268 40.1172 216.008V215.742C40.1172 214.904 40.276 214.156 40.5938 213.5C40.9167 212.839 41.3646 212.323 41.9375 211.953C42.5156 211.578 43.1406 211.391 43.8125 211.391C44.9115 211.391 45.7656 211.753 46.375 212.477C46.9844 213.201 47.2891 214.237 47.2891 215.586V216.188H41.5625C41.5833 217.021 41.8255 217.695 42.2891 218.211C42.7578 218.721 43.3516 218.977 44.0703 218.977C44.5807 218.977 45.013 218.872 45.3672 218.664C45.7214 218.456 46.0312 218.18 46.2969 217.836L47.1797 218.523C46.4714 219.612 45.4089 220.156 43.9922 220.156ZM43.8125 212.578C43.2292 212.578 42.7396 212.792 42.3438 213.219C41.9479 213.641 41.7031 214.234 41.6094 215H45.8438V214.891C45.8021 214.156 45.6042 213.589 45.25 213.188C44.8958 212.781 44.4167 212.578 43.8125 212.578ZM50.9297 209.5V211.547H52.5078V212.664H50.9297V217.906C50.9297 218.245 51 218.5 51.1406 218.672C51.2812 218.839 51.5208 218.922 51.8594 218.922C52.026 218.922 52.2552 218.891 52.5469 218.828V220C52.1667 220.104 51.7969 220.156 51.4375 220.156C50.7917 220.156 50.3047 219.961 49.9766 219.57C49.6484 219.18 49.4844 218.625 49.4844 217.906V212.664H47.9453V211.547H49.4844V209.5H50.9297ZM66.7656 216.391C66.625 217.594 66.1797 218.523 65.4297 219.18C64.6849 219.831 63.6927 220.156 62.4531 220.156C61.1094 220.156 60.0312 219.674 59.2188 218.711C58.4115 217.747 58.0078 216.458 58.0078 214.844V213.75C58.0078 212.693 58.1953 211.763 58.5703 210.961C58.9505 210.159 59.487 209.544 60.1797 209.117C60.8724 208.685 61.6745 208.469 62.5859 208.469C63.7943 208.469 64.763 208.807 65.4922 209.484C66.2214 210.156 66.6458 211.089 66.7656 212.281H65.2578C65.1276 211.375 64.8438 210.719 64.4062 210.312C63.974 209.906 63.3672 209.703 62.5859 209.703C61.6276 209.703 60.875 210.057 60.3281 210.766C59.7865 211.474 59.5156 212.482 59.5156 213.789V214.891C59.5156 216.125 59.7734 217.107 60.2891 217.836C60.8047 218.565 61.526 218.93 62.4531 218.93C63.2865 218.93 63.9245 218.742 64.3672 218.367C64.8151 217.987 65.112 217.328 65.2578 216.391H66.7656ZM68.2109 215.695C68.2109 214.867 68.3724 214.122 68.6953 213.461C69.0234 212.799 69.4766 212.289 70.0547 211.93C70.638 211.57 71.3021 211.391 72.0469 211.391C73.1979 211.391 74.1276 211.789 74.8359 212.586C75.5495 213.383 75.9062 214.443 75.9062 215.766V215.867C75.9062 216.69 75.7474 217.43 75.4297 218.086C75.1172 218.737 74.6667 219.245 74.0781 219.609C73.4948 219.974 72.8229 220.156 72.0625 220.156C70.9167 220.156 69.987 219.758 69.2734 218.961C68.5651 218.164 68.2109 217.109 68.2109 215.797V215.695ZM69.6641 215.867C69.6641 216.805 69.8802 217.557 70.3125 218.125C70.75 218.693 71.3333 218.977 72.0625 218.977C72.7969 218.977 73.3802 218.69 73.8125 218.117C74.2448 217.539 74.4609 216.732 74.4609 215.695C74.4609 214.768 74.2396 214.018 73.7969 213.445C73.3594 212.867 72.776 212.578 72.0469 212.578C71.3333 212.578 70.7578 212.862 70.3203 213.43C69.8828 213.997 69.6641 214.81 69.6641 215.867ZM80.0781 216.086L79.1719 217.031V220H77.7266V208H79.1719V215.258L79.9453 214.328L82.5781 211.547H84.3359L81.0469 215.078L84.7188 220H83.0234L80.0781 216.086ZM89.1797 220.156C88.0339 220.156 87.1016 219.781 86.3828 219.031C85.6641 218.276 85.3047 217.268 85.3047 216.008V215.742C85.3047 214.904 85.4635 214.156 85.7812 213.5C86.1042 212.839 86.5521 212.323 87.125 211.953C87.7031 211.578 88.3281 211.391 89 211.391C90.099 211.391 90.9531 211.753 91.5625 212.477C92.1719 213.201 92.4766 214.237 92.4766 215.586V216.188H86.75C86.7708 217.021 87.013 217.695 87.4766 218.211C87.9453 218.721 88.5391 218.977 89.2578 218.977C89.7682 218.977 90.2005 218.872 90.5547 218.664C90.9089 218.456 91.2188 218.18 91.4844 217.836L92.3672 218.523C91.6589 219.612 90.5964 220.156 89.1797 220.156ZM89 212.578C88.4167 212.578 87.9271 212.792 87.5312 213.219C87.1354 213.641 86.8906 214.234 86.7969 215H91.0312V214.891C90.9896 214.156 90.7917 213.589 90.4375 213.188C90.0833 212.781 89.6042 212.578 89 212.578Z" fill="black"/>
<circle cx="12" cy="214" r="6.5" stroke="#8C8C8C"/>
<path d="M390.006 218H388.916V210.775L386.73 211.578V210.594L389.836 209.428H390.006V218ZM397.436 209.463V210.383H397.236C396.393 210.398 395.721 210.648 395.221 211.133C394.721 211.617 394.432 212.299 394.354 213.178C394.803 212.662 395.416 212.404 396.193 212.404C396.936 212.404 397.527 212.666 397.969 213.189C398.414 213.713 398.637 214.389 398.637 215.217C398.637 216.096 398.396 216.799 397.916 217.326C397.439 217.854 396.799 218.117 395.994 218.117C395.178 218.117 394.516 217.805 394.008 217.18C393.5 216.551 393.246 215.742 393.246 214.754V214.338C393.246 212.768 393.58 211.568 394.248 210.74C394.92 209.908 395.918 209.482 397.242 209.463H397.436ZM396.012 213.307C395.641 213.307 395.299 213.418 394.986 213.641C394.674 213.863 394.457 214.143 394.336 214.479V214.877C394.336 215.58 394.494 216.146 394.811 216.576C395.127 217.006 395.521 217.221 395.994 217.221C396.482 217.221 396.865 217.041 397.143 216.682C397.424 216.322 397.564 215.852 397.564 215.27C397.564 214.684 397.422 214.211 397.137 213.852C396.855 213.488 396.48 213.307 396.012 213.307ZM399.826 211.109C399.826 210.598 399.988 210.176 400.312 209.844C400.641 209.512 401.061 209.346 401.572 209.346C402.092 209.346 402.512 209.514 402.832 209.85C403.156 210.182 403.318 210.613 403.318 211.145V211.561C403.318 212.076 403.154 212.498 402.826 212.826C402.502 213.15 402.088 213.312 401.584 213.312C401.076 213.312 400.656 213.15 400.324 212.826C399.992 212.498 399.826 212.062 399.826 211.52V211.109ZM400.635 211.561C400.635 211.865 400.721 212.117 400.893 212.316C401.064 212.512 401.295 212.609 401.584 212.609C401.861 212.609 402.084 212.514 402.252 212.322C402.424 212.131 402.51 211.869 402.51 211.537V211.109C402.51 210.805 402.426 210.553 402.258 210.354C402.09 210.154 401.861 210.055 401.572 210.055C401.283 210.055 401.055 210.154 400.887 210.354C400.719 210.553 400.635 210.812 400.635 211.133V211.561ZM403.98 215.908C403.98 215.396 404.143 214.977 404.467 214.648C404.795 214.316 405.215 214.15 405.727 214.15C406.238 214.15 406.658 214.314 406.986 214.643C407.314 214.971 407.479 215.406 407.479 215.949V216.365C407.479 216.877 407.314 217.299 406.986 217.631C406.662 217.959 406.246 218.123 405.738 218.123C405.23 218.123 404.811 217.961 404.479 217.637C404.146 217.309 403.98 216.873 403.98 216.33V215.908ZM404.789 216.365C404.789 216.674 404.875 216.928 405.047 217.127C405.219 217.322 405.449 217.42 405.738 217.42C406.02 217.42 406.244 217.324 406.412 217.133C406.58 216.938 406.664 216.674 406.664 216.342V215.908C406.664 215.6 406.578 215.348 406.406 215.152C406.238 214.957 406.012 214.859 405.727 214.859C405.449 214.859 405.223 214.957 405.047 215.152C404.875 215.344 404.789 215.604 404.789 215.932V216.365ZM401.83 217.355L401.215 216.969L405.381 210.301L405.996 210.688L401.83 217.355Z" fill="#696969"/>
<path d="M429.963 209.463V210.383H429.764C428.92 210.398 428.248 210.648 427.748 211.133C427.248 211.617 426.959 212.299 426.881 213.178C427.33 212.662 427.943 212.404 428.721 212.404C429.463 212.404 430.055 212.666 430.496 213.189C430.941 213.713 431.164 214.389 431.164 215.217C431.164 216.096 430.924 216.799 430.443 217.326C429.967 217.854 429.326 218.117 428.521 218.117C427.705 218.117 427.043 217.805 426.535 217.18C426.027 216.551 425.773 215.742 425.773 214.754V214.338C425.773 212.768 426.107 211.568 426.775 210.74C427.447 209.908 428.445 209.482 429.77 209.463H429.963ZM428.539 213.307C428.168 213.307 427.826 213.418 427.514 213.641C427.201 213.863 426.984 214.143 426.863 214.479V214.877C426.863 215.58 427.021 216.146 427.338 216.576C427.654 217.006 428.049 217.221 428.521 217.221C429.01 217.221 429.393 217.041 429.67 216.682C429.951 216.322 430.092 215.852 430.092 215.27C430.092 214.684 429.949 214.211 429.664 213.852C429.383 213.488 429.008 213.307 428.539 213.307ZM436.701 209.463V210.383H436.502C435.658 210.398 434.986 210.648 434.486 211.133C433.986 211.617 433.697 212.299 433.619 213.178C434.068 212.662 434.682 212.404 435.459 212.404C436.201 212.404 436.793 212.666 437.234 213.189C437.68 213.713 437.902 214.389 437.902 215.217C437.902 216.096 437.662 216.799 437.182 217.326C436.705 217.854 436.064 218.117 435.26 218.117C434.443 218.117 433.781 217.805 433.273 217.18C432.766 216.551 432.512 215.742 432.512 214.754V214.338C432.512 212.768 432.846 211.568 433.514 210.74C434.186 209.908 435.184 209.482 436.508 209.463H436.701ZM435.277 213.307C434.906 213.307 434.564 213.418 434.252 213.641C433.939 213.863 433.723 214.143 433.602 214.479V214.877C433.602 215.58 433.76 216.146 434.076 216.576C434.393 217.006 434.787 217.221 435.26 217.221C435.748 217.221 436.131 217.041 436.408 216.682C436.689 216.322 436.83 215.852 436.83 215.27C436.83 214.684 436.688 214.211 436.402 213.852C436.121 213.488 435.746 213.307 435.277 213.307Z" fill="#696969"/>
<rect y="120" width="249" height="28" rx="4" fill="#F5F5F5"/>
<path d="M27.9297 140H26.4297V128.625H27.9297V140ZM33.8438 138.977C34.3594 138.977 34.8099 138.82 35.1953 138.508C35.5807 138.195 35.7943 137.805 35.8359 137.336H37.2031C37.1771 137.82 37.0104 138.281 36.7031 138.719C36.3958 139.156 35.9844 139.505 35.4688 139.766C34.9583 140.026 34.4167 140.156 33.8438 140.156C32.6927 140.156 31.776 139.773 31.0938 139.008C30.4167 138.237 30.0781 137.185 30.0781 135.852V135.609C30.0781 134.786 30.2292 134.055 30.5312 133.414C30.8333 132.773 31.2656 132.276 31.8281 131.922C32.3958 131.568 33.0651 131.391 33.8359 131.391C34.7839 131.391 35.5703 131.674 36.1953 132.242C36.8255 132.81 37.1615 133.547 37.2031 134.453H35.8359C35.7943 133.906 35.5859 133.458 35.2109 133.109C34.8411 132.755 34.3828 132.578 33.8359 132.578C33.1016 132.578 32.5312 132.844 32.125 133.375C31.724 133.901 31.5234 134.664 31.5234 135.664V135.938C31.5234 136.911 31.724 137.661 32.125 138.188C32.526 138.714 33.099 138.977 33.8438 138.977ZM42.3359 140.156C41.1901 140.156 40.2578 139.781 39.5391 139.031C38.8203 138.276 38.4609 137.268 38.4609 136.008V135.742C38.4609 134.904 38.6198 134.156 38.9375 133.5C39.2604 132.839 39.7083 132.323 40.2812 131.953C40.8594 131.578 41.4844 131.391 42.1562 131.391C43.2552 131.391 44.1094 131.753 44.7188 132.477C45.3281 133.201 45.6328 134.237 45.6328 135.586V136.188H39.9062C39.9271 137.021 40.1693 137.695 40.6328 138.211C41.1016 138.721 41.6953 138.977 42.4141 138.977C42.9245 138.977 43.3568 138.872 43.7109 138.664C44.0651 138.456 44.375 138.18 44.6406 137.836L45.5234 138.523C44.8151 139.612 43.7526 140.156 42.3359 140.156ZM42.1562 132.578C41.5729 132.578 41.0833 132.792 40.6875 133.219C40.2917 133.641 40.0469 134.234 39.9531 135H44.1875V134.891C44.1458 134.156 43.9479 133.589 43.5938 133.188C43.2396 132.781 42.7604 132.578 42.1562 132.578ZM46.9609 135.703C46.9609 134.406 47.2682 133.365 47.8828 132.578C48.4974 131.786 49.3021 131.391 50.2969 131.391C51.2865 131.391 52.0703 131.729 52.6484 132.406V128H54.0938V140H52.7656L52.6953 139.094C52.1172 139.802 51.3125 140.156 50.2812 140.156C49.3021 140.156 48.5026 139.755 47.8828 138.953C47.2682 138.151 46.9609 137.104 46.9609 135.812V135.703ZM48.4062 135.867C48.4062 136.826 48.6042 137.576 49 138.117C49.3958 138.659 49.9427 138.93 50.6406 138.93C51.5573 138.93 52.2266 138.518 52.6484 137.695V133.812C52.2161 133.016 51.5521 132.617 50.6562 132.617C49.9479 132.617 49.3958 132.891 49 133.438C48.6042 133.984 48.4062 134.794 48.4062 135.867ZM68.0859 129.859H64.4297V140H62.9375V129.859H59.2891V128.625H68.0859V129.859ZM72.2734 140.156C71.1276 140.156 70.1953 139.781 69.4766 139.031C68.7578 138.276 68.3984 137.268 68.3984 136.008V135.742C68.3984 134.904 68.5573 134.156 68.875 133.5C69.1979 132.839 69.6458 132.323 70.2188 131.953C70.7969 131.578 71.4219 131.391 72.0938 131.391C73.1927 131.391 74.0469 131.753 74.6562 132.477C75.2656 133.201 75.5703 134.237 75.5703 135.586V136.188H69.8438C69.8646 137.021 70.1068 137.695 70.5703 138.211C71.0391 138.721 71.6328 138.977 72.3516 138.977C72.862 138.977 73.2943 138.872 73.6484 138.664C74.0026 138.456 74.3125 138.18 74.5781 137.836L75.4609 138.523C74.7526 139.612 73.6901 140.156 72.2734 140.156ZM72.0938 132.578C71.5104 132.578 71.0208 132.792 70.625 133.219C70.2292 133.641 69.9844 134.234 69.8906 135H74.125V134.891C74.0833 134.156 73.8854 133.589 73.5312 133.188C73.1771 132.781 72.6979 132.578 72.0938 132.578ZM82.4688 140C82.3854 139.833 82.3177 139.536 82.2656 139.109C81.5938 139.807 80.7917 140.156 79.8594 140.156C79.026 140.156 78.3411 139.922 77.8047 139.453C77.2734 138.979 77.0078 138.38 77.0078 137.656C77.0078 136.776 77.3411 136.094 78.0078 135.609C78.6797 135.12 79.6224 134.875 80.8359 134.875H82.2422V134.211C82.2422 133.706 82.0911 133.305 81.7891 133.008C81.487 132.706 81.0417 132.555 80.4531 132.555C79.9375 132.555 79.5052 132.685 79.1562 132.945C78.8073 133.206 78.6328 133.521 78.6328 133.891H77.1797C77.1797 133.469 77.3281 133.062 77.625 132.672C77.9271 132.276 78.3333 131.964 78.8438 131.734C79.3594 131.505 79.9245 131.391 80.5391 131.391C81.513 131.391 82.276 131.635 82.8281 132.125C83.3802 132.609 83.6667 133.279 83.6875 134.133V138.023C83.6875 138.799 83.7865 139.417 83.9844 139.875V140H82.4688ZM80.0703 138.898C80.5234 138.898 80.9531 138.781 81.3594 138.547C81.7656 138.312 82.0599 138.008 82.2422 137.633V135.898H81.1094C79.3385 135.898 78.4531 136.417 78.4531 137.453C78.4531 137.906 78.6042 138.26 78.9062 138.516C79.2083 138.771 79.5964 138.898 80.0703 138.898Z" fill="black"/>
<circle cx="12" cy="134" r="6.5" stroke="#8C8C8C"/>
<path d="M390.006 138H388.916V130.775L386.73 131.578V130.594L389.836 129.428H390.006V138ZM396.744 138H395.654V130.775L393.469 131.578V130.594L396.574 129.428H396.744V138ZM399.826 131.109C399.826 130.598 399.988 130.176 400.312 129.844C400.641 129.512 401.061 129.346 401.572 129.346C402.092 129.346 402.512 129.514 402.832 129.85C403.156 130.182 403.318 130.613 403.318 131.145V131.561C403.318 132.076 403.154 132.498 402.826 132.826C402.502 133.15 402.088 133.312 401.584 133.312C401.076 133.312 400.656 133.15 400.324 132.826C399.992 132.498 399.826 132.062 399.826 131.52V131.109ZM400.635 131.561C400.635 131.865 400.721 132.117 400.893 132.316C401.064 132.512 401.295 132.609 401.584 132.609C401.861 132.609 402.084 132.514 402.252 132.322C402.424 132.131 402.51 131.869 402.51 131.537V131.109C402.51 130.805 402.426 130.553 402.258 130.354C402.09 130.154 401.861 130.055 401.572 130.055C401.283 130.055 401.055 130.154 400.887 130.354C400.719 130.553 400.635 130.812 400.635 131.133V131.561ZM403.98 135.908C403.98 135.396 404.143 134.977 404.467 134.648C404.795 134.316 405.215 134.15 405.727 134.15C406.238 134.15 406.658 134.314 406.986 134.643C407.314 134.971 407.479 135.406 407.479 135.949V136.365C407.479 136.877 407.314 137.299 406.986 137.631C406.662 137.959 406.246 138.123 405.738 138.123C405.23 138.123 404.811 137.961 404.479 137.637C404.146 137.309 403.98 136.873 403.98 136.33V135.908ZM404.789 136.365C404.789 136.674 404.875 136.928 405.047 137.127C405.219 137.322 405.449 137.42 405.738 137.42C406.02 137.42 406.244 137.324 406.412 137.133C406.58 136.938 406.664 136.674 406.664 136.342V135.908C406.664 135.6 406.578 135.348 406.406 135.152C406.238 134.957 406.012 134.859 405.727 134.859C405.449 134.859 405.223 134.957 405.047 135.152C404.875 135.344 404.789 135.604 404.789 135.932V136.365ZM401.83 137.355L401.215 136.969L405.381 130.301L405.996 130.688L401.83 137.355Z" fill="#696969"/>
<path d="M430.285 135.135H431.469V136.02H430.285V138H429.195V136.02H425.311V135.381L429.131 129.469H430.285V135.135ZM426.541 135.135H429.195V130.951L429.066 131.186L426.541 135.135ZM436.701 129.463V130.383H436.502C435.658 130.398 434.986 130.648 434.486 131.133C433.986 131.617 433.697 132.299 433.619 133.178C434.068 132.662 434.682 132.404 435.459 132.404C436.201 132.404 436.793 132.666 437.234 133.189C437.68 133.713 437.902 134.389 437.902 135.217C437.902 136.096 437.662 136.799 437.182 137.326C436.705 137.854 436.064 138.117 435.26 138.117C434.443 138.117 433.781 137.805 433.273 137.18C432.766 136.551 432.512 135.742 432.512 134.754V134.338C432.512 132.768 432.846 131.568 433.514 130.74C434.186 129.908 435.184 129.482 436.508 129.463H436.701ZM435.277 133.307C434.906 133.307 434.564 133.418 434.252 133.641C433.939 133.863 433.723 134.143 433.602 134.479V134.877C433.602 135.58 433.76 136.146 434.076 136.576C434.393 137.006 434.787 137.221 435.26 137.221C435.748 137.221 436.131 137.041 436.408 136.682C436.689 136.322 436.83 135.852 436.83 135.27C436.83 134.684 436.688 134.211 436.402 133.852C436.121 133.488 435.746 133.307 435.277 133.307Z" fill="#696969"/>
</svg>
